<svg width="21" height="22" viewBox="0 0 21 22" fill="none" xmlns="http://www.w3.org/2000/svg">
<g clip-path="url(#clip0)">
<path d="M15.5605 11.3801C14.232 11.3755 12.961 11.9247 12.0514 12.8971C10.7432 11.8492 9.11784 11.2813 7.44427 11.2876H7.43109C5.41968 11.2919 3.55315 12.0769 2.16977 13.5054C0.764288 14.9474 -0.00423981 16.9183 1.75939e-05 19.0568C0.000841605 19.1738 0.0465743 19.2858 0.127465 19.3697C0.210003 19.4528 0.322344 19.499 0.439216 19.4977L11.968 19.4757C11.9943 19.5066 12.0206 19.533 12.0471 19.5639C13.5606 21.1722 15.9666 21.5483 17.8957 20.4784C19.8249 19.4085 20.7887 17.1639 20.2387 15.0211C19.6887 12.8785 17.7644 11.3809 15.5605 11.3801ZM0.891598 18.6115C0.983887 16.8785 1.65148 15.2957 2.79767 14.1184C4.01432 12.8618 5.66125 12.1695 7.43109 12.1695H7.44427C8.92145 12.1637 10.3563 12.6645 11.5112 13.5893C10.5382 15.0981 10.4741 17.0231 11.3443 18.5939L0.891598 18.6115ZM15.5605 20.1988C13.3775 20.1988 11.6079 18.4221 11.6079 16.2303C11.6079 14.0389 13.3775 12.2621 15.5605 12.2621C17.7436 12.2621 19.5132 14.0389 19.5132 16.2303C19.5132 18.4221 17.7436 20.1988 15.5605 20.1988Z" fill="white"/>
<path fill-rule="evenodd" clip-rule="evenodd" d="M7.43109 11.2876H7.44427C9.11784 11.2813 10.7432 11.8493 12.0514 12.8971C12.961 11.9248 14.232 11.3755 15.5605 11.3802C17.7644 11.3809 19.6887 12.8785 20.2387 15.0212C20.7887 17.1638 19.8249 19.4086 17.8957 20.4785C15.9666 21.5483 13.5606 21.1721 12.0471 19.5639C12.034 19.5487 12.0211 19.5346 12.0082 19.5206C11.9947 19.506 11.9814 19.4914 11.968 19.4757L0.439216 19.4978C0.322344 19.499 0.210003 19.4528 0.127465 19.3698C0.0465743 19.2858 0.000841605 19.1739 1.75939e-05 19.0568C-0.00423981 16.9183 0.764288 14.9474 2.16977 13.5054C3.55315 12.0769 5.41968 11.2919 7.43109 11.2876ZM2.03908 13.3775C3.45737 11.9129 5.37114 11.1087 7.4307 11.1043H7.44393C9.10369 11.0981 10.7171 11.643 12.0346 12.6515C12.9692 11.7172 14.2375 11.1922 15.5608 11.1969C17.848 11.1977 19.8447 12.7519 20.4156 14.9754C20.9863 17.199 19.9861 19.5286 17.984 20.6389C15.982 21.7492 13.4851 21.3589 11.9143 19.6898L11.9086 19.6838C11.9016 19.6756 11.8948 19.6676 11.887 19.6592L0.441147 19.6811C0.440834 19.6811 0.440521 19.6811 0.440207 19.6811L2.03908 13.3775ZM7.44427 12.1696H7.43109C5.66125 12.1696 4.01432 12.8618 2.79767 14.1185C1.69202 15.2541 1.03172 16.7671 0.90355 18.4281C0.898848 18.489 0.894863 18.5501 0.891598 18.6114L11.3443 18.5939C11.3108 18.5334 11.2786 18.4723 11.2479 18.4108C10.4803 16.8753 10.5757 15.0399 11.5112 13.5893C10.3563 12.6646 8.92145 12.1638 7.44427 12.1696ZM11.2691 13.6326C10.1697 12.7978 8.82636 12.3475 7.44498 12.3529H7.43109C5.70975 12.3529 4.11032 13.0257 2.92861 14.2463C1.85808 15.3458 1.21452 16.8125 1.08674 18.4278L11.0446 18.4111C10.3158 16.8851 10.3974 15.0882 11.2691 13.6326ZM11.7905 16.2304C11.7905 18.3209 13.4783 20.0155 15.5605 20.0155C17.6427 20.0155 19.3306 18.3209 19.3306 16.2304C19.3306 14.1402 17.6427 12.4454 15.5605 12.4454C13.4783 12.4454 11.7905 14.1402 11.7905 16.2304ZM11.6079 16.2304C11.6079 18.4221 13.3775 20.1988 15.5605 20.1988C17.7436 20.1988 19.5132 18.4221 19.5132 16.2304C19.5132 14.0389 17.7436 12.2621 15.5605 12.2621C13.3775 12.2621 11.6079 14.0389 11.6079 16.2304Z" fill="white"/>
<path d="M7.43551 10.238C9.99928 10.238 12.0777 8.15134 12.0777 5.57739C12.0777 3.00331 9.99928 0.916626 7.43551 0.916626C4.87174 0.916626 2.7933 3.00331 2.7933 5.57739C2.79578 8.15024 4.8727 10.2356 7.43551 10.238ZM7.43551 1.79851C9.51436 1.79851 11.1993 3.49043 11.1993 5.57739C11.1993 7.66421 9.51436 9.3561 7.43551 9.3561C5.3568 9.3561 3.6717 7.66421 3.6717 5.57739C3.67417 3.49141 5.35777 1.80113 7.43551 1.79851Z" fill="white"/>
<path fill-rule="evenodd" clip-rule="evenodd" d="M2.6107 5.57767V5.5775C2.6107 2.90216 4.77089 0.733398 7.43553 0.733398C10.1002 0.733398 12.2603 2.90216 12.2603 5.5775C12.2603 8.2527 10.1002 10.4214 7.43553 10.4214V10.2381C9.99929 10.2381 12.0777 8.15144 12.0777 5.5775C12.0777 3.00341 9.99929 0.916733 7.43553 0.916733C4.87175 0.916733 2.79331 3.00341 2.79331 5.5775C2.79579 8.15034 4.87271 10.2356 7.43553 10.2381L7.43534 10.4214C4.77181 10.4189 2.61328 8.25162 2.6107 5.57767ZM7.43553 1.79861C5.35778 1.80123 3.67418 3.4915 3.67171 5.5775C3.67171 7.66432 5.35682 9.35625 7.43553 9.35625C9.51437 9.35625 11.1993 7.66432 11.1993 5.5775C11.1993 3.49054 9.51437 1.79861 7.43553 1.79861ZM3.85432 5.57753C3.85434 7.56309 5.45768 9.17292 7.43553 9.17292C9.41348 9.17292 11.0167 7.56307 11.0167 5.5775C11.0167 3.5918 9.41357 1.98197 7.43558 1.98195C5.45864 1.98453 3.85677 3.59277 3.85432 5.57753Z" fill="white"/>
<path d="M17.0406 14.8855L14.9191 16.6184L14.1419 15.7056C13.9842 15.5205 13.7071 15.4988 13.5227 15.6571C13.3383 15.8154 13.3167 16.0938 13.4744 16.2789L14.5284 17.5178C14.6121 17.6154 14.7339 17.6718 14.8623 17.6721C14.9629 17.6732 15.0607 17.6387 15.1388 17.5752L17.5941 15.5689C17.7794 15.415 17.8065 15.1395 17.6548 14.952C17.5028 14.7643 17.2288 14.7348 17.0406 14.8855Z" fill="white"/>
</g>
<defs>
<clipPath id="clip0">
<rect width="21" height="22" fill="white"/>
</clipPath>
</defs>
</svg>
