<svg width="21" height="21" viewBox="0 0 21 21" fill="none" xmlns="http://www.w3.org/2000/svg">
<path d="M13.5 19.2801V19.2802L13.5045 19.2801C14.1088 19.2621 14.7069 19.1602 15.2793 18.9778C16.0653 19.5548 17.0539 19.8458 17.8562 19.9938C18.6822 20.1463 19.3273 20.15 19.3858 20.15H19.3859C19.477 20.15 19.5672 20.1286 19.6481 20.0872C19.7291 20.0459 19.7989 19.9856 19.8501 19.911C19.9014 19.8363 19.9324 19.7499 19.9392 19.6597C19.946 19.5707 19.9289 19.4818 19.8902 19.4013C19.5179 18.5503 19.2875 17.6514 19.2068 16.7358C19.8137 15.9528 20.1444 15.0101 20.15 14.0397V14.0388C20.15 11.1166 17.1308 8.79739 13.5 8.79739C9.86922 8.79739 6.85 11.1166 6.85 14.0388C6.85 16.9611 9.86922 19.2801 13.5 19.2801ZM15.2556 17.883L15.2549 17.8832L14.9957 17.9545L14.9957 17.9544L14.9887 17.9567C14.5087 18.1145 14.006 18.2045 13.4973 18.2235C11.9594 18.2229 10.5705 17.746 9.56905 16.9831C8.56704 16.2199 7.95961 15.177 7.95961 14.0388C7.95961 12.9007 8.56705 11.8578 9.56905 11.0945C10.5711 10.3311 11.9611 9.85406 13.5 9.85406C15.0389 9.85406 16.4289 10.3311 17.4309 11.0945C18.4327 11.8576 19.0401 12.9003 19.0404 14.0382C19.0331 14.8397 18.7392 15.6173 18.2033 16.247L18.202 16.2485C18.1194 16.3482 18.0766 16.4739 18.0836 16.603L18.0836 16.603L18.0838 16.6054C18.142 17.4281 18.3005 18.2416 18.5562 19.03C18.1933 18.9844 17.7496 18.9062 17.3006 18.7726C16.749 18.6084 16.1992 18.3633 15.7808 18.0005C15.7102 17.9393 15.6248 17.897 15.5332 17.8766C15.4416 17.8563 15.3461 17.8585 15.2556 17.883Z" fill="white" stroke="white" stroke-width="0.3"/>
<path d="M2.03717 17.7278L2.03702 17.7278C1.94497 17.7264 1.85502 17.7005 1.77625 17.6528C1.6975 17.6051 1.6328 17.5373 1.58846 17.4565C1.54412 17.3758 1.52162 17.2847 1.52309 17.1926C1.52455 17.1004 1.54992 17.0102 1.5968 16.9309L2.03717 17.7278ZM2.03717 17.7278C2.09336 17.7285 2.1487 17.7289 2.20389 17.7289C5.67335 17.7289 6.93281 16.2142 7.00867 16.1182L7.00883 16.118M2.03717 17.7278L7.00883 16.118M7.00883 16.118C7.09436 16.0093 7.1338 15.8711 7.11908 15.7335C7.10436 15.596 7.03656 15.4693 6.92972 15.3815C6.82279 15.2937 6.68554 15.252 6.54792 15.2662C6.41033 15.2804 6.28442 15.3492 6.19736 15.4568L6.31396 15.5511M7.00883 16.118L3.4522 12.5782M3.4522 12.5782L3.45218 12.5783C3.51349 12.6477 3.55536 12.7321 3.57377 12.8229C3.72724 13.5785 3.63496 14.3793 3.45634 15.0932C3.30669 15.6912 3.09466 16.2352 2.90772 16.6511C5.29636 16.4814 6.17527 15.4818 6.19767 15.4563C6.19815 15.4558 6.19823 15.4557 6.19793 15.4561L6.31396 15.5511M3.4522 12.5782L3.45019 12.5761M3.4522 12.5782L3.45019 12.5761M6.31396 15.5511C6.30417 15.5631 5.38276 16.6475 2.8365 16.8062L2.03916 17.5778C2.09484 17.5785 2.14951 17.5789 2.20389 17.5789C5.62211 17.5789 6.84006 16.0896 6.89096 16.0252C6.95212 15.9475 6.98051 15.8484 6.96993 15.7495C6.95936 15.6506 6.91067 15.56 6.83449 15.4974C6.75832 15.4348 6.66084 15.4054 6.56332 15.4154C6.4658 15.4255 6.37617 15.4743 6.31396 15.5511ZM3.45019 12.5761C2.46228 11.5012 1.90637 10.0897 1.89245 8.6193C1.89292 4.94093 5.50282 1.90333 10 1.90333C14.4975 1.90333 18.1075 4.94132 18.1075 8.62001C18.1075 8.75899 18.1619 8.89271 18.2594 8.99164C18.357 9.09065 18.4898 9.14667 18.6288 9.14667C18.7677 9.14667 18.9005 9.09065 18.9981 8.99164C19.0956 8.89271 19.15 8.75899 19.15 8.62001C19.15 4.31298 15.0211 0.85 10 0.85C4.97894 0.85 0.85 4.31297 0.849996 8.62001L0.850004 8.62106M3.45019 12.5761L0.850004 8.62106M0.850004 8.62106C0.861829 10.299 1.4755 11.915 2.57593 13.1672C2.69798 13.9766 2.46801 14.8982 2.19332 15.6376C2.05457 16.0111 1.90649 16.3327 1.79232 16.5622C1.73527 16.6769 1.68679 16.7684 1.65232 16.8316C1.63509 16.8633 1.62137 16.8878 1.61184 16.9046L1.60079 16.924L1.59781 16.9291C1.59719 16.9302 1.59687 16.9307 1.59681 16.9308C1.59681 16.9308 1.59681 16.9308 1.59681 16.9308L0.850004 8.62106ZM2.73822 16.6616C3.14673 15.7709 3.7047 14.2211 3.42677 12.8528L2.73822 16.6616Z" fill="white" stroke="white" stroke-width="0.3"/>
<path d="M4.25067 6.48159C4.17157 6.48159 4.10442 6.51648 4.0536 6.56289C4.00375 6.60841 3.96559 6.66806 3.93682 6.73149C3.90766 6.79576 3.88603 6.86856 3.87166 6.94504C3.85724 7.02178 3.85 7.10295 3.85 7.18422C3.85 7.2655 3.85724 7.34666 3.87166 7.42341C3.88603 7.49988 3.90766 7.57268 3.93682 7.63696C3.96559 7.70038 4.00375 7.76003 4.0536 7.80555C4.10442 7.85197 4.17157 7.88685 4.25067 7.88685H5.74933C5.82843 7.88685 5.89558 7.85197 5.9464 7.80555C5.99625 7.76003 6.03441 7.70038 6.06318 7.63696C6.09234 7.57268 6.11397 7.49988 6.12834 7.42341C6.14276 7.34666 6.15 7.2655 6.15 7.18422C6.15 7.10295 6.14276 7.02178 6.12834 6.94504C6.11397 6.86856 6.09234 6.79576 6.06318 6.73149C6.03441 6.66806 5.99625 6.60841 5.9464 6.56289C5.89558 6.51648 5.82843 6.48159 5.74933 6.48159H4.25067Z" fill="white" stroke="white" stroke-width="0.3"/>
<path d="M11.1023 6.91998C11.1339 7.00412 11.15 7.09387 11.15 7.18421L11.1023 6.91998ZM11.1023 6.91998C11.0706 6.83582 11.024 6.75846 10.9643 6.69266M11.1023 6.91998L10.9643 6.69266M10.9643 6.69266C10.9045 6.62682 10.8328 6.57373 10.7528 6.5372M10.9643 6.69266L10.7528 6.5372M10.7528 6.5372C10.6727 6.50064 10.5863 6.48159 10.4987 6.48159M10.7528 6.5372L10.4987 6.48159M10.4987 6.48159C10.4986 6.48159 10.4986 6.48159 10.4986 6.48159M10.4987 6.48159H10.4986M10.4986 6.48159H7.50135C7.32362 6.48159 7.15652 6.55954 7.03575 6.69267C6.91542 6.82531 6.85 7.00233 6.85 7.18422C6.85 7.36611 6.91542 7.54314 7.03575 7.67578C7.15652 7.8089 7.32362 7.88685 7.50135 7.88685H10.4986C10.4986 7.88685 10.4986 7.88685 10.4987 7.88685C10.5863 7.88686 10.6727 7.8678 10.7528 7.83125C10.8328 7.79472 10.9045 7.74163 10.9643 7.67579C11.024 7.60998 11.0706 7.53263 11.1023 7.44847C11.1339 7.36433 11.15 7.27458 11.15 7.18423L10.4986 6.48159Z" fill="white" stroke="white" stroke-width="0.3"/>
<path d="M14.624 7.88685C14.7862 7.88685 14.9235 7.79217 15.0139 7.65937C15.104 7.52686 15.15 7.35567 15.15 7.18422C15.15 7.01278 15.104 6.84159 15.0139 6.70907C14.9235 6.57628 14.7862 6.48159 14.624 6.48159H12.376C12.2138 6.48159 12.0765 6.57627 11.9861 6.70907C11.896 6.84159 11.85 7.01278 11.85 7.18422C11.85 7.35566 11.896 7.52686 11.9861 7.65937C12.0765 7.79217 12.2138 7.88685 12.376 7.88685H14.624Z" fill="white" stroke="white" stroke-width="0.3"/>
</svg>
