<svg width="21" height="21" viewBox="0 0 21 21" fill="none" xmlns="http://www.w3.org/2000/svg">
<path fill-rule="evenodd" clip-rule="evenodd" d="M1.2 1.2V11.6291H8.74738V1.2H1.2ZM1 0C0.447715 0 0 0.447716 0 1V11.8291C0 12.3814 0.447715 12.8291 0.999999 12.8291H8.94738C9.49967 12.8291 9.94738 12.3814 9.94738 11.8291V1C9.94738 0.447715 9.49967 0 8.94738 0H1Z" fill="white"/>
<path fill-rule="evenodd" clip-rule="evenodd" d="M1.2 14.8309V18.8455H8.74738V14.8309H1.2ZM1 13.6309C0.447715 13.6309 0 14.0786 0 14.6309V19.0455C0 19.5977 0.447715 20.0455 0.999999 20.0455H8.94738C9.49967 20.0455 9.94738 19.5977 9.94738 19.0455V14.6309C9.94738 14.0786 9.49967 13.6309 8.94738 13.6309H1Z" fill="white"/>
<path fill-rule="evenodd" clip-rule="evenodd" d="M19.8 18.8454V8.41631H12.2526V18.8454H19.8ZM20 20.0454C20.5523 20.0454 21 19.5977 21 19.0454V8.21631C21 7.66403 20.5523 7.21631 20 7.21631H12.0526C11.5003 7.21631 11.0526 7.66403 11.0526 8.21631V19.0454C11.0526 19.5977 11.5003 20.0454 12.0526 20.0454H20Z" fill="white"/>
<path fill-rule="evenodd" clip-rule="evenodd" d="M19.8 5.21455V1.2H12.2526V5.21455H19.8ZM20 6.41455C20.5523 6.41455 21 5.96683 21 5.41455V1C21 0.447716 20.5523 0 20 0H12.0526C11.5003 0 11.0526 0.447716 11.0526 1V5.41455C11.0526 5.96683 11.5003 6.41455 12.0526 6.41455H20Z" fill="white"/>
</svg>
