<svg width="20" height="21" viewBox="0 0 20 21" fill="none" xmlns="http://www.w3.org/2000/svg">
<g clip-path="url(#clip0)">
<path d="M19.0292 5.83942L11.5292 0.439423C11.0878 0.121629 10.5512 -0.05 10 -0.05C9.44875 -0.05 8.91217 0.121629 8.47079 0.439423L0.970785 5.83942C0.654075 6.06745 0.396832 6.36328 0.219586 6.70359C0.0423349 7.04391 -0.05 7.4193 -0.05 7.8V18.6C-0.05 19.2505 0.219177 19.8738 0.697606 20.3331C1.17597 20.7924 1.82434 21.05 2.5 21.05H17.5C18.1757 21.05 18.824 20.7924 19.3024 20.3331C19.7808 19.8738 20.05 19.2505 20.05 18.6V7.8C20.05 7.4193 19.9577 7.04391 19.7804 6.70359C19.6032 6.36328 19.3459 6.06745 19.0292 5.83942ZM9.32492 13.75H5.05V9.05H9.32492V13.75ZM5.05 19.75V15.05H9.32492V19.75H5.05ZM10.6751 19.75V15.05H14.95V19.75H10.6751ZM18.7 18.5999C18.6996 18.9042 18.5736 19.1963 18.3488 19.4121C18.124 19.6279 17.8188 19.7496 17.4999 19.75H16.3V15C16.3 14.6678 16.1625 14.3497 15.9185 14.1154C15.6746 13.8812 15.3441 13.75 15 13.75H10.6749V9C10.6749 8.66781 10.5374 8.34965 10.2934 8.1154C10.0495 7.88122 9.71906 7.75 9.37492 7.75H5C4.65586 7.75 4.32543 7.88122 4.08149 8.1154C3.83748 8.34965 3.7 8.66781 3.7 9V19.75H2.50006C2.18125 19.7496 1.876 19.6279 1.65116 19.4121C1.4264 19.1963 1.30036 18.9042 1.3 18.5999L1.3 7.80013C1.3 7.80011 1.3 7.80009 1.3 7.80008C1.30046 7.62195 1.34387 7.44626 1.42695 7.28675C1.51004 7.12721 1.63059 6.98812 1.77931 6.88051L9.27921 1.48058C9.48695 1.33101 9.73986 1.25 10 1.25C10.2601 1.25 10.5131 1.33101 10.7208 1.48058L18.2207 6.88051C18.3694 6.98812 18.49 7.12721 18.5731 7.28675C18.6561 7.44627 18.6996 7.62198 18.7 7.80013V18.5999Z" fill="white" stroke="white" stroke-width="0.1"/>
</g>
<defs>
<clipPath id="clip0">
<rect width="20" height="21" fill="white"/>
</clipPath>
</defs>
</svg>
