<svg width="18" height="21" viewBox="0 0 18 21" fill="none" xmlns="http://www.w3.org/2000/svg">
<g clip-path="url(#clip0)">
<path d="M0 -0.1H-0.1V0V0.500035V18.4998C-0.1 19.9336 1.06439 21.1 2.49934 21.1H14.2496H14.4622H14.5047L14.5342 21.0694L14.6819 20.9162L14.6819 20.9162L17.932 17.5394L17.932 17.5393L18.072 17.394L18.1 17.365V17.3246V17.1231V2.49725C18.1 1.06228 16.9354 -0.1 15.4997 -0.1H0.499868H0ZM15.4997 1.10007C16.2738 1.10007 16.9003 1.72578 16.9003 2.49725V16.8809L13.9944 19.9004H2.49934C1.72743 19.9004 1.09974 19.2716 1.09974 18.5003V1.10007H15.4997Z" fill="white" stroke="white" stroke-width="0.2"/>
<path d="M14.2869 4.60031C14.6182 4.60031 14.8872 4.33169 14.8872 4.00028C14.8872 3.66887 14.6182 3.40024 14.2869 3.40024H3.99992C3.66854 3.40024 3.39957 3.66887 3.39957 4.00028C3.39957 4.33169 3.66854 4.60031 3.99992 4.60031H14.2869Z" fill="white" stroke="white" stroke-width="0.2"/>
<path d="M14.2869 7.60001C14.6181 7.60001 14.8872 7.332 14.8872 7.00046C14.8872 6.66905 14.6182 6.40043 14.2869 6.40043H3.99992C3.6686 6.40043 3.39957 6.6685 3.39957 7.00046C3.39957 7.33255 3.66873 7.60001 3.99992 7.60001H14.2869Z" fill="white" stroke="white" stroke-width="0.2"/>
<path d="M14.2869 11.1003C14.6182 11.1003 14.8872 10.8317 14.8872 10.5003C14.8872 10.1693 14.6182 9.90073 14.2869 9.90073H3.99992C3.6686 9.90073 3.39957 10.1693 3.39957 10.5003C3.39957 10.8317 3.66854 11.1003 3.99992 11.1003H14.2869Z" fill="white" stroke="white" stroke-width="0.2"/>
<path d="M16.9535 14.648C17.2849 14.648 17.5539 14.3794 17.5539 14.0479C17.5539 13.717 17.2849 13.4484 16.9535 13.4484H10.6666C10.3353 13.4484 10.0663 13.717 10.0663 14.0479C10.0663 14.3794 10.3352 14.648 10.6666 14.648H16.9535Z" fill="white" stroke="white" stroke-width="0.2"/>
<path d="M9.88485 19.9521C9.88485 20.2849 10.1469 20.5605 10.4769 20.5605C10.8066 20.5605 11.0686 20.2848 11.0686 19.9521L11.0686 14.2411C11.0686 13.9084 10.8066 13.6327 10.4769 13.6327C10.1469 13.6327 9.88485 13.9084 9.88485 14.2411L9.88485 19.9521Z" fill="white" stroke="white" stroke-width="0.2"/>
</g>
<defs>
<clipPath id="clip0">
<rect width="18" height="21" fill="white"/>
</clipPath>
</defs>
</svg>
