<svg width="21" height="22" viewBox="0 0 21 22" fill="none" xmlns="http://www.w3.org/2000/svg">
<g clip-path="url(#clip0)">
<mask id="path-1-outside-1" maskUnits="userSpaceOnUse" x="-1" y="-1" width="23" height="24" fill="black">
<rect fill="white" x="-1" y="-1" width="23" height="24"/>
<path d="M19.4099 0H1.59005C1.16897 0.00231143 0.765698 0.199372 0.467945 0.548321C0.170192 0.897269 0.00204306 1.36988 7.07502e-05 1.86336V16.9988C-0.00190829 17.2458 0.037649 17.4909 0.116484 17.72C0.195319 17.9491 0.311887 18.1577 0.459532 18.334C0.607177 18.5103 0.783008 18.6508 0.976984 18.7474C1.17096 18.8441 1.37928 18.895 1.59005 18.8973H7.64249V21.2441H5.46751C5.38198 21.2441 5.29995 21.2839 5.23947 21.3548C5.17899 21.4257 5.14501 21.5218 5.14501 21.6221C5.14501 21.7223 5.17899 21.8184 5.23947 21.8893C5.29995 21.9602 5.38198 22 5.46751 22H15.5399C15.5819 22 15.6235 21.9902 15.6622 21.9711C15.7009 21.952 15.736 21.924 15.7653 21.8888C15.7947 21.8536 15.8177 21.8118 15.8331 21.766C15.8485 21.7202 15.8559 21.6713 15.8549 21.6221C15.8549 21.5233 15.822 21.4285 15.7631 21.3579C15.7042 21.2872 15.6241 21.2464 15.5399 21.2441H13.3649V18.8973H19.4099C19.6209 18.8962 19.8297 18.846 20.0241 18.7498C20.2185 18.6535 20.3948 18.5131 20.5426 18.3366C20.6905 18.16 20.807 17.9509 20.8855 17.7213C20.9639 17.4917 21.0028 17.2461 20.9998 16.9988V14.7048C21.0008 14.6555 20.9934 14.6066 20.9781 14.5608C20.9627 14.515 20.9396 14.4732 20.9103 14.438C20.8809 14.4028 20.8459 14.3748 20.8071 14.3557C20.7684 14.3366 20.7269 14.3268 20.6848 14.3268C20.6428 14.3268 20.6013 14.3366 20.5625 14.3557C20.5238 14.3748 20.4888 14.4028 20.4594 14.438C20.4301 14.4732 20.407 14.515 20.3916 14.5608C20.3763 14.6066 20.3688 14.6555 20.3698 14.7048V15.8825H11.085V10.8374C11.085 10.1567 10.8542 9.50391 10.4435 9.02259C10.0328 8.54128 9.47579 8.27087 8.89497 8.27087H4.11753C3.53671 8.27087 2.97968 8.54128 2.56898 9.02259C2.15828 9.50391 1.92755 10.1567 1.92755 10.8374V15.8825H0.637564V1.86336C0.637556 1.5665 0.737667 1.28166 0.916081 1.07092C1.0945 0.860188 1.33675 0.740633 1.59005 0.738314H19.4099C19.6639 0.740613 19.9069 0.859883 20.0865 1.07037C20.2661 1.28087 20.3679 1.56569 20.3698 1.86336V1.94247C20.3698 2.04038 20.403 2.13427 20.4621 2.2035C20.5212 2.27273 20.6013 2.31163 20.6848 2.31163C20.7678 2.30939 20.8468 2.26978 20.9055 2.20103C20.9641 2.13228 20.9979 2.03967 20.9998 1.94247V1.86336C20.9979 1.36988 20.8297 0.897269 20.532 0.548321C20.2342 0.199372 19.8309 0.00231143 19.4099 0ZM12.7499 21.2177H8.24998V18.8973H12.7499V21.2177ZM2.55754 10.8374C2.55754 10.3525 2.7219 9.88751 3.01445 9.54466C3.30701 9.2018 3.70379 9.00919 4.11753 9.00919H6.2175V9.03675C6.2175 9.13466 6.25069 9.22856 6.30976 9.29779C6.36884 9.36702 6.44896 9.40591 6.5325 9.40591C6.61604 9.40591 6.69616 9.36702 6.75524 9.29779C6.81431 9.22856 6.8475 9.13466 6.8475 9.03675V9.00919H8.89497C9.30741 9.01151 9.70227 9.20515 9.9932 9.54776C10.2841 9.89036 10.4475 10.354 10.4475 10.8374V15.8825H9.20997V16.2241C9.21704 16.1703 9.21409 16.1153 9.20132 16.0629C9.18855 16.0105 9.16626 15.9619 9.13599 15.9206C9.10571 15.8792 9.06816 15.846 9.02592 15.8233C8.98367 15.8005 8.93772 15.7887 8.89122 15.7887C8.84473 15.7887 8.79878 15.8005 8.75653 15.8233C8.71428 15.846 8.67674 15.8792 8.64646 15.9206C8.61619 15.9619 8.5939 16.0105 8.58113 16.0629C8.56836 16.1153 8.56541 16.1703 8.57248 16.2241V15.8825H4.44002V16.2241C4.44002 16.1239 4.40605 16.0278 4.34557 15.9569C4.28509 15.886 4.20306 15.8462 4.11753 15.8462C4.07552 15.8462 4.03394 15.856 3.99522 15.8751C3.95651 15.8942 3.92145 15.9222 3.8921 15.9574C3.86275 15.9926 3.8397 16.0344 3.82432 16.0802C3.80894 16.126 3.80153 16.1749 3.80253 16.2241V15.8825H2.55754V10.8374ZM20.3698 16.6296V16.9988C20.3698 17.2972 20.2687 17.5833 20.0887 17.7943C19.9086 18.0053 19.6645 18.1238 19.4099 18.1238H1.59005C1.46434 18.1239 1.33986 18.0947 1.22381 18.038C1.10776 17.9814 1.00242 17.8984 0.913876 17.7938C0.82533 17.6892 0.755327 17.5651 0.707904 17.4287C0.66048 17.2922 0.636574 17.1461 0.637564 16.9988V16.6296H20.3698Z"/>
<path d="M5.00001 4.49429C4.99888 4.79144 5.08603 5.08224 5.25042 5.32979C5.41481 5.57734 5.64901 5.77048 5.92334 5.88472C6.19766 5.99896 6.49973 6.02915 6.79123 5.97146C7.08274 5.91376 7.35054 5.77078 7.56066 5.56066C7.77078 5.35054 7.91376 5.08274 7.97146 4.79123C8.02915 4.49973 7.99896 4.19766 7.88472 3.92334C7.77048 3.64901 7.57734 3.41481 7.32979 3.25042C7.08224 3.08603 6.79144 2.99888 6.49429 3.00001C6.0989 3.00301 5.72057 3.1614 5.44098 3.44098C5.1614 3.72057 5.00301 4.09891 5.00001 4.49429ZM7.50764 4.49429C7.50763 4.69519 7.4479 4.89156 7.33603 5.05845C7.22417 5.22533 7.06522 5.3552 6.87939 5.43155C6.69355 5.5079 6.48922 5.52729 6.29234 5.48725C6.09546 5.44722 5.91493 5.34956 5.77367 5.20669C5.63242 5.06382 5.53682 4.88219 5.49902 4.68487C5.46122 4.48755 5.48293 4.28345 5.56139 4.09849C5.63985 3.91353 5.77151 3.75607 5.93966 3.64611C6.1078 3.53615 6.30484 3.47866 6.50574 3.48093C6.63902 3.48017 6.77114 3.50586 6.89443 3.55652C7.01772 3.60717 7.12973 3.68179 7.22398 3.77604C7.31823 3.87029 7.39285 3.9823 7.4435 4.10559C7.49416 4.22888 7.51985 4.361 7.51909 4.49429H7.50764Z"/>
<path d="M20.0023 3.42792H13.4174C13.1508 3.42792 12.8952 3.55201 12.7067 3.77288C12.5183 3.99376 12.4124 4.29334 12.4124 4.6057V5.21218H10.7699C10.7114 5.21322 10.6541 5.23249 10.604 5.26801C10.554 5.30354 10.5128 5.35404 10.4849 5.41433C10.4559 5.47148 10.4405 5.53678 10.4405 5.60331C10.4405 5.66984 10.4559 5.73513 10.4849 5.79228L12.3374 9.06195C12.3753 9.13327 12.396 9.21527 12.3974 9.29927V12.024C12.3974 12.3364 12.5033 12.6359 12.6917 12.8568C12.8802 13.0777 13.1358 13.2018 13.4024 13.2018H19.9873C20.1199 13.2029 20.2514 13.1733 20.3742 13.1147C20.497 13.056 20.6087 12.9694 20.7028 12.8599C20.7969 12.7505 20.8716 12.6202 20.9226 12.4768C20.9736 12.3333 20.9998 12.1794 20.9998 12.024V4.6057C20.9998 4.29485 20.895 3.9966 20.7081 3.77597C20.5212 3.55535 20.2675 3.43024 20.0023 3.42792ZM20.3698 12.024C20.3698 12.1382 20.3311 12.2478 20.2622 12.3285C20.1932 12.4093 20.0998 12.4547 20.0023 12.4547H13.4174C13.3199 12.4547 13.2264 12.4093 13.1575 12.3285C13.0886 12.2478 13.0499 12.1382 13.0499 12.024V9.29927C13.0516 9.06943 12.9912 8.84485 12.8774 8.65764L11.3774 5.96807H12.7499C12.8354 5.96807 12.9174 5.92825 12.9779 5.85737C13.0384 5.78649 13.0724 5.69036 13.0724 5.59012V4.6057C13.0743 4.49218 13.1136 4.38394 13.1821 4.30365C13.2507 4.22337 13.343 4.17727 13.4399 4.17502H20.0248C20.1217 4.17727 20.214 4.22337 20.2825 4.30365C20.3511 4.38394 20.3904 4.49218 20.3923 4.6057L20.3698 12.024Z"/>
<path d="M18.7499 6.93689H14.6399C14.555 6.93913 14.4741 6.97967 14.414 7.05006C14.3539 7.12046 14.3193 7.2153 14.3174 7.31484C14.3174 7.41507 14.3514 7.51121 14.4119 7.58208C14.4724 7.65296 14.5544 7.69278 14.6399 7.69278H18.7499C18.8354 7.69278 18.9174 7.65296 18.9779 7.58208C19.0384 7.51121 19.0724 7.41507 19.0724 7.31484C19.0724 7.2146 19.0384 7.11847 18.9779 7.04759C18.9174 6.97671 18.8354 6.93689 18.7499 6.93689Z"/>
<path d="M17.1825 9.187H14.64C14.5565 9.187 14.4763 9.22589 14.4173 9.29512C14.3582 9.36435 14.325 9.45825 14.325 9.55615C14.325 9.65406 14.3582 9.74796 14.4173 9.81719C14.4763 9.88642 14.5565 9.92531 14.64 9.92531H17.1825C17.2245 9.92533 17.2661 9.91549 17.3048 9.89639C17.3435 9.87729 17.3786 9.84931 17.4079 9.8141C17.4373 9.77888 17.4603 9.73714 17.4757 9.69133C17.4911 9.64553 17.4985 9.59658 17.4975 9.54736C17.4975 9.49929 17.4893 9.4517 17.4734 9.4074C17.4574 9.36309 17.4341 9.32297 17.4048 9.28939C17.3754 9.25581 17.3406 9.22945 17.3025 9.21186C17.2643 9.19428 17.2235 9.18582 17.1825 9.187Z"/>
</mask>
<path d="M19.4099 0H1.59005C1.16897 0.00231143 0.765698 0.199372 0.467945 0.548321C0.170192 0.897269 0.00204306 1.36988 7.07502e-05 1.86336V16.9988C-0.00190829 17.2458 0.037649 17.4909 0.116484 17.72C0.195319 17.9491 0.311887 18.1577 0.459532 18.334C0.607177 18.5103 0.783008 18.6508 0.976984 18.7474C1.17096 18.8441 1.37928 18.895 1.59005 18.8973H7.64249V21.2441H5.46751C5.38198 21.2441 5.29995 21.2839 5.23947 21.3548C5.17899 21.4257 5.14501 21.5218 5.14501 21.6221C5.14501 21.7223 5.17899 21.8184 5.23947 21.8893C5.29995 21.9602 5.38198 22 5.46751 22H15.5399C15.5819 22 15.6235 21.9902 15.6622 21.9711C15.7009 21.952 15.736 21.924 15.7653 21.8888C15.7947 21.8536 15.8177 21.8118 15.8331 21.766C15.8485 21.7202 15.8559 21.6713 15.8549 21.6221C15.8549 21.5233 15.822 21.4285 15.7631 21.3579C15.7042 21.2872 15.6241 21.2464 15.5399 21.2441H13.3649V18.8973H19.4099C19.6209 18.8962 19.8297 18.846 20.0241 18.7498C20.2185 18.6535 20.3948 18.5131 20.5426 18.3366C20.6905 18.16 20.807 17.9509 20.8855 17.7213C20.9639 17.4917 21.0028 17.2461 20.9998 16.9988V14.7048C21.0008 14.6555 20.9934 14.6066 20.9781 14.5608C20.9627 14.515 20.9396 14.4732 20.9103 14.438C20.8809 14.4028 20.8459 14.3748 20.8071 14.3557C20.7684 14.3366 20.7269 14.3268 20.6848 14.3268C20.6428 14.3268 20.6013 14.3366 20.5625 14.3557C20.5238 14.3748 20.4888 14.4028 20.4594 14.438C20.4301 14.4732 20.407 14.515 20.3916 14.5608C20.3763 14.6066 20.3688 14.6555 20.3698 14.7048V15.8825H11.085V10.8374C11.085 10.1567 10.8542 9.50391 10.4435 9.02259C10.0328 8.54128 9.47579 8.27087 8.89497 8.27087H4.11753C3.53671 8.27087 2.97968 8.54128 2.56898 9.02259C2.15828 9.50391 1.92755 10.1567 1.92755 10.8374V15.8825H0.637564V1.86336C0.637556 1.5665 0.737667 1.28166 0.916081 1.07092C1.0945 0.860188 1.33675 0.740633 1.59005 0.738314H19.4099C19.6639 0.740613 19.9069 0.859883 20.0865 1.07037C20.2661 1.28087 20.3679 1.56569 20.3698 1.86336V1.94247C20.3698 2.04038 20.403 2.13427 20.4621 2.2035C20.5212 2.27273 20.6013 2.31163 20.6848 2.31163C20.7678 2.30939 20.8468 2.26978 20.9055 2.20103C20.9641 2.13228 20.9979 2.03967 20.9998 1.94247V1.86336C20.9979 1.36988 20.8297 0.897269 20.532 0.548321C20.2342 0.199372 19.8309 0.00231143 19.4099 0ZM12.7499 21.2177H8.24998V18.8973H12.7499V21.2177ZM2.55754 10.8374C2.55754 10.3525 2.7219 9.88751 3.01445 9.54466C3.30701 9.2018 3.70379 9.00919 4.11753 9.00919H6.2175V9.03675C6.2175 9.13466 6.25069 9.22856 6.30976 9.29779C6.36884 9.36702 6.44896 9.40591 6.5325 9.40591C6.61604 9.40591 6.69616 9.36702 6.75524 9.29779C6.81431 9.22856 6.8475 9.13466 6.8475 9.03675V9.00919H8.89497C9.30741 9.01151 9.70227 9.20515 9.9932 9.54776C10.2841 9.89036 10.4475 10.354 10.4475 10.8374V15.8825H9.20997V16.2241C9.21704 16.1703 9.21409 16.1153 9.20132 16.0629C9.18855 16.0105 9.16626 15.9619 9.13599 15.9206C9.10571 15.8792 9.06816 15.846 9.02592 15.8233C8.98367 15.8005 8.93772 15.7887 8.89122 15.7887C8.84473 15.7887 8.79878 15.8005 8.75653 15.8233C8.71428 15.846 8.67674 15.8792 8.64646 15.9206C8.61619 15.9619 8.5939 16.0105 8.58113 16.0629C8.56836 16.1153 8.56541 16.1703 8.57248 16.2241V15.8825H4.44002V16.2241C4.44002 16.1239 4.40605 16.0278 4.34557 15.9569C4.28509 15.886 4.20306 15.8462 4.11753 15.8462C4.07552 15.8462 4.03394 15.856 3.99522 15.8751C3.95651 15.8942 3.92145 15.9222 3.8921 15.9574C3.86275 15.9926 3.8397 16.0344 3.82432 16.0802C3.80894 16.126 3.80153 16.1749 3.80253 16.2241V15.8825H2.55754V10.8374ZM20.3698 16.6296V16.9988C20.3698 17.2972 20.2687 17.5833 20.0887 17.7943C19.9086 18.0053 19.6645 18.1238 19.4099 18.1238H1.59005C1.46434 18.1239 1.33986 18.0947 1.22381 18.038C1.10776 17.9814 1.00242 17.8984 0.913876 17.7938C0.82533 17.6892 0.755327 17.5651 0.707904 17.4287C0.66048 17.2922 0.636574 17.1461 0.637564 16.9988V16.6296H20.3698Z" fill="white"/>
<path d="M5.00001 4.49429C4.99888 4.79144 5.08603 5.08224 5.25042 5.32979C5.41481 5.57734 5.64901 5.77048 5.92334 5.88472C6.19766 5.99896 6.49973 6.02915 6.79123 5.97146C7.08274 5.91376 7.35054 5.77078 7.56066 5.56066C7.77078 5.35054 7.91376 5.08274 7.97146 4.79123C8.02915 4.49973 7.99896 4.19766 7.88472 3.92334C7.77048 3.64901 7.57734 3.41481 7.32979 3.25042C7.08224 3.08603 6.79144 2.99888 6.49429 3.00001C6.0989 3.00301 5.72057 3.1614 5.44098 3.44098C5.1614 3.72057 5.00301 4.09891 5.00001 4.49429ZM7.50764 4.49429C7.50763 4.69519 7.4479 4.89156 7.33603 5.05845C7.22417 5.22533 7.06522 5.3552 6.87939 5.43155C6.69355 5.5079 6.48922 5.52729 6.29234 5.48725C6.09546 5.44722 5.91493 5.34956 5.77367 5.20669C5.63242 5.06382 5.53682 4.88219 5.49902 4.68487C5.46122 4.48755 5.48293 4.28345 5.56139 4.09849C5.63985 3.91353 5.77151 3.75607 5.93966 3.64611C6.1078 3.53615 6.30484 3.47866 6.50574 3.48093C6.63902 3.48017 6.77114 3.50586 6.89443 3.55652C7.01772 3.60717 7.12973 3.68179 7.22398 3.77604C7.31823 3.87029 7.39285 3.9823 7.4435 4.10559C7.49416 4.22888 7.51985 4.361 7.51909 4.49429H7.50764Z" fill="white"/>
<path d="M20.0023 3.42792H13.4174C13.1508 3.42792 12.8952 3.55201 12.7067 3.77288C12.5183 3.99376 12.4124 4.29334 12.4124 4.6057V5.21218H10.7699C10.7114 5.21322 10.6541 5.23249 10.604 5.26801C10.554 5.30354 10.5128 5.35404 10.4849 5.41433C10.4559 5.47148 10.4405 5.53678 10.4405 5.60331C10.4405 5.66984 10.4559 5.73513 10.4849 5.79228L12.3374 9.06195C12.3753 9.13327 12.396 9.21527 12.3974 9.29927V12.024C12.3974 12.3364 12.5033 12.6359 12.6917 12.8568C12.8802 13.0777 13.1358 13.2018 13.4024 13.2018H19.9873C20.1199 13.2029 20.2514 13.1733 20.3742 13.1147C20.497 13.056 20.6087 12.9694 20.7028 12.8599C20.7969 12.7505 20.8716 12.6202 20.9226 12.4768C20.9736 12.3333 20.9998 12.1794 20.9998 12.024V4.6057C20.9998 4.29485 20.895 3.9966 20.7081 3.77597C20.5212 3.55535 20.2675 3.43024 20.0023 3.42792ZM20.3698 12.024C20.3698 12.1382 20.3311 12.2478 20.2622 12.3285C20.1932 12.4093 20.0998 12.4547 20.0023 12.4547H13.4174C13.3199 12.4547 13.2264 12.4093 13.1575 12.3285C13.0886 12.2478 13.0499 12.1382 13.0499 12.024V9.29927C13.0516 9.06943 12.9912 8.84485 12.8774 8.65764L11.3774 5.96807H12.7499C12.8354 5.96807 12.9174 5.92825 12.9779 5.85737C13.0384 5.78649 13.0724 5.69036 13.0724 5.59012V4.6057C13.0743 4.49218 13.1136 4.38394 13.1821 4.30365C13.2507 4.22337 13.343 4.17727 13.4399 4.17502H20.0248C20.1217 4.17727 20.214 4.22337 20.2825 4.30365C20.3511 4.38394 20.3904 4.49218 20.3923 4.6057L20.3698 12.024Z" fill="white"/>
<path d="M18.7499 6.93689H14.6399C14.555 6.93913 14.4741 6.97967 14.414 7.05006C14.3539 7.12046 14.3193 7.2153 14.3174 7.31484C14.3174 7.41507 14.3514 7.51121 14.4119 7.58208C14.4724 7.65296 14.5544 7.69278 14.6399 7.69278H18.7499C18.8354 7.69278 18.9174 7.65296 18.9779 7.58208C19.0384 7.51121 19.0724 7.41507 19.0724 7.31484C19.0724 7.2146 19.0384 7.11847 18.9779 7.04759C18.9174 6.97671 18.8354 6.93689 18.7499 6.93689Z" fill="white"/>
<path d="M17.1825 9.187H14.64C14.5565 9.187 14.4763 9.22589 14.4173 9.29512C14.3582 9.36435 14.325 9.45825 14.325 9.55615C14.325 9.65406 14.3582 9.74796 14.4173 9.81719C14.4763 9.88642 14.5565 9.92531 14.64 9.92531H17.1825C17.2245 9.92533 17.2661 9.91549 17.3048 9.89639C17.3435 9.87729 17.3786 9.84931 17.4079 9.8141C17.4373 9.77888 17.4603 9.73714 17.4757 9.69133C17.4911 9.64553 17.4985 9.59658 17.4975 9.54736C17.4975 9.49929 17.4893 9.4517 17.4734 9.4074C17.4574 9.36309 17.4341 9.32297 17.4048 9.28939C17.3754 9.25581 17.3406 9.22945 17.3025 9.21186C17.2643 9.19428 17.2235 9.18582 17.1825 9.187Z" fill="white"/>
<path d="M19.4099 0H1.59005C1.16897 0.00231143 0.765698 0.199372 0.467945 0.548321C0.170192 0.897269 0.00204306 1.36988 7.07502e-05 1.86336V16.9988C-0.00190829 17.2458 0.037649 17.4909 0.116484 17.72C0.195319 17.9491 0.311887 18.1577 0.459532 18.334C0.607177 18.5103 0.783008 18.6508 0.976984 18.7474C1.17096 18.8441 1.37928 18.895 1.59005 18.8973H7.64249V21.2441H5.46751C5.38198 21.2441 5.29995 21.2839 5.23947 21.3548C5.17899 21.4257 5.14501 21.5218 5.14501 21.6221C5.14501 21.7223 5.17899 21.8184 5.23947 21.8893C5.29995 21.9602 5.38198 22 5.46751 22H15.5399C15.5819 22 15.6235 21.9902 15.6622 21.9711C15.7009 21.952 15.736 21.924 15.7653 21.8888C15.7947 21.8536 15.8177 21.8118 15.8331 21.766C15.8485 21.7202 15.8559 21.6713 15.8549 21.6221C15.8549 21.5233 15.822 21.4285 15.7631 21.3579C15.7042 21.2872 15.6241 21.2464 15.5399 21.2441H13.3649V18.8973H19.4099C19.6209 18.8962 19.8297 18.846 20.0241 18.7498C20.2185 18.6535 20.3948 18.5131 20.5426 18.3366C20.6905 18.16 20.807 17.9509 20.8855 17.7213C20.9639 17.4917 21.0028 17.2461 20.9998 16.9988V14.7048C21.0008 14.6555 20.9934 14.6066 20.9781 14.5608C20.9627 14.515 20.9396 14.4732 20.9103 14.438C20.8809 14.4028 20.8459 14.3748 20.8071 14.3557C20.7684 14.3366 20.7269 14.3268 20.6848 14.3268C20.6428 14.3268 20.6013 14.3366 20.5625 14.3557C20.5238 14.3748 20.4888 14.4028 20.4594 14.438C20.4301 14.4732 20.407 14.515 20.3916 14.5608C20.3763 14.6066 20.3688 14.6555 20.3698 14.7048V15.8825H11.085V10.8374C11.085 10.1567 10.8542 9.50391 10.4435 9.02259C10.0328 8.54128 9.47579 8.27087 8.89497 8.27087H4.11753C3.53671 8.27087 2.97968 8.54128 2.56898 9.02259C2.15828 9.50391 1.92755 10.1567 1.92755 10.8374V15.8825H0.637564V1.86336C0.637556 1.5665 0.737667 1.28166 0.916081 1.07092C1.0945 0.860188 1.33675 0.740633 1.59005 0.738314H19.4099C19.6639 0.740613 19.9069 0.859883 20.0865 1.07037C20.2661 1.28087 20.3679 1.56569 20.3698 1.86336V1.94247C20.3698 2.04038 20.403 2.13427 20.4621 2.2035C20.5212 2.27273 20.6013 2.31163 20.6848 2.31163C20.7678 2.30939 20.8468 2.26978 20.9055 2.20103C20.9641 2.13228 20.9979 2.03967 20.9998 1.94247V1.86336C20.9979 1.36988 20.8297 0.897269 20.532 0.548321C20.2342 0.199372 19.8309 0.00231143 19.4099 0ZM12.7499 21.2177H8.24998V18.8973H12.7499V21.2177ZM2.55754 10.8374C2.55754 10.3525 2.7219 9.88751 3.01445 9.54466C3.30701 9.2018 3.70379 9.00919 4.11753 9.00919H6.2175V9.03675C6.2175 9.13466 6.25069 9.22856 6.30976 9.29779C6.36884 9.36702 6.44896 9.40591 6.5325 9.40591C6.61604 9.40591 6.69616 9.36702 6.75524 9.29779C6.81431 9.22856 6.8475 9.13466 6.8475 9.03675V9.00919H8.89497C9.30741 9.01151 9.70227 9.20515 9.9932 9.54776C10.2841 9.89036 10.4475 10.354 10.4475 10.8374V15.8825H9.20997V16.2241C9.21704 16.1703 9.21409 16.1153 9.20132 16.0629C9.18855 16.0105 9.16626 15.9619 9.13599 15.9206C9.10571 15.8792 9.06816 15.846 9.02592 15.8233C8.98367 15.8005 8.93772 15.7887 8.89122 15.7887C8.84473 15.7887 8.79878 15.8005 8.75653 15.8233C8.71428 15.846 8.67674 15.8792 8.64646 15.9206C8.61619 15.9619 8.5939 16.0105 8.58113 16.0629C8.56836 16.1153 8.56541 16.1703 8.57248 16.2241V15.8825H4.44002V16.2241C4.44002 16.1239 4.40605 16.0278 4.34557 15.9569C4.28509 15.886 4.20306 15.8462 4.11753 15.8462C4.07552 15.8462 4.03394 15.856 3.99522 15.8751C3.95651 15.8942 3.92145 15.9222 3.8921 15.9574C3.86275 15.9926 3.8397 16.0344 3.82432 16.0802C3.80894 16.126 3.80153 16.1749 3.80253 16.2241V15.8825H2.55754V10.8374ZM20.3698 16.6296V16.9988C20.3698 17.2972 20.2687 17.5833 20.0887 17.7943C19.9086 18.0053 19.6645 18.1238 19.4099 18.1238H1.59005C1.46434 18.1239 1.33986 18.0947 1.22381 18.038C1.10776 17.9814 1.00242 17.8984 0.913876 17.7938C0.82533 17.6892 0.755327 17.5651 0.707904 17.4287C0.66048 17.2922 0.636574 17.1461 0.637564 16.9988V16.6296H20.3698Z" stroke="#FBFDFF" stroke-width="0.8" mask="url(#path-1-outside-1)"/>
<path d="M5.00001 4.49429C4.99888 4.79144 5.08603 5.08224 5.25042 5.32979C5.41481 5.57734 5.64901 5.77048 5.92334 5.88472C6.19766 5.99896 6.49973 6.02915 6.79123 5.97146C7.08274 5.91376 7.35054 5.77078 7.56066 5.56066C7.77078 5.35054 7.91376 5.08274 7.97146 4.79123C8.02915 4.49973 7.99896 4.19766 7.88472 3.92334C7.77048 3.64901 7.57734 3.41481 7.32979 3.25042C7.08224 3.08603 6.79144 2.99888 6.49429 3.00001C6.0989 3.00301 5.72057 3.1614 5.44098 3.44098C5.1614 3.72057 5.00301 4.09891 5.00001 4.49429ZM7.50764 4.49429C7.50763 4.69519 7.4479 4.89156 7.33603 5.05845C7.22417 5.22533 7.06522 5.3552 6.87939 5.43155C6.69355 5.5079 6.48922 5.52729 6.29234 5.48725C6.09546 5.44722 5.91493 5.34956 5.77367 5.20669C5.63242 5.06382 5.53682 4.88219 5.49902 4.68487C5.46122 4.48755 5.48293 4.28345 5.56139 4.09849C5.63985 3.91353 5.77151 3.75607 5.93966 3.64611C6.1078 3.53615 6.30484 3.47866 6.50574 3.48093C6.63902 3.48017 6.77114 3.50586 6.89443 3.55652C7.01772 3.60717 7.12973 3.68179 7.22398 3.77604C7.31823 3.87029 7.39285 3.9823 7.4435 4.10559C7.49416 4.22888 7.51985 4.361 7.51909 4.49429H7.50764Z" stroke="#FBFDFF" stroke-width="0.8" mask="url(#path-1-outside-1)"/>
<path d="M20.0023 3.42792H13.4174C13.1508 3.42792 12.8952 3.55201 12.7067 3.77288C12.5183 3.99376 12.4124 4.29334 12.4124 4.6057V5.21218H10.7699C10.7114 5.21322 10.6541 5.23249 10.604 5.26801C10.554 5.30354 10.5128 5.35404 10.4849 5.41433C10.4559 5.47148 10.4405 5.53678 10.4405 5.60331C10.4405 5.66984 10.4559 5.73513 10.4849 5.79228L12.3374 9.06195C12.3753 9.13327 12.396 9.21527 12.3974 9.29927V12.024C12.3974 12.3364 12.5033 12.6359 12.6917 12.8568C12.8802 13.0777 13.1358 13.2018 13.4024 13.2018H19.9873C20.1199 13.2029 20.2514 13.1733 20.3742 13.1147C20.497 13.056 20.6087 12.9694 20.7028 12.8599C20.7969 12.7505 20.8716 12.6202 20.9226 12.4768C20.9736 12.3333 20.9998 12.1794 20.9998 12.024V4.6057C20.9998 4.29485 20.895 3.9966 20.7081 3.77597C20.5212 3.55535 20.2675 3.43024 20.0023 3.42792ZM20.3698 12.024C20.3698 12.1382 20.3311 12.2478 20.2622 12.3285C20.1932 12.4093 20.0998 12.4547 20.0023 12.4547H13.4174C13.3199 12.4547 13.2264 12.4093 13.1575 12.3285C13.0886 12.2478 13.0499 12.1382 13.0499 12.024V9.29927C13.0516 9.06943 12.9912 8.84485 12.8774 8.65764L11.3774 5.96807H12.7499C12.8354 5.96807 12.9174 5.92825 12.9779 5.85737C13.0384 5.78649 13.0724 5.69036 13.0724 5.59012V4.6057C13.0743 4.49218 13.1136 4.38394 13.1821 4.30365C13.2507 4.22337 13.343 4.17727 13.4399 4.17502H20.0248C20.1217 4.17727 20.214 4.22337 20.2825 4.30365C20.3511 4.38394 20.3904 4.49218 20.3923 4.6057L20.3698 12.024Z" stroke="#FBFDFF" stroke-width="0.8" mask="url(#path-1-outside-1)"/>
<path d="M18.7499 6.93689H14.6399C14.555 6.93913 14.4741 6.97967 14.414 7.05006C14.3539 7.12046 14.3193 7.2153 14.3174 7.31484C14.3174 7.41507 14.3514 7.51121 14.4119 7.58208C14.4724 7.65296 14.5544 7.69278 14.6399 7.69278H18.7499C18.8354 7.69278 18.9174 7.65296 18.9779 7.58208C19.0384 7.51121 19.0724 7.41507 19.0724 7.31484C19.0724 7.2146 19.0384 7.11847 18.9779 7.04759C18.9174 6.97671 18.8354 6.93689 18.7499 6.93689Z" stroke="#FBFDFF" stroke-width="0.8" mask="url(#path-1-outside-1)"/>
<path d="M17.1825 9.187H14.64C14.5565 9.187 14.4763 9.22589 14.4173 9.29512C14.3582 9.36435 14.325 9.45825 14.325 9.55615C14.325 9.65406 14.3582 9.74796 14.4173 9.81719C14.4763 9.88642 14.5565 9.92531 14.64 9.92531H17.1825C17.2245 9.92533 17.2661 9.91549 17.3048 9.89639C17.3435 9.87729 17.3786 9.84931 17.4079 9.8141C17.4373 9.77888 17.4603 9.73714 17.4757 9.69133C17.4911 9.64553 17.4985 9.59658 17.4975 9.54736C17.4975 9.49929 17.4893 9.4517 17.4734 9.4074C17.4574 9.36309 17.4341 9.32297 17.4048 9.28939C17.3754 9.25581 17.3406 9.22945 17.3025 9.21186C17.2643 9.19428 17.2235 9.18582 17.1825 9.187Z" stroke="#FBFDFF" stroke-width="0.8" mask="url(#path-1-outside-1)"/>
</g>
<defs>
<clipPath id="clip0">
<rect width="21" height="22" fill="white"/>
</clipPath>
</defs>
</svg>
