<svg width="22" height="22" viewBox="0 0 22 22" fill="none" xmlns="http://www.w3.org/2000/svg">
<g clip-path="url(#clip0)">
<path d="M12.1778 18.9616C12.1778 18.9616 12.1778 18.9616 12.1779 18.9616L12.1266 19.0475C14.4531 20.4344 16.7145 20.4344 19.0392 19.0475C19.1675 18.9714 19.25 18.8174 19.25 18.6561V15.9583C19.25 15.7053 19.4553 15.5 19.7083 15.5C19.9613 15.5 20.1667 15.7053 20.1667 15.9583V18.6561C20.1667 19.141 19.9155 19.5929 19.5085 19.8349C18.2059 20.6113 16.8951 21 15.5833 21C14.2716 21 12.9608 20.6113 11.6582 19.8349M12.1778 18.9616C13.3285 19.6476 14.458 19.9877 15.5836 19.9877C16.7091 19.9877 17.8381 19.6476 18.9879 18.9616L18.9882 18.9615C19.083 18.9053 19.15 18.7859 19.15 18.6561V15.9583C19.15 15.6501 19.4001 15.4 19.7083 15.4C20.0166 15.4 20.2667 15.6501 20.2667 15.9583V18.6561C20.2667 19.175 19.998 19.6602 19.5596 19.9209M12.1778 18.9616C12.0837 18.9054 12.0167 18.786 12.0167 18.6561V15.9583C12.0167 15.6501 11.7666 15.4 11.4583 15.4C11.1501 15.4 10.9 15.6501 10.9 15.9583V18.6561C10.9 19.1749 11.1686 19.6601 11.607 19.9208M12.1778 18.9616L11.6582 19.8349M19.5596 19.9209C19.5596 19.9209 19.5597 19.9208 19.5597 19.9208L19.5087 19.8352L19.5596 19.9209ZM19.5596 19.9209C18.244 20.705 16.9157 21.1 15.5833 21.1C14.2509 21.1 12.9226 20.705 11.607 19.9208M11.607 19.9208C11.607 19.9208 11.607 19.9209 11.6071 19.9209L11.6582 19.8349M11.607 19.9208L11.6582 19.8349" fill="white" stroke="white" stroke-width="0.2"/>
<path d="M3.56669 5.58333C3.56669 8.16581 5.66754 10.2667 8.25002 10.2667C10.8325 10.2667 12.9334 8.16581 12.9334 5.58333C12.9334 3.00086 10.8325 0.9 8.25002 0.9C5.66754 0.9 3.56669 3.00086 3.56669 5.58333ZM4.68335 5.58333C4.68335 3.6164 6.28308 2.01667 8.25002 2.01667C10.217 2.01667 11.8167 3.6164 11.8167 5.58333C11.8167 7.55027 10.217 9.15 8.25002 9.15C6.28308 9.15 4.68335 7.55027 4.68335 5.58333Z" fill="white" stroke="white" stroke-width="0.2"/>
<path d="M0.458333 19.35H8.70833C9.01656 19.35 9.26667 19.0999 9.26667 18.7917C9.26667 18.4834 9.01656 18.2333 8.70833 18.2333H1.01667V15.125C1.01667 13.4111 2.41106 12.0167 4.125 12.0167H12.375C12.6832 12.0167 12.9333 11.7666 12.9333 11.4583C12.9333 11.1501 12.6832 10.9 12.375 10.9H4.125C1.79552 10.9 -0.1 12.7955 -0.1 15.125V18.7917C-0.1 19.0999 0.150105 19.35 0.458333 19.35Z" fill="white" stroke="white" stroke-width="0.2"/>
<path d="M9.39061 15.5486L9.39048 15.5486C9.19287 15.457 9.06669 15.2594 9.06669 15.0417C9.06669 14.824 9.19287 14.6263 9.39048 14.5348L9.39061 14.5347L15.349 11.7847L15.3491 11.7846C15.4994 11.7156 15.6673 11.7156 15.8176 11.7846L15.8178 11.7847L21.7761 14.5347L21.7762 14.5348C21.9738 14.6263 22.1 14.824 22.1 15.0417C22.1 15.2594 21.9738 15.457 21.7762 15.5486L21.7761 15.5486L15.8178 18.2986L15.8178 18.2986L9.39061 15.5486ZM9.39061 15.5486L15.3489 18.2986L9.39061 15.5486ZM15.5834 17.1765L10.9573 15.0417L15.5834 12.9069L20.2094 15.0417L15.5834 17.1765Z" fill="white" stroke="white" stroke-width="0.2"/>
</g>
<defs>
<clipPath id="clip0">
<rect width="22" height="22" fill="white"/>
</clipPath>
</defs>
</svg>
