<svg width="19" height="17" viewBox="0 0 19 17" fill="none" xmlns="http://www.w3.org/2000/svg">
<path d="M10.8394 12.0279C10.5101 12.2462 10.0884 12.3665 9.65191 12.3665C9.21543 12.3665 8.7937 12.2462 8.46439 12.0279L3.08805 8.4636C3.08805 8.4636 2.60278 8.14208 2.60278 8.87045C2.60278 9.69758 2.60278 12.179 2.60278 12.179C2.60278 12.2121 2.60278 12.3781 2.60278 12.4296C2.60278 14.3045 5.75874 16.3258 9.65177 16.3258C13.5448 16.3258 16.7008 14.3046 16.7008 12.4296C16.7008 12.3781 16.7008 12.2121 16.7008 12.179C16.7008 12.179 16.7008 9.54709 16.7008 8.66978C16.7008 8.08513 16.3558 8.37081 16.3558 8.37081L10.8394 12.0279Z" fill="#0097F9"/>
<path d="M18.5933 5.62846C19.0064 5.3546 19.0064 4.90645 18.5933 4.63254L10.4031 0.205391C9.98996 -0.0684638 9.31395 -0.0684638 8.90085 0.205391L0.71071 4.63254C0.297602 4.9064 0.297602 5.35455 0.71071 5.62846L8.90085 11.0582C9.31395 11.332 9.98996 11.332 10.4031 11.0582" fill="#0097F9"/>
<path d="M18.2544 13.6766C18.2544 12.1774 18.2544 7.67988 18.2544 7.67988C18.2544 7.67988 18.2583 7.39585 18.1024 7.48964C17.9773 7.56488 17.6707 7.74961 17.5627 7.85117C17.438 7.96832 17.4661 8.2313 17.4661 8.2313C17.4661 8.2313 17.4661 12.3153 17.4661 13.6766C17.4661 13.7539 17.4047 13.7908 17.3753 13.8094C17.0922 13.9893 16.9019 14.3214 16.9019 14.7022C16.9019 15.2743 17.3309 15.7382 17.8603 15.7382C18.3896 15.7382 18.8187 15.2743 18.8187 14.7022C18.8187 14.32 18.6269 13.9868 18.342 13.8074C18.3136 13.7895 18.2544 13.7538 18.2544 13.6766Z" fill="#0097F9"/>
</svg>
