<svg width="22" height="30" viewBox="0 0 22 30" fill="none" xmlns="http://www.w3.org/2000/svg">
<path d="M4.0779 3.35119L4.53024 3.54685L4.49224 3.85052C4.31891 3.88019 4.18691 4.03086 4.18691 4.21252C4.18691 4.37619 4.29324 4.51519 4.44124 4.56186L4.16657 8.40855C4.15524 8.56921 4.18757 8.82522 4.23824 8.97788L4.46091 9.64689C4.51191 9.79956 4.59457 9.79956 4.64591 9.64689L4.86891 8.97788C4.91958 8.82522 4.95224 8.56921 4.94058 8.40855L4.66591 4.56186C4.81291 4.51419 4.92024 4.37619 4.92024 4.21252C4.92024 4.03086 4.78824 3.88019 4.61457 3.85052L4.57957 3.56785L5.62358 4.02019L6.13525 4.24152V6.1052C6.07725 6.3162 6.02725 6.5312 5.99525 6.75254C5.95891 7.00454 5.94025 7.26321 5.94025 7.52521C5.94025 7.63254 5.94458 7.73821 5.95025 7.84321C5.95892 7.99721 5.97358 8.14888 5.99525 8.29888C5.99891 8.34455 6.00258 8.39021 6.00692 8.43555C6.31258 11.8906 8.33359 14.5602 10.7823 14.5602C13.2313 14.5602 15.2523 11.8906 15.5576 8.43555C15.562 8.39021 15.566 8.34455 15.5693 8.29888C15.591 8.14888 15.6053 7.99721 15.6143 7.84321C15.6203 7.73854 15.6243 7.63254 15.6243 7.52521C15.6243 7.26321 15.6056 7.00421 15.5693 6.75254C15.5373 6.53154 15.4876 6.3172 15.4293 6.1062V4.24152L15.941 4.02019L17.4866 3.35085C17.8906 3.17585 17.8906 2.89018 17.4866 2.71485L11.5173 0.131501C11.1133 -0.0438336 10.4519 -0.0438336 10.0473 0.131501L4.0779 2.71518C3.6739 2.89018 3.6739 3.17618 4.0779 3.35119Z" fill="#0097F9"/>
<path d="M20.4318 21.065C20.4681 20.8229 20.4888 20.5629 20.4888 20.2766C20.4888 17.0409 18.0911 14.3652 14.9744 13.9316C14.9634 13.9302 14.9521 13.9299 14.9407 13.9276C14.8511 13.9159 14.7617 13.9059 14.6711 13.8972C14.6707 13.9062 14.6677 13.9152 14.6677 13.9242C14.6664 13.9512 14.6617 13.9766 14.6587 14.0036C14.6421 14.1536 14.5974 14.2989 14.5271 14.4399C14.0964 15.5243 12.7844 17.4956 11.8777 18.8003L11.6167 18.8553L11.4521 16.4963C11.7137 16.3623 11.9394 16.1399 12.0834 15.8816C12.1877 15.6963 12.2511 15.4939 12.2511 15.2873C12.2511 15.2873 11.5821 15.5839 10.8991 15.5839C10.8601 15.5839 10.8211 15.5833 10.7821 15.5809C10.7431 15.5833 10.7041 15.5839 10.6651 15.5839C9.98206 15.5839 9.31305 15.2873 9.31305 15.2873C9.31305 15.4939 9.37639 15.6966 9.48039 15.8816C9.62472 16.1396 9.85005 16.3616 10.1121 16.4963L9.94739 18.8553L9.68672 18.7999C8.77972 17.4959 7.46771 15.5239 7.03704 14.4396C6.96704 14.2989 6.92237 14.1532 6.90537 14.0032C6.90204 13.9762 6.89804 13.9509 6.89637 13.9239C6.89637 13.9152 6.89337 13.9059 6.89304 13.8969C6.8027 13.9052 6.71304 13.9156 6.6237 13.9272C6.6127 13.9296 6.6007 13.9299 6.59037 13.9312C3.47402 14.3649 1.07601 17.0406 1.07601 20.2763C1.07601 20.5626 1.09667 20.823 1.13301 21.0646C0.458336 21.4296 0 22.1426 0 22.9636V24.3533C0 25.4526 0.821338 26.3583 1.88368 26.4946C1.92301 27.6257 2.84068 28.5367 3.97469 28.561L10.3537 29.909L10.7824 30L11.2107 29.9097L17.5898 28.5617C18.7238 28.5373 19.6414 27.626 19.6808 26.4953C20.7434 26.359 21.5645 25.4533 21.5645 24.354V22.9643C21.5648 22.1433 21.1065 21.43 20.4318 21.065ZM4.06702 27.705H4.02236C3.33869 27.705 2.77968 27.1683 2.74068 26.4943C3.79902 26.3543 4.61669 25.4503 4.61669 24.3536V22.964C4.61669 21.866 3.79702 20.961 2.73668 20.823V19.7553C2.73668 19.0603 3.29069 18.4923 3.98002 18.4706L10.3534 19.8169V29.0333L4.06702 27.705ZM17.5424 27.705H17.4974L11.2107 29.0333V19.8169L17.5841 18.4706C18.2738 18.4923 18.8274 19.0606 18.8274 19.7553V20.823C17.7671 20.961 16.9474 21.866 16.9474 22.964V24.3536C16.9474 25.4503 17.7651 26.3543 18.8238 26.4943C18.7851 27.1683 18.2258 27.705 17.5424 27.705Z" fill="#0097F9"/>
</svg>
