<svg width="12" height="16" viewBox="0 0 12 16" fill="none" xmlns="http://www.w3.org/2000/svg">
<path d="M2.17503 1.7873L2.41627 1.89165L2.39601 2.05361C2.30356 2.06943 2.23316 2.14979 2.23316 2.24668C2.23316 2.33397 2.28987 2.4081 2.36881 2.43299L2.22232 4.48456C2.21627 4.57025 2.23352 4.70678 2.26054 4.7882L2.3793 5.14501C2.4065 5.22643 2.45059 5.22643 2.47796 5.14501L2.5969 4.7882C2.62392 4.70678 2.64134 4.57025 2.63512 4.48456L2.48863 2.43299C2.56703 2.40757 2.62428 2.33397 2.62428 2.24668C2.62428 2.14979 2.55388 2.06943 2.46125 2.05361L2.44259 1.90286L2.99939 2.1441L3.27228 2.26215V3.25611C3.24135 3.36864 3.21468 3.48331 3.19761 3.60135C3.17823 3.73575 3.16828 3.87371 3.16828 4.01344C3.16828 4.07069 3.17059 4.12705 3.17361 4.18305C3.17823 4.26518 3.18606 4.34607 3.19761 4.42607C3.19957 4.45042 3.20152 4.47478 3.20383 4.49896C3.36686 6.34164 4.44473 7.76547 5.75069 7.76547C7.05683 7.76547 8.13471 6.34164 8.29755 4.49896C8.29986 4.47478 8.302 4.45042 8.30377 4.42607C8.31533 4.34607 8.32297 4.26518 8.32777 4.18305C8.33097 4.12722 8.33311 4.07069 8.33311 4.01344C8.33311 3.87371 8.32315 3.73558 8.30377 3.60135C8.28671 3.48349 8.26022 3.36917 8.22911 3.25664V2.26215L8.502 2.1441L9.32636 1.78712C9.54182 1.69379 9.54182 1.54143 9.32636 1.44792L6.1427 0.0701337C5.92723 -0.0233779 5.57451 -0.0233779 5.35869 0.0701337L2.17503 1.4481C1.95956 1.54143 1.95956 1.69396 2.17503 1.7873Z" fill="#A5A5A5"/>
<path d="M10.8969 11.2347C10.9163 11.1056 10.9274 10.9669 10.9274 10.8142C10.9274 9.08851 9.64859 7.66148 7.98636 7.43019C7.98049 7.42947 7.97444 7.4293 7.9684 7.42805C7.92058 7.42183 7.87293 7.4165 7.82458 7.41188C7.8244 7.41668 7.8228 7.42147 7.8228 7.42627C7.82209 7.44067 7.8196 7.45419 7.818 7.46859C7.80911 7.54859 7.78529 7.6261 7.74778 7.7013C7.51809 8.27961 6.81835 9.331 6.33479 10.0268L6.19559 10.0562L6.10777 8.79802C6.24732 8.72655 6.36768 8.60797 6.44448 8.47019C6.50012 8.37135 6.5339 8.26344 6.5339 8.15321C6.5339 8.15321 6.1771 8.31144 5.81283 8.31144C5.79203 8.31144 5.77123 8.31108 5.75043 8.30984C5.72963 8.31108 5.70883 8.31144 5.68803 8.31144C5.32376 8.31144 4.96696 8.15321 4.96696 8.15321C4.96696 8.26344 5.00074 8.37152 5.05621 8.47019C5.13318 8.60779 5.25336 8.72619 5.3931 8.79802L5.30527 10.0562L5.16625 10.0266C4.68252 9.33117 3.98278 8.27944 3.75309 7.70112C3.71575 7.6261 3.69193 7.54841 3.68286 7.46841C3.68109 7.45401 3.67895 7.4405 3.67806 7.4261C3.67806 7.42147 3.67647 7.4165 3.67629 7.4117C3.62811 7.41614 3.58029 7.42165 3.53264 7.42788C3.52677 7.42912 3.52038 7.4293 3.51486 7.43001C1.85281 7.6613 0.57387 9.08833 0.57387 10.814C0.57387 10.9667 0.584892 11.1056 0.60427 11.2345C0.244446 11.4291 0 11.8094 0 12.2473V12.9884C0 13.5748 0.438047 14.0578 1.00463 14.1305C1.02561 14.7337 1.51503 15.2196 2.11983 15.2325L5.52199 15.9515L5.75061 16L5.97906 15.9518L9.38121 15.2329C9.98601 15.2199 10.4754 14.7339 10.4964 14.1308C11.0632 14.0581 11.501 13.5751 11.501 12.9888V12.2476C11.5012 11.8098 11.2568 11.4293 10.8969 11.2347ZM2.16908 14.776H2.14526C1.78063 14.776 1.4825 14.4898 1.4617 14.1303C2.02614 14.0556 2.46224 13.5735 2.46224 12.9886V12.2475C2.46224 11.6619 2.02508 11.1792 1.45956 11.1056V10.5362C1.45956 10.1655 1.75503 9.86256 2.12268 9.851L5.52181 10.569V15.4845L2.16908 14.776ZM9.35596 14.776H9.33196L5.97906 15.4845V10.569L9.37819 9.851C9.74601 9.86256 10.0413 10.1657 10.0413 10.5362V11.1056C9.47579 11.1792 9.03863 11.6619 9.03863 12.2475V12.9886C9.03863 13.5735 9.47472 14.0556 10.0393 14.1303C10.0187 14.4898 9.72041 14.776 9.35596 14.776Z" fill="#A5A5A5"/>
</svg>
