<svg width="24" height="26" viewBox="0 0 24 26" fill="none" xmlns="http://www.w3.org/2000/svg">
<path d="M23.0584 21.2181C22.4564 19.7586 21.5827 18.4329 20.4861 17.3148C19.3928 16.1935 18.0977 15.2995 16.6723 14.6822C16.6659 14.6789 16.6595 14.6764 16.6532 14.674C16.6468 14.6715 16.6404 14.6691 16.634 14.6658C18.6223 13.196 19.9148 10.8018 19.9148 8.1005C19.9148 3.62563 16.3723 0 12 0C7.62769 0 4.08516 3.62563 4.08516 8.1005C4.08516 10.8018 5.3777 13.196 7.36599 14.6691C7.3596 14.6724 7.35322 14.6748 7.34684 14.6773C7.34046 14.6797 7.33407 14.6822 7.32769 14.6854C5.89791 15.3028 4.61494 16.1879 3.51389 17.3181C2.41829 18.437 1.54476 19.7625 0.941563 21.2214C0.348978 22.6496 0.0293836 24.1808 7.98059e-05 25.7322C-0.000772013 25.767 0.0052025 25.8017 0.0176515 25.8342C0.0301005 25.8666 0.0487719 25.8962 0.0725657 25.9212C0.0963595 25.9461 0.124794 25.966 0.156194 25.9795C0.187594 25.993 0.221325 26 0.255397 26H2.17028C2.3107 26 2.4224 25.8857 2.4256 25.7452C2.48942 23.2236 3.47878 20.8621 5.2277 19.0721C7.03727 17.2201 9.44044 16.201 12 16.201C14.5596 16.201 16.9627 17.2201 18.7723 19.0721C20.5212 20.8621 21.5106 23.2236 21.5744 25.7452C21.5776 25.8889 21.6893 26 21.8297 26H23.7446C23.7787 26 23.8124 25.993 23.8438 25.9795C23.8752 25.966 23.9036 25.9461 23.9274 25.9212C23.9512 25.8962 23.9699 25.8666 23.9823 25.8342C23.9948 25.8017 24.0008 25.767 23.9999 25.7322C23.968 24.1709 23.6521 22.652 23.0584 21.2181ZM12 13.7186C10.5351 13.7186 9.1564 13.1339 8.11917 12.0724C7.08195 11.0108 6.51067 9.59975 6.51067 8.1005C6.51067 6.60126 7.08195 5.1902 8.11917 4.12864C9.1564 3.06709 10.5351 2.48241 12 2.48241C13.4649 2.48241 14.8436 3.06709 15.8808 4.12864C16.9181 5.1902 17.4893 6.60126 17.4893 8.1005C17.4893 9.59975 16.9181 11.0108 15.8808 12.0724C14.8436 13.1339 13.4649 13.7186 12 13.7186Z" fill="#334D6E"/>
<path d="M23.0584 21.2181C22.4564 19.7586 21.5827 18.4329 20.4861 17.3148C19.3928 16.1935 18.0977 15.2995 16.6723 14.6822C16.6659 14.6789 16.6595 14.6764 16.6532 14.674C16.6468 14.6715 16.6404 14.6691 16.634 14.6658C18.6223 13.196 19.9148 10.8018 19.9148 8.1005C19.9148 3.62563 16.3723 0 12 0C7.62769 0 4.08516 3.62563 4.08516 8.1005C4.08516 10.8018 5.3777 13.196 7.36599 14.6691C7.3596 14.6724 7.35322 14.6748 7.34684 14.6773C7.34046 14.6797 7.33407 14.6822 7.32769 14.6854C5.89791 15.3028 4.61494 16.1879 3.51389 17.3181C2.41829 18.437 1.54476 19.7625 0.941563 21.2214C0.348978 22.6496 0.0293836 24.1808 7.98059e-05 25.7322C-0.000772013 25.767 0.0052025 25.8017 0.0176515 25.8342C0.0301005 25.8666 0.0487719 25.8962 0.0725657 25.9212C0.0963595 25.9461 0.124794 25.966 0.156194 25.9795C0.187594 25.993 0.221325 26 0.255397 26H2.17028C2.3107 26 2.4224 25.8857 2.4256 25.7452C2.48942 23.2236 3.47878 20.8621 5.2277 19.0721C7.03727 17.2201 9.44044 16.201 12 16.201C14.5596 16.201 16.9627 17.2201 18.7723 19.0721C20.5212 20.8621 21.5106 23.2236 21.5744 25.7452C21.5776 25.8889 21.6893 26 21.8297 26H23.7446C23.7787 26 23.8124 25.993 23.8438 25.9795C23.8752 25.966 23.9036 25.9461 23.9274 25.9212C23.9512 25.8962 23.9699 25.8666 23.9823 25.8342C23.9948 25.8017 24.0008 25.767 23.9999 25.7322C23.968 24.1709 23.6521 22.652 23.0584 21.2181ZM12 13.7186C10.5351 13.7186 9.1564 13.1339 8.11917 12.0724C7.08195 11.0108 6.51067 9.59975 6.51067 8.1005C6.51067 6.60126 7.08195 5.1902 8.11917 4.12864C9.1564 3.06709 10.5351 2.48241 12 2.48241C13.4649 2.48241 14.8436 3.06709 15.8808 4.12864C16.9181 5.1902 17.4893 6.60126 17.4893 8.1005C17.4893 9.59975 16.9181 11.0108 15.8808 12.0724C14.8436 13.1339 13.4649 13.7186 12 13.7186Z" stroke="white"/>
</svg>
