<svg width="31" height="31" viewBox="0 0 31 31" fill="none" xmlns="http://www.w3.org/2000/svg">
<path d="M24.4405 24.4465L24.5465 24.5526L24.4405 24.4465C19.511 29.3776 11.4895 29.3771 6.55905 24.4465C4.17068 22.0576 2.85588 18.8821 2.85588 15.5034C2.85588 12.1248 4.17068 8.94925 6.55905 6.56031C8.94742 4.17138 12.1222 2.85628 15.5 2.85628C18.8778 2.85628 22.0526 4.17138 24.4409 6.56031C26.8293 8.94925 28.1441 12.1248 28.1441 15.5034C28.1441 18.8821 26.8293 22.0571 24.4405 24.4465ZM21.7981 16.5066C22.3524 16.5066 22.8011 16.0571 22.8011 15.5034C22.8011 14.9497 22.3524 14.5003 21.7981 14.5003H16.5029V9.20333C16.5029 8.64958 16.0537 8.20018 15.5 8.20018C14.9463 8.20018 14.4971 8.64958 14.4971 9.20333V14.5003H9.20091C8.64721 14.5003 8.19797 14.9497 8.19797 15.5034C8.19797 16.0572 8.64721 16.5066 9.20091 16.5066H14.4971V21.8035C14.4971 22.3578 14.9464 22.8066 15.5 22.8066C16.0536 22.8066 16.5029 22.3578 16.5029 21.8035V16.5066H21.7981ZM25.8589 25.8647C28.6257 23.0973 30.15 19.4169 30.15 15.5034C30.15 11.5894 28.6257 7.90906 25.8589 5.14211C23.0921 2.37466 19.4126 0.85 15.5 0.85C11.5874 0.85 7.90788 2.37466 5.14108 5.14211C2.37429 7.90955 0.85 11.5894 0.85 15.5034C0.85 19.4169 2.37429 23.0973 5.14108 25.8647C7.99732 28.7216 11.749 30.15 15.5 30.15C19.251 30.15 23.0027 28.7216 25.8589 25.8647Z" fill="#334D6E" stroke="#334D6E" stroke-width="0.3"/>
</svg>
