<svg width="19" height="15" viewBox="0 0 19 15" fill="none" xmlns="http://www.w3.org/2000/svg">
<path d="M13.1026 9.43396H12.3186L12.0407 9.2024C13.0133 8.2247 13.5988 6.9554 13.5988 5.57461C13.5988 2.49571 10.7108 0 7.14798 0C3.58513 0 0.697144 2.49571 0.697144 5.57461C0.697144 8.65352 3.58513 11.1492 7.14798 11.1492C8.7458 11.1492 10.2146 10.6432 11.346 9.80274L11.6139 10.0429V10.7204L16.5761 15L18.0548 13.7221L13.1026 9.43396ZM7.14798 9.43396C4.67681 9.43396 2.68202 7.71012 2.68202 5.57461C2.68202 3.43911 4.67681 1.71527 7.14798 1.71527C9.61914 1.71527 11.6139 3.43911 11.6139 5.57461C11.6139 7.71012 9.61914 9.43396 7.14798 9.43396Z" fill="#334D6E"/>
</svg>
