<svg width="28" height="29" viewBox="0 0 28 29" fill="none" xmlns="http://www.w3.org/2000/svg">
<mask id="path-1-outside-1" maskUnits="userSpaceOnUse" x="0" y="0" width="28" height="29" fill="black">
<rect fill="white" width="28" height="29"/>
<path d="M26.6567 17.9319L24.6489 16.2443C24.7439 15.6717 24.793 15.0871 24.793 14.5024C24.793 13.9178 24.7439 13.3332 24.6489 12.7606L26.6567 11.073C26.8081 10.9455 26.9165 10.7758 26.9674 10.5863C27.0184 10.3968 27.0094 10.1965 26.9418 10.0122L26.9142 9.93382C26.3614 8.41505 25.5337 7.00712 24.4711 5.77807L24.4159 5.71478C24.287 5.56576 24.1152 5.45864 23.9231 5.40754C23.7311 5.35643 23.5278 5.36373 23.34 5.42849L20.8479 6.29942C19.9283 5.55807 18.9014 4.97343 17.7918 4.56358L17.3105 2.00202C17.2742 1.80928 17.1791 1.63196 17.0379 1.49362C16.8966 1.35528 16.7159 1.26247 16.5197 1.22753L16.4369 1.21246C14.8399 0.92918 13.1601 0.92918 11.5631 1.21246L11.4803 1.22753C11.2841 1.26247 11.1034 1.35528 10.9621 1.49362C10.8209 1.63196 10.7258 1.80928 10.6895 2.00202L10.2051 4.57564C9.10435 4.98557 8.07925 5.5699 7.17048 6.30545L4.65999 5.42849C4.47229 5.36322 4.26883 5.35565 4.07665 5.40679C3.88446 5.45793 3.71266 5.56535 3.58407 5.71478L3.52889 5.77807C2.46751 7.00799 1.63997 8.41568 1.08583 9.93382L1.05825 10.0122C0.920308 10.3889 1.03372 10.8108 1.34332 11.073L3.37562 12.7787C3.2806 13.3452 3.23462 13.9238 3.23462 14.4994C3.23462 15.078 3.2806 15.6567 3.37562 16.2202L1.34332 17.9259C1.19188 18.0534 1.08349 18.2231 1.03257 18.4126C0.98165 18.6021 0.990605 18.8023 1.05825 18.9867L1.08583 19.065C1.64066 20.5839 2.46216 21.9852 3.52889 23.2208L3.58407 23.2841C3.71298 23.4331 3.88478 23.5402 4.07685 23.5913C4.26892 23.6424 4.47223 23.6351 4.65999 23.5704L7.17048 22.6934C8.08395 23.4317 9.10469 24.0164 10.2051 24.4232L10.6895 26.9968C10.7258 27.1896 10.8209 27.3669 10.9621 27.5052C11.1034 27.6436 11.2841 27.7364 11.4803 27.7713L11.5631 27.7864C13.1748 28.0712 14.8252 28.0712 16.4369 27.7864L16.5197 27.7713C16.7159 27.7364 16.8966 27.6436 17.0379 27.5052C17.1791 27.3669 17.2742 27.1896 17.3105 26.9968L17.7918 24.4353C18.901 24.0265 19.9337 23.44 20.8479 22.6994L23.34 23.5704C23.5277 23.6356 23.7312 23.6432 23.9234 23.5921C24.1155 23.5409 24.2873 23.4335 24.4159 23.2841L24.4711 23.2208C25.5378 21.9822 26.3593 20.5839 26.9142 19.065L26.9418 18.9867C27.0797 18.616 26.9663 18.1941 26.6567 17.9319ZM22.4725 13.1162C22.5492 13.5712 22.589 14.0383 22.589 14.5055C22.589 14.9726 22.5492 15.4397 22.4725 15.8947L22.2702 17.1032L24.56 19.0289C24.2129 19.8151 23.7747 20.5593 23.2542 21.2469L20.4096 20.2554L19.4471 21.0329C18.7145 21.6236 17.8991 22.0877 17.0163 22.4132L15.8484 22.8441L15.2997 25.7673C14.434 25.8637 13.5599 25.8637 12.6942 25.7673L12.1455 22.8381L10.9868 22.4011C10.1132 22.0756 9.30087 21.6115 8.5744 21.0239L7.61189 20.2434L4.74888 21.2439C4.22778 20.5538 3.79251 19.8094 3.44306 19.0259L5.75737 17.0821L5.55813 15.8766C5.48456 15.4276 5.44471 14.9635 5.44471 14.5055C5.44471 14.0444 5.48149 13.5833 5.55813 13.1343L5.75737 11.9288L3.44306 9.98505C3.78944 9.1985 4.22778 8.45716 4.74888 7.76704L7.61189 8.76756L8.5744 7.98704C9.30087 7.39938 10.1132 6.93529 10.9868 6.60982L12.1486 6.17887L12.6972 3.24965C13.5586 3.15322 14.4383 3.15322 15.3028 3.24965L15.8514 6.17285L17.0193 6.60379C17.8991 6.92926 18.7175 7.39336 19.4501 7.98402L20.4126 8.76153L23.2572 7.77006C23.7784 8.46017 24.2136 9.20453 24.5631 9.98807L22.2733 11.9138L22.4725 13.1162ZM14.0031 8.90016C11.0236 8.90016 8.60811 11.2749 8.60811 14.2041C8.60811 17.1333 11.0236 19.508 14.0031 19.508C16.9825 19.508 19.398 17.1333 19.398 14.2041C19.398 11.2749 16.9825 8.90016 14.0031 8.90016ZM16.4308 16.5909C16.1124 16.9048 15.734 17.1538 15.3173 17.3234C14.9007 17.493 14.454 17.58 14.0031 17.5793C13.0865 17.5793 12.2252 17.2267 11.5753 16.5909C11.256 16.2778 11.0028 15.9058 10.8302 15.4962C10.6577 15.0866 10.5692 14.6474 10.5699 14.2041C10.5699 13.303 10.9286 12.4562 11.5753 11.8173C12.2252 11.1784 13.0865 10.8289 14.0031 10.8289C14.9196 10.8289 15.7809 11.1784 16.4308 11.8173C16.7501 12.1304 17.0034 12.5024 17.1759 12.912C17.3485 13.3216 17.4369 13.7607 17.4362 14.2041C17.4362 15.1052 17.0776 15.952 16.4308 16.5909Z"/>
</mask>
<path d="M26.6567 17.9319L24.6489 16.2443C24.7439 15.6717 24.793 15.0871 24.793 14.5024C24.793 13.9178 24.7439 13.3332 24.6489 12.7606L26.6567 11.073C26.8081 10.9455 26.9165 10.7758 26.9674 10.5863C27.0184 10.3968 27.0094 10.1965 26.9418 10.0122L26.9142 9.93382C26.3614 8.41505 25.5337 7.00712 24.4711 5.77807L24.4159 5.71478C24.287 5.56576 24.1152 5.45864 23.9231 5.40754C23.7311 5.35643 23.5278 5.36373 23.34 5.42849L20.8479 6.29942C19.9283 5.55807 18.9014 4.97343 17.7918 4.56358L17.3105 2.00202C17.2742 1.80928 17.1791 1.63196 17.0379 1.49362C16.8966 1.35528 16.7159 1.26247 16.5197 1.22753L16.4369 1.21246C14.8399 0.92918 13.1601 0.92918 11.5631 1.21246L11.4803 1.22753C11.2841 1.26247 11.1034 1.35528 10.9621 1.49362C10.8209 1.63196 10.7258 1.80928 10.6895 2.00202L10.2051 4.57564C9.10435 4.98557 8.07925 5.5699 7.17048 6.30545L4.65999 5.42849C4.47229 5.36322 4.26883 5.35565 4.07665 5.40679C3.88446 5.45793 3.71266 5.56535 3.58407 5.71478L3.52889 5.77807C2.46751 7.00799 1.63997 8.41568 1.08583 9.93382L1.05825 10.0122C0.920308 10.3889 1.03372 10.8108 1.34332 11.073L3.37562 12.7787C3.2806 13.3452 3.23462 13.9238 3.23462 14.4994C3.23462 15.078 3.2806 15.6567 3.37562 16.2202L1.34332 17.9259C1.19188 18.0534 1.08349 18.2231 1.03257 18.4126C0.98165 18.6021 0.990605 18.8023 1.05825 18.9867L1.08583 19.065C1.64066 20.5839 2.46216 21.9852 3.52889 23.2208L3.58407 23.2841C3.71298 23.4331 3.88478 23.5402 4.07685 23.5913C4.26892 23.6424 4.47223 23.6351 4.65999 23.5704L7.17048 22.6934C8.08395 23.4317 9.10469 24.0164 10.2051 24.4232L10.6895 26.9968C10.7258 27.1896 10.8209 27.3669 10.9621 27.5052C11.1034 27.6436 11.2841 27.7364 11.4803 27.7713L11.5631 27.7864C13.1748 28.0712 14.8252 28.0712 16.4369 27.7864L16.5197 27.7713C16.7159 27.7364 16.8966 27.6436 17.0379 27.5052C17.1791 27.3669 17.2742 27.1896 17.3105 26.9968L17.7918 24.4353C18.901 24.0265 19.9337 23.44 20.8479 22.6994L23.34 23.5704C23.5277 23.6356 23.7312 23.6432 23.9234 23.5921C24.1155 23.5409 24.2873 23.4335 24.4159 23.2841L24.4711 23.2208C25.5378 21.9822 26.3593 20.5839 26.9142 19.065L26.9418 18.9867C27.0797 18.616 26.9663 18.1941 26.6567 17.9319ZM22.4725 13.1162C22.5492 13.5712 22.589 14.0383 22.589 14.5055C22.589 14.9726 22.5492 15.4397 22.4725 15.8947L22.2702 17.1032L24.56 19.0289C24.2129 19.8151 23.7747 20.5593 23.2542 21.2469L20.4096 20.2554L19.4471 21.0329C18.7145 21.6236 17.8991 22.0877 17.0163 22.4132L15.8484 22.8441L15.2997 25.7673C14.434 25.8637 13.5599 25.8637 12.6942 25.7673L12.1455 22.8381L10.9868 22.4011C10.1132 22.0756 9.30087 21.6115 8.5744 21.0239L7.61189 20.2434L4.74888 21.2439C4.22778 20.5538 3.79251 19.8094 3.44306 19.0259L5.75737 17.0821L5.55813 15.8766C5.48456 15.4276 5.44471 14.9635 5.44471 14.5055C5.44471 14.0444 5.48149 13.5833 5.55813 13.1343L5.75737 11.9288L3.44306 9.98505C3.78944 9.1985 4.22778 8.45716 4.74888 7.76704L7.61189 8.76756L8.5744 7.98704C9.30087 7.39938 10.1132 6.93529 10.9868 6.60982L12.1486 6.17887L12.6972 3.24965C13.5586 3.15322 14.4383 3.15322 15.3028 3.24965L15.8514 6.17285L17.0193 6.60379C17.8991 6.92926 18.7175 7.39336 19.4501 7.98402L20.4126 8.76153L23.2572 7.77006C23.7784 8.46017 24.2136 9.20453 24.5631 9.98807L22.2733 11.9138L22.4725 13.1162ZM14.0031 8.90016C11.0236 8.90016 8.60811 11.2749 8.60811 14.2041C8.60811 17.1333 11.0236 19.508 14.0031 19.508C16.9825 19.508 19.398 17.1333 19.398 14.2041C19.398 11.2749 16.9825 8.90016 14.0031 8.90016ZM16.4308 16.5909C16.1124 16.9048 15.734 17.1538 15.3173 17.3234C14.9007 17.493 14.454 17.58 14.0031 17.5793C13.0865 17.5793 12.2252 17.2267 11.5753 16.5909C11.256 16.2778 11.0028 15.9058 10.8302 15.4962C10.6577 15.0866 10.5692 14.6474 10.5699 14.2041C10.5699 13.303 10.9286 12.4562 11.5753 11.8173C12.2252 11.1784 13.0865 10.8289 14.0031 10.8289C14.9196 10.8289 15.7809 11.1784 16.4308 11.8173C16.7501 12.1304 17.0034 12.5024 17.1759 12.912C17.3485 13.3216 17.4369 13.7607 17.4362 14.2041C17.4362 15.1052 17.0776 15.952 16.4308 16.5909Z" fill="#334D6E"/>
<path d="M26.6567 17.9319L24.6489 16.2443C24.7439 15.6717 24.793 15.0871 24.793 14.5024C24.793 13.9178 24.7439 13.3332 24.6489 12.7606L26.6567 11.073C26.8081 10.9455 26.9165 10.7758 26.9674 10.5863C27.0184 10.3968 27.0094 10.1965 26.9418 10.0122L26.9142 9.93382C26.3614 8.41505 25.5337 7.00712 24.4711 5.77807L24.4159 5.71478C24.287 5.56576 24.1152 5.45864 23.9231 5.40754C23.7311 5.35643 23.5278 5.36373 23.34 5.42849L20.8479 6.29942C19.9283 5.55807 18.9014 4.97343 17.7918 4.56358L17.3105 2.00202C17.2742 1.80928 17.1791 1.63196 17.0379 1.49362C16.8966 1.35528 16.7159 1.26247 16.5197 1.22753L16.4369 1.21246C14.8399 0.92918 13.1601 0.92918 11.5631 1.21246L11.4803 1.22753C11.2841 1.26247 11.1034 1.35528 10.9621 1.49362C10.8209 1.63196 10.7258 1.80928 10.6895 2.00202L10.2051 4.57564C9.10435 4.98557 8.07925 5.5699 7.17048 6.30545L4.65999 5.42849C4.47229 5.36322 4.26883 5.35565 4.07665 5.40679C3.88446 5.45793 3.71266 5.56535 3.58407 5.71478L3.52889 5.77807C2.46751 7.00799 1.63997 8.41568 1.08583 9.93382L1.05825 10.0122C0.920308 10.3889 1.03372 10.8108 1.34332 11.073L3.37562 12.7787C3.2806 13.3452 3.23462 13.9238 3.23462 14.4994C3.23462 15.078 3.2806 15.6567 3.37562 16.2202L1.34332 17.9259C1.19188 18.0534 1.08349 18.2231 1.03257 18.4126C0.98165 18.6021 0.990605 18.8023 1.05825 18.9867L1.08583 19.065C1.64066 20.5839 2.46216 21.9852 3.52889 23.2208L3.58407 23.2841C3.71298 23.4331 3.88478 23.5402 4.07685 23.5913C4.26892 23.6424 4.47223 23.6351 4.65999 23.5704L7.17048 22.6934C8.08395 23.4317 9.10469 24.0164 10.2051 24.4232L10.6895 26.9968C10.7258 27.1896 10.8209 27.3669 10.9621 27.5052C11.1034 27.6436 11.2841 27.7364 11.4803 27.7713L11.5631 27.7864C13.1748 28.0712 14.8252 28.0712 16.4369 27.7864L16.5197 27.7713C16.7159 27.7364 16.8966 27.6436 17.0379 27.5052C17.1791 27.3669 17.2742 27.1896 17.3105 26.9968L17.7918 24.4353C18.901 24.0265 19.9337 23.44 20.8479 22.6994L23.34 23.5704C23.5277 23.6356 23.7312 23.6432 23.9234 23.5921C24.1155 23.5409 24.2873 23.4335 24.4159 23.2841L24.4711 23.2208C25.5378 21.9822 26.3593 20.5839 26.9142 19.065L26.9418 18.9867C27.0797 18.616 26.9663 18.1941 26.6567 17.9319ZM22.4725 13.1162C22.5492 13.5712 22.589 14.0383 22.589 14.5055C22.589 14.9726 22.5492 15.4397 22.4725 15.8947L22.2702 17.1032L24.56 19.0289C24.2129 19.8151 23.7747 20.5593 23.2542 21.2469L20.4096 20.2554L19.4471 21.0329C18.7145 21.6236 17.8991 22.0877 17.0163 22.4132L15.8484 22.8441L15.2997 25.7673C14.434 25.8637 13.5599 25.8637 12.6942 25.7673L12.1455 22.8381L10.9868 22.4011C10.1132 22.0756 9.30087 21.6115 8.5744 21.0239L7.61189 20.2434L4.74888 21.2439C4.22778 20.5538 3.79251 19.8094 3.44306 19.0259L5.75737 17.0821L5.55813 15.8766C5.48456 15.4276 5.44471 14.9635 5.44471 14.5055C5.44471 14.0444 5.48149 13.5833 5.55813 13.1343L5.75737 11.9288L3.44306 9.98505C3.78944 9.1985 4.22778 8.45716 4.74888 7.76704L7.61189 8.76756L8.5744 7.98704C9.30087 7.39938 10.1132 6.93529 10.9868 6.60982L12.1486 6.17887L12.6972 3.24965C13.5586 3.15322 14.4383 3.15322 15.3028 3.24965L15.8514 6.17285L17.0193 6.60379C17.8991 6.92926 18.7175 7.39336 19.4501 7.98402L20.4126 8.76153L23.2572 7.77006C23.7784 8.46017 24.2136 9.20453 24.5631 9.98807L22.2733 11.9138L22.4725 13.1162ZM14.0031 8.90016C11.0236 8.90016 8.60811 11.2749 8.60811 14.2041C8.60811 17.1333 11.0236 19.508 14.0031 19.508C16.9825 19.508 19.398 17.1333 19.398 14.2041C19.398 11.2749 16.9825 8.90016 14.0031 8.90016ZM16.4308 16.5909C16.1124 16.9048 15.734 17.1538 15.3173 17.3234C14.9007 17.493 14.454 17.58 14.0031 17.5793C13.0865 17.5793 12.2252 17.2267 11.5753 16.5909C11.256 16.2778 11.0028 15.9058 10.8302 15.4962C10.6577 15.0866 10.5692 14.6474 10.5699 14.2041C10.5699 13.303 10.9286 12.4562 11.5753 11.8173C12.2252 11.1784 13.0865 10.8289 14.0031 10.8289C14.9196 10.8289 15.7809 11.1784 16.4308 11.8173C16.7501 12.1304 17.0034 12.5024 17.1759 12.912C17.3485 13.3216 17.4369 13.7607 17.4362 14.2041C17.4362 15.1052 17.0776 15.952 16.4308 16.5909Z" stroke="white" stroke-width="0.2" mask="url(#path-1-outside-1)"/>
</svg>
