<svg width="32" height="32" viewBox="0 0 32 32" fill="none" xmlns="http://www.w3.org/2000/svg">
<path d="M12.1179 10.1834C11.7552 10.1834 11.4039 9.99029 11.2181 9.64939L8.61886 4.8792C8.34839 4.38278 8.5315 3.761 9.02792 3.49046C9.52441 3.22005 10.1461 3.40317 10.4166 3.89953L13.0159 8.66971C13.3894 9.35534 12.8866 10.1834 12.1179 10.1834Z" fill="#0B78BB"/>
<path d="M19.8822 10.1834C19.1138 10.1834 18.6106 9.35559 18.9843 8.66978L21.5835 3.8996C21.854 3.40317 22.4757 3.21999 22.9722 3.49053C23.4686 3.761 23.6517 4.38285 23.3813 4.87927L20.782 9.64946C20.5963 9.99029 20.2449 10.1834 19.8822 10.1834Z" fill="#0B78BB"/>
<path d="M26.947 8.33405H5.05288C3.17469 8.33405 1.64673 9.862 1.64673 11.7402V24.7701C1.64673 26.6483 3.17475 28.1763 5.05288 28.1763H18.8V30.0021C18.8 31.8579 21.1045 32.6995 22.3067 31.3046L25.0027 28.1763H26.947C28.8252 28.1763 30.3531 26.6483 30.3531 24.7701V11.7402C30.3532 9.862 28.8252 8.33405 26.947 8.33405Z" fill="#54BEFF"/>
<path d="M8.89033 0C7.39799 0 6.18384 1.21409 6.18384 2.70649C6.18384 4.19889 7.39799 5.41298 8.89033 5.41298C10.3827 5.41298 11.5968 4.19889 11.5968 2.70649C11.5968 1.21409 10.3827 0 8.89033 0Z" fill="#BCE6FF"/>
<path d="M23.1096 0C21.6172 0 20.4031 1.21409 20.4031 2.70649C20.4031 4.19889 21.6172 5.41298 23.1096 5.41298C24.6019 5.41298 25.816 4.19889 25.816 2.70649C25.816 1.21409 24.602 0 23.1096 0Z" fill="#BCE6FF"/>
<path d="M24.2554 17.326H7.74458C7.17924 17.326 6.72095 17.7843 6.72095 18.3496V22.5691C6.72095 23.1345 7.17924 23.5927 7.74458 23.5927H24.2554C24.8208 23.5927 25.2791 23.1344 25.2791 22.5691V18.3496C25.2791 17.7843 24.8208 17.326 24.2554 17.326Z" fill="#E8E8E8"/>
<path d="M18.9445 17.326H13.0559C12.4905 17.326 12.0322 17.7843 12.0322 18.3496V22.5691C12.0322 23.1345 12.4905 23.5927 13.0559 23.5927H18.9445C19.5098 23.5927 19.9681 23.1344 19.9681 22.5691V18.3496C19.9681 17.7843 19.5098 17.326 18.9445 17.326Z" fill="white"/>
<path d="M12.8354 14.8931H9.95845C9.39311 14.8931 8.93481 14.4348 8.93481 13.8695C8.93481 13.3041 9.39311 12.8458 9.95845 12.8458H12.8354C13.4007 12.8458 13.859 13.3041 13.859 13.8695C13.859 14.4348 13.4007 14.8931 12.8354 14.8931Z" fill="#0B78BB"/>
<path d="M22.0414 14.8931H19.1645C18.5992 14.8931 18.1409 14.4348 18.1409 13.8695C18.1409 13.3041 18.5992 12.8458 19.1645 12.8458H22.0414C22.6068 12.8458 23.0651 13.3041 23.0651 13.8695C23.0651 14.4348 22.6068 14.8931 22.0414 14.8931Z" fill="#0B78BB"/>
</svg>
