<svg width="16" height="16" viewBox="0 0 16 16" fill="none" xmlns="http://www.w3.org/2000/svg">
<path d="M4.1493 10.5959C4.31691 10.434 4.54139 10.3444 4.77441 10.3464C5.00742 10.3485 5.23031 10.4419 5.39508 10.6067C5.55986 10.7715 5.65332 10.9944 5.65534 11.2274C5.65737 11.4604 5.56779 11.6849 5.40591 11.8525L3.03488 14.2226H4.44346C4.66126 14.2227 4.87147 14.3027 5.03415 14.4475C5.19683 14.5924 5.30066 14.7919 5.32593 15.0082L5.33215 15.1113C5.33215 15.347 5.23852 15.573 5.07186 15.7397C4.90519 15.9064 4.67915 16 4.44346 16H0.888691C0.652996 16 0.426954 15.9064 0.260292 15.7397C0.0936297 15.573 0 15.347 0 15.1113V11.5565C0 11.3208 0.0936297 11.0948 0.260292 10.9281C0.426954 10.7615 0.652996 10.6679 0.888691 10.6679C1.12439 10.6679 1.35043 10.7615 1.51709 10.9281C1.68375 11.0948 1.77738 11.3208 1.77738 11.5565V12.9669L4.1493 10.5959ZM11.5574 16C11.3217 16 11.0957 15.9064 10.929 15.7397C10.7624 15.573 10.6687 15.347 10.6687 15.1113C10.6687 14.8756 10.7624 14.6496 10.929 14.4829C11.0957 14.3162 11.3217 14.2226 11.5574 14.2226H12.9642L10.5959 11.8525C10.4429 11.6995 10.3509 11.4959 10.3374 11.2799C10.3238 11.0639 10.3895 10.8504 10.5221 10.6794L10.5959 10.5959C10.7625 10.4293 10.9885 10.3357 11.2242 10.3357C11.4598 10.3357 11.6858 10.4293 11.8525 10.5959L14.2235 12.9687V11.5565C14.2235 11.3389 14.3034 11.1288 14.4481 10.9661C14.5927 10.8035 14.792 10.6995 15.0082 10.6741L15.1122 10.6679C15.3479 10.6679 15.5739 10.7615 15.7406 10.9281C15.9073 11.0948 16.0009 11.3208 16.0009 11.5565V15.1113C16.0009 15.347 15.9073 15.573 15.7406 15.7397C15.5739 15.9064 15.3479 16 15.1122 16H11.5574ZM4.44346 0C4.67915 0 4.90519 0.0936297 5.07186 0.260292C5.23852 0.426954 5.33215 0.652996 5.33215 0.888691C5.33215 1.12439 5.23852 1.35043 5.07186 1.51709C4.90519 1.68375 4.67915 1.77738 4.44346 1.77738H3.03666L5.40502 4.14841C5.55803 4.30144 5.64995 4.50504 5.66353 4.72101C5.67711 4.93699 5.61142 5.1505 5.47878 5.32148L5.40502 5.40502C5.23837 5.57162 5.01237 5.66522 4.77672 5.66522C4.54107 5.66522 4.31507 5.57162 4.14841 5.40502L1.77738 3.03222V4.44346C1.77735 4.66113 1.69744 4.87122 1.5528 5.03388C1.40815 5.19654 1.20884 5.30046 0.992668 5.32593L0.888691 5.33215C0.652996 5.33215 0.426954 5.23852 0.260292 5.07186C0.0936297 4.90519 0 4.67915 0 4.44346V0.888691C0 0.652996 0.0936297 0.426954 0.260292 0.260292C0.426954 0.0936297 0.652996 0 0.888691 0H4.44346ZM15.1122 0C15.3479 0 15.5739 0.0936297 15.7406 0.260292C15.9073 0.426954 16.0009 0.652996 16.0009 0.888691V4.44346C16.0009 4.67915 15.9073 4.90519 15.7406 5.07186C15.5739 5.23852 15.3479 5.33215 15.1122 5.33215C14.8765 5.33215 14.6505 5.23852 14.4838 5.07186C14.3171 4.90519 14.2235 4.67915 14.2235 4.44346V3.03222L11.8525 5.40502C11.6995 5.55803 11.4959 5.64995 11.2799 5.66353C11.0639 5.67711 10.8504 5.61142 10.6794 5.47878L10.5959 5.40502C10.4293 5.23837 10.3357 5.01237 10.3357 4.77672C10.3357 4.54107 10.4293 4.31507 10.5959 4.14841L12.9651 1.77738H11.5574C11.3398 1.77735 11.1297 1.69744 10.967 1.5528C10.8043 1.40815 10.7004 1.20884 10.675 0.992668L10.6687 0.888691C10.6687 0.652996 10.7624 0.426954 10.929 0.260292C11.0957 0.0936297 11.3217 0 11.5574 0H15.1122Z" fill="#A5A5A5"/>
</svg>
