<svg width="30" height="30" viewBox="0 0 30 30" fill="none" xmlns="http://www.w3.org/2000/svg">
<path fill-rule="evenodd" clip-rule="evenodd" d="M22.701 9.31372C22.6993 9.88293 22.2383 10.3439 21.6691 10.3456H20.6371C21.2064 10.3473 21.6674 10.8084 21.6691 11.3776C21.6649 11.9457 21.2053 12.4053 20.6371 12.4095H20.1212C20.6904 12.4112 21.1514 12.8722 21.1531 13.4414C21.1489 14.0096 20.6893 14.4691 20.1212 14.4734H15.9419L13.9915 14.463C12.6087 14.4424 12.2063 14.3237 11.3498 13.751C11.2672 13.6994 11.1795 13.6478 11.0918 13.6014L11.164 6.6565C11.4747 6.49377 11.7473 6.2669 11.9638 5.99091C12.246 5.58869 12.5713 5.21844 12.9338 4.88674C14.5384 3.40592 15.0802 3.96317 15.849 2.65262C16.1496 2.14192 16.3411 1.57446 16.4114 0.98605C16.4628 0.416792 16.9476 -0.0146209 17.519 0.000379509C18.0903 0.0153799 18.5518 0.471635 18.5733 1.04281C18.6581 2.6508 18.3012 4.25134 17.5414 5.67101C17.4747 5.78194 17.4731 5.92025 17.5374 6.03262C17.6016 6.145 17.7215 6.2139 17.8509 6.21277L20.6371 6.21793C21.2071 6.21793 21.6691 6.67994 21.6691 7.24986C21.6691 7.81978 21.2071 8.28179 20.6371 8.28179H21.6691C22.2372 8.286 22.6968 8.74555 22.701 9.31372Z" fill="#FDD7AD"/>
<path fill-rule="evenodd" clip-rule="evenodd" d="M22.7006 9.31379H19.6048C19.3199 9.31379 19.0889 9.08278 19.0889 8.79782C19.0889 8.51287 19.3199 8.28186 19.6048 8.28186H21.6687C22.2369 8.28607 22.6964 8.74563 22.7006 9.31379Z" fill="#F9C795"/>
<path fill-rule="evenodd" clip-rule="evenodd" d="M21.6687 11.3776H19.6048C19.3199 11.3776 19.0889 11.1466 19.0889 10.8617C19.0889 10.5767 19.3199 10.3457 19.6048 10.3457H20.6368C21.206 10.3474 21.667 10.8084 21.6687 11.3776Z" fill="#F9C795"/>
<path fill-rule="evenodd" clip-rule="evenodd" d="M21.1531 13.4415H19.0892C18.8042 13.4415 18.5732 13.2105 18.5732 12.9255C18.5732 12.6406 18.8042 12.4095 19.0892 12.4095H20.1211C20.6903 12.4112 21.1514 12.8723 21.1531 13.4415Z" fill="#F9C795"/>
<path fill-rule="evenodd" clip-rule="evenodd" d="M10.3593 18.7714L10.3903 18.7404C10.6156 18.5199 10.6972 18.1911 10.6012 17.8908C10.5051 17.5905 10.2477 17.3702 9.93622 17.3215L7.68145 16.9913C7.41225 16.9527 7.18002 16.7824 7.06229 16.5372L6.05616 14.4734C5.92002 14.1895 5.63313 14.009 5.31833 14.009C5.00354 14.009 4.71665 14.1895 4.5805 14.4734L3.57437 16.5372C3.45782 16.7834 3.22499 16.9541 2.95521 16.9913L0.705609 17.3215C0.394606 17.3707 0.137613 17.5905 0.0406583 17.8901C-0.0562963 18.1896 0.0232198 18.5183 0.246401 18.7404L1.87685 20.3502C2.07201 20.5403 2.16082 20.8145 2.11419 21.0829L1.72722 23.3531C1.67114 23.6637 1.79708 23.9791 2.05168 24.1657C2.30628 24.3523 2.64497 24.3773 2.92426 24.2303L4.93652 23.1571C5.176 23.0332 5.46067 23.0332 5.70015 23.1571L7.71757 24.2303C7.99648 24.3744 8.33298 24.3478 8.58582 24.1617C8.83867 23.9757 8.96409 23.6623 8.90945 23.3531L8.86817 23.0951L10.3593 18.7714Z" fill="#F29C1F"/>
<path fill-rule="evenodd" clip-rule="evenodd" d="M21.0549 23.0951L21.0136 23.3531C20.959 23.6623 21.0844 23.9757 21.3372 24.1617C21.5901 24.3478 21.9266 24.3744 22.2055 24.2303L24.2229 23.1571C24.4624 23.0332 24.747 23.0332 24.9865 23.1571L26.9988 24.2303C27.2781 24.3773 27.6168 24.3523 27.8714 24.1657C28.126 23.9791 28.2519 23.6637 28.1958 23.3531L27.8089 21.0829C27.7622 20.8145 27.851 20.5403 28.0462 20.3502L29.6766 18.7404C29.8998 18.5183 29.9793 18.1896 29.8824 17.8901C29.7854 17.5905 29.5284 17.3707 29.2174 17.3215L26.9678 16.9913C26.6981 16.9541 26.4652 16.7834 26.3487 16.5372L25.3425 14.4734C25.2064 14.1895 24.9195 14.009 24.6047 14.009C24.2899 14.009 24.003 14.1895 23.8669 14.4734L22.8608 16.5372C22.743 16.7824 22.5108 16.9527 22.2416 16.9913L19.9868 17.3215C19.6753 17.3702 19.418 17.5905 19.3219 17.8908C19.2258 18.1911 19.3074 18.5199 19.5328 18.7404L19.5637 18.7714L21.0549 23.0951Z" fill="#F29C1F"/>
<path d="M10.3181 6.21796H8.77021C8.20029 6.21796 7.73828 6.67997 7.73828 7.24989V12.9255C7.73828 13.4954 8.20029 13.9574 8.77021 13.9574H10.3181C10.888 13.9574 11.35 13.4954 11.35 12.9255V7.24989C11.35 6.67997 10.888 6.21796 10.3181 6.21796Z" fill="#2FA8CC"/>
<path fill-rule="evenodd" clip-rule="evenodd" d="M15.5547 28.1918L18.6814 29.8532C19.1138 30.0805 19.638 30.0414 20.0319 29.7525C20.4258 29.4636 20.6206 28.9754 20.5337 28.4947L19.9368 24.9763C19.8654 24.5592 20.0022 24.1335 20.3031 23.836L22.8313 21.3439C23.181 21.0022 23.3073 20.4922 23.1577 20.0268C23.0081 19.5613 22.6082 19.2205 22.125 19.1464L18.6288 18.6305C18.2121 18.5684 17.853 18.3047 17.6691 17.9257L16.1057 14.7267C15.8941 14.2876 15.4498 14.0085 14.9624 14.0085C14.475 14.0085 14.0306 14.2876 13.819 14.7267L12.2556 17.9257C12.0717 18.3047 11.7126 18.5684 11.2959 18.6305L7.79974 19.1464C7.31649 19.2205 6.91661 19.5613 6.767 20.0268C6.61739 20.4922 6.74377 21.0022 7.09339 21.3439L9.62161 23.836C9.92255 24.1335 10.0593 24.5592 9.98795 24.9763L9.38891 28.4947C9.30277 28.9747 9.49728 29.4619 9.89032 29.7505C10.2834 30.0392 10.8064 30.079 11.2386 29.8532L14.3654 28.1918C14.7371 27.9938 15.183 27.9938 15.5547 28.1918Z" fill="#F0C419"/>
</svg>
