<svg width="30" height="30" viewBox="0 0 30 30" fill="none" xmlns="http://www.w3.org/2000/svg">
<path d="M15 0C6.72867 0 0 6.72867 0 15C0 23.2713 6.72867 30 15 30C23.2713 30 30 23.2713 30 15C30 6.72867 23.2713 0 15 0Z" fill="#FFC107"/>
<path d="M16.2498 22.5C16.2498 23.1904 15.6902 23.75 14.9999 23.75C14.3096 23.75 13.75 23.1904 13.75 22.5C13.75 21.8097 14.3096 21.2501 14.9999 21.2501C15.6902 21.2501 16.2498 21.8097 16.2498 22.5Z" fill="#ECEFF1"/>
<path d="M16.9787 15.8024C16.5363 16.0061 16.2499 16.4524 16.2499 16.9388V17.5C16.2499 18.1899 15.6912 18.75 15 18.75C14.3088 18.75 13.7501 18.1899 13.7501 17.5V16.9388C13.7501 15.4799 14.6075 14.1426 15.9313 13.5312C17.205 12.9451 18.1249 11.3887 18.1249 10.6249C18.1249 8.90254 16.7237 7.49995 15 7.49995C13.2763 7.49995 11.8751 8.90254 11.8751 10.6249C11.8751 11.315 11.3161 11.875 10.6249 11.875C9.9337 11.875 9.375 11.315 9.375 10.6249C9.375 7.52376 11.8987 4.99988 15 4.99988C18.1013 4.99988 20.625 7.52376 20.625 10.6249C20.625 12.3138 19.1599 14.7962 16.9787 15.8024Z" fill="#FAFAFA"/>
</svg>
