<svg width="30" height="30" viewBox="0 0 30 30" fill="none" xmlns="http://www.w3.org/2000/svg">
<path d="M1.95651 2.08281C-0.393759 4.52404 0.0872607 7.11731 0.0872607 14.9956C0.0872607 21.5379 -1.05423 28.0965 4.91989 29.6405C6.78539 30.1203 23.3145 30.1203 25.1775 29.638C27.6649 28.9962 29.6886 26.9787 29.9653 23.4608C30.0039 22.9698 30.0039 7.03008 29.964 6.52912C29.6699 2.78191 27.3633 0.622305 24.3239 0.184901C23.6273 0.0839621 23.4877 0.0540542 19.9137 0.0478234C7.2365 0.0540542 4.45756 -0.510458 1.95651 2.08281Z" fill="url(#paint0_linear)"/>
<path d="M15.0387 3.95953C10.5139 3.95953 6.21711 3.55701 4.57591 7.76905C3.898 9.50869 3.99644 11.768 3.99644 15.003C3.99644 17.8418 3.90547 20.5098 4.57591 22.2358C6.21337 26.4503 10.545 26.0465 15.0362 26.0465C19.3691 26.0465 23.8366 26.4977 25.4978 22.2358C26.1769 20.4787 26.0772 18.253 26.0772 15.003C26.0772 10.6888 26.3152 7.90363 24.2229 5.81257C22.1045 3.69409 19.2395 3.95953 15.0337 3.95953H15.0387ZM14.0492 5.94965C23.4877 5.9347 24.689 4.88543 24.026 19.4618C23.7905 24.6172 19.8651 24.0514 15.0399 24.0514C6.24203 24.0514 5.98906 23.7997 5.98906 14.998C5.98906 6.0942 6.68691 5.95463 14.0492 5.94716V5.94965ZM20.9331 7.78276C20.2016 7.78276 19.6084 8.37593 19.6084 9.10743C19.6084 9.83893 20.2016 10.4321 20.9331 10.4321C21.6646 10.4321 22.2577 9.83893 22.2577 9.10743C22.2577 8.37593 21.6646 7.78276 20.9331 7.78276ZM15.0387 9.33174C11.9071 9.33174 9.36866 11.8714 9.36866 15.003C9.36866 18.1346 11.9071 20.6731 15.0387 20.6731C18.1703 20.6731 20.7075 18.1346 20.7075 15.003C20.7075 11.8714 18.1703 9.33174 15.0387 9.33174ZM15.0387 11.3219C19.905 11.3219 19.9112 18.6842 15.0387 18.6842C10.1737 18.6842 10.1662 11.3219 15.0387 11.3219Z" fill="white"/>
<defs>
<linearGradient id="paint0_linear" x1="2.01386" y1="28.0455" x2="29.8101" y2="3.98816" gradientUnits="userSpaceOnUse">
<stop stop-color="#FFDD55"/>
<stop offset="0.5" stop-color="#FF543E"/>
<stop offset="1" stop-color="#C837AB"/>
</linearGradient>
</defs>
</svg>
