<svg width="22" height="22" viewBox="0 0 22 22" fill="none" xmlns="http://www.w3.org/2000/svg">
<path d="M20.1039 0H1.77061C0.792731 0 0 0.792731 0 1.77061V20.2294C0 21.2073 0.792731 22 1.77061 22H17.417L17.6833 21.6082L20.7893 18.5022L21.8745 17.5425V17.417V1.77061C21.8745 0.792731 21.0818 0 20.1039 0V0Z" fill="#E7ECF6"/>
<path d="M20.2294 19.1875V2.65584C20.2294 2.16689 19.833 1.77051 19.3441 1.77051H2.65596C2.16702 1.77051 1.77063 2.16689 1.77063 2.65584V19.344C1.77063 19.8329 2.16702 20.2293 2.65596 20.2293H19.1877L20.2294 19.1875Z" fill="#BED8FB"/>
<path d="M20.2294 13.7799L16.6776 8.69821C16.2019 8.01759 15.1941 8.01759 14.7184 8.69821L10.1377 15.2518H20.2294V13.7799H20.2294Z" fill="#365E7D"/>
<path d="M12.6599 6.21293C13.4242 6.21293 14.0437 5.59338 14.0437 4.82912C14.0437 4.06486 13.4242 3.44531 12.6599 3.44531C11.8957 3.44531 11.2761 4.06486 11.2761 4.82912C11.2761 5.59338 11.8957 6.21293 12.6599 6.21293Z" fill="#FFC344"/>
<path d="M6.88348 6.46485L1.77063 13.7798V14.4527L7.92595 15.2517H14.9843L8.84268 6.46485C8.36698 5.78418 7.35919 5.78418 6.88348 6.46485Z" fill="#407093"/>
<path d="M20.2294 19.1875V14.4526H1.77063V19.344C1.77063 19.8329 2.16702 20.2293 2.65596 20.2293H19.1877L20.2294 19.1875Z" fill="#B3E59F"/>
<path d="M17.417 22L22 17.417H19.1876C18.2097 17.417 17.417 18.2097 17.417 19.1876V22Z" fill="#ACACAC"/>
<path d="M20.2294 0H18.9746C19.9525 0 20.7452 0.792731 20.7452 1.77061V17.417V18.6718L22 17.417V1.77061C22 0.792731 21.2073 0 20.2294 0V0Z" fill="#D8E2F1"/>
<path d="M17.417 22L22 17.417H19.1876C18.2097 17.417 17.417 18.2097 17.417 19.1876V22Z" fill="#80B4FB"/>
</svg>
