<svg width="30" height="30" viewBox="0 0 30 30" fill="none" xmlns="http://www.w3.org/2000/svg">
<path d="M15 30C23.2843 30 30 23.2843 30 15C30 6.71573 23.2843 0 15 0C6.71573 0 0 6.71573 0 15C0 23.2843 6.71573 30 15 30Z" fill="#382B73"/>
<path d="M15 27.8125C22.0761 27.8125 27.8125 22.0761 27.8125 15C27.8125 7.92385 22.0761 2.1875 15 2.1875C7.92385 2.1875 2.1875 7.92385 2.1875 15C2.1875 22.0761 7.92385 27.8125 15 27.8125Z" fill="#473080"/>
<path d="M20.3902 7.22058H9.60969C9.32044 7.22058 9.08594 7.45508 9.08594 7.74433V8.25621V23.1947V23.7066C9.08594 23.9958 9.32044 24.2303 9.60969 24.2303H13.0788L12.8252 25.1528C12.8224 25.1627 12.8219 25.1722 12.8222 25.1813C12.8222 25.1825 12.8218 25.1836 12.8218 25.1847C12.8232 25.205 12.8313 25.2231 12.8437 25.2373C12.8746 25.273 12.9318 25.2847 12.9749 25.2471L13.6784 24.635C13.6898 24.6251 13.7029 24.6195 13.7162 24.616C13.7204 24.6148 13.7247 24.615 13.7289 24.6145C13.7701 24.6101 13.8124 24.632 13.8268 24.6757L14.1186 25.5613C14.1472 25.6482 14.2712 25.6452 14.2954 25.557L14.6602 24.2303H15.3397L15.7044 25.557C15.7287 25.6452 15.8527 25.6483 15.8813 25.5613L16.1729 24.6757C16.1873 24.632 16.2297 24.6101 16.2708 24.6145C16.2751 24.615 16.2793 24.6148 16.2836 24.616C16.2969 24.6193 16.3099 24.625 16.3213 24.635L17.0248 25.2471C17.0679 25.2846 17.1252 25.2728 17.1561 25.2373C17.1746 25.216 17.1837 25.186 17.1746 25.153L16.9209 24.2305H20.3901C20.6793 24.2305 20.9138 23.996 20.9138 23.7067V23.1948V8.25621V7.74433C20.9138 7.45508 20.6794 7.22058 20.3902 7.22058Z" fill="#382B73"/>
<path d="M20.3902 23.3554H9.60969C9.32044 23.3554 9.08594 23.1209 9.08594 22.8317V7.38129C9.08594 7.09204 9.32044 6.85754 9.60969 6.85754H20.3901C20.6793 6.85754 20.9138 7.09204 20.9138 7.38129V22.8317C20.9138 23.1209 20.6794 23.3554 20.3902 23.3554Z" fill="#D1D3D4"/>
<path d="M20.3902 22.8435H9.60969C9.32044 22.8435 9.08594 22.609 9.08594 22.3197V6.86933C9.08594 6.58008 9.32044 6.34558 9.60969 6.34558H20.3901C20.6793 6.34558 20.9138 6.58008 20.9138 6.86933V22.3197C20.9138 22.609 20.6794 22.8435 20.3902 22.8435Z" fill="white"/>
<path d="M14.3696 13.2567H13.3398C13.1327 13.2567 12.9648 13.0888 12.9648 12.8817C12.9648 12.6745 13.1327 12.5067 13.3398 12.5067H14.3696C14.5767 12.5067 14.7446 12.6745 14.7446 12.8817C14.7446 13.0888 14.5767 13.2567 14.3696 13.2567Z" fill="#D1D3D4"/>
<path d="M16.6596 13.2567H15.6299C15.4228 13.2567 15.2549 13.0888 15.2549 12.8817C15.2549 12.6745 15.4228 12.5067 15.6299 12.5067H16.6596C16.8668 12.5067 17.0346 12.6745 17.0346 12.8817C17.0346 13.0888 16.8668 13.2567 16.6596 13.2567Z" fill="#D1D3D4"/>
<path d="M12.0786 17.01H11.0488C10.8417 17.01 10.6738 16.8421 10.6738 16.635C10.6738 16.4279 10.8417 16.26 11.0488 16.26H12.0786C12.2857 16.26 12.4536 16.4279 12.4536 16.635C12.4536 16.8421 12.2857 17.01 12.0786 17.01Z" fill="#D1D3D4"/>
<path d="M14.3696 17.01H13.3398C13.1327 17.01 12.9648 16.8421 12.9648 16.635C12.9648 16.4279 13.1327 16.26 13.3398 16.26H14.3696C14.5767 16.26 14.7446 16.4279 14.7446 16.635C14.7446 16.8421 14.5767 17.01 14.3696 17.01Z" fill="#D1D3D4"/>
<path d="M16.6596 17.01H15.6299C15.4228 17.01 15.2549 16.8421 15.2549 16.635C15.2549 16.4279 15.4228 16.26 15.6299 16.26H16.6596C16.8668 16.26 17.0346 16.4279 17.0346 16.635C17.0346 16.8421 16.8668 17.01 16.6596 17.01Z" fill="#D1D3D4"/>
<path d="M18.9497 17.01H17.9199C17.7128 17.01 17.5449 16.8421 17.5449 16.635C17.5449 16.4279 17.7128 16.26 17.9199 16.26H18.9497C19.1568 16.26 19.3247 16.4279 19.3247 16.635C19.3247 16.8421 19.1568 17.01 18.9497 17.01Z" fill="#D1D3D4"/>
<path d="M12.0786 15.1333H11.0488C10.8417 15.1333 10.6738 14.9654 10.6738 14.7583C10.6738 14.5512 10.8417 14.3833 11.0488 14.3833H12.0786C12.2857 14.3833 12.4536 14.5512 12.4536 14.7583C12.4536 14.9656 12.2857 15.1333 12.0786 15.1333Z" fill="#D1D3D4"/>
<path d="M14.3696 15.1333H13.3398C13.1327 15.1333 12.9648 14.9654 12.9648 14.7583C12.9648 14.5512 13.1327 14.3833 13.3398 14.3833H14.3696C14.5767 14.3833 14.7446 14.5512 14.7446 14.7583C14.7446 14.9656 14.5767 15.1333 14.3696 15.1333Z" fill="#D1D3D4"/>
<path d="M16.6596 15.1333H15.6299C15.4228 15.1333 15.2549 14.9654 15.2549 14.7583C15.2549 14.5512 15.4228 14.3833 15.6299 14.3833H16.6596C16.8668 14.3833 17.0346 14.5512 17.0346 14.7583C17.0346 14.9656 16.8668 15.1333 16.6596 15.1333Z" fill="#D1D3D4"/>
<path d="M18.9497 15.1333H17.9199C17.7128 15.1333 17.5449 14.9654 17.5449 14.7583C17.5449 14.5512 17.7128 14.3833 17.9199 14.3833H18.9497C19.1568 14.3833 19.3247 14.5512 19.3247 14.7583C19.3247 14.9656 19.1568 15.1333 18.9497 15.1333Z" fill="#D1D3D4"/>
<path d="M17.3252 12.6567C17.3277 12.6622 17.3303 12.6676 17.3332 12.6729C17.3304 12.6676 17.3277 12.6622 17.3252 12.6567ZM17.5372 12.8094C17.5429 12.81 17.5487 12.8105 17.5546 12.8109C17.5488 12.8105 17.5429 12.8101 17.5372 12.8094Z" fill="#D1D3D4"/>
<path d="M16.6743 19.5466C16.3938 19.5609 16.1624 19.3296 16.1768 19.0491C16.1995 18.6037 15.6505 18.3763 15.3517 18.7073C15.1634 18.9158 14.8363 18.9158 14.648 18.7073C14.3492 18.3763 13.8002 18.6037 13.8229 19.0491C13.8373 19.3296 13.6059 19.5609 13.3254 19.5466C12.88 19.5238 12.6527 20.0728 12.9837 20.3717C13.1922 20.5599 13.1922 20.8871 12.9837 21.0753C12.6527 21.3742 12.88 21.9232 13.3254 21.9004C13.438 21.8947 13.5418 21.9298 13.6258 21.9906L13.2505 23.3554H14.8319L14.915 23.0531L14.9998 22.7448L15.0845 23.0531L15.1677 23.3554H16.749L16.3738 21.9906C16.4578 21.9298 16.5615 21.8947 16.6742 21.9004C17.1195 21.9232 17.347 21.3742 17.0159 21.0753C16.8074 20.8871 16.8074 20.5599 17.0159 20.3717C17.3472 20.0728 17.1197 19.5238 16.6743 19.5466Z" fill="#D1D3D4"/>
<path d="M14.1182 24.6865L13.8265 23.8008C13.8059 23.7381 13.7279 23.7167 13.6781 23.76L12.9746 24.3721C12.9056 24.4321 12.8006 24.3661 12.8249 24.2778L13.7829 20.7935L15.2531 21.1977L14.2951 24.6821C14.2709 24.7703 14.1469 24.7733 14.1182 24.6865Z" fill="#F7CB15"/>
<path d="M13.7829 20.7935L12.8249 24.2778C12.8006 24.3661 12.9056 24.4321 12.9746 24.3721L13.6781 23.76C13.698 23.7427 13.7222 23.7357 13.7456 23.7376L14.4975 20.99L13.7829 20.7935Z" fill="#FEDE3A"/>
<path d="M15.881 24.6865L16.1726 23.8008C16.1932 23.7381 16.2712 23.7167 16.3211 23.76L17.0246 24.3721C17.0936 24.4321 17.1986 24.3661 17.1743 24.2778L16.2163 20.7935L14.7461 21.1977L15.7041 24.6821C15.7283 24.7703 15.8523 24.7733 15.881 24.6865Z" fill="#F7CB15"/>
<path d="M17.1746 24.2778L16.2166 20.7935L15.502 20.99L16.2538 23.7376C16.2772 23.7358 16.3015 23.7427 16.3213 23.76L17.0248 24.3721C17.094 24.4321 17.199 24.3661 17.1746 24.2778Z" fill="#FEDE3A"/>
<path d="M13.7831 20.7935L13.5156 21.7667C13.7026 21.8367 13.8339 22.0216 13.823 22.235C13.8002 22.6803 14.3492 22.9077 14.6481 22.5767C14.7215 22.4955 14.816 22.4458 14.9151 22.428L15.2534 21.1977L13.7831 20.7935Z" fill="#E7AD27"/>
<path d="M16.484 21.7667L16.2163 20.7935L14.7461 21.1977L15.0843 22.428C15.1835 22.4458 15.278 22.4955 15.3513 22.5767C15.6502 22.9077 16.1992 22.6803 16.1765 22.235C16.1657 22.0216 16.2971 21.8366 16.484 21.7667Z" fill="#E7AD27"/>
<path d="M15.3517 18.0824C15.6505 17.7514 16.1995 17.9787 16.1768 18.4241C16.1624 18.7046 16.3938 18.936 16.6743 18.9216C17.1197 18.8989 17.3472 19.4479 17.016 19.7467C16.8075 19.935 16.8075 20.2621 17.016 20.4504C17.347 20.7492 17.1197 21.2982 16.6743 21.2755C16.3938 21.2611 16.1624 21.4925 16.1768 21.773C16.1995 22.2184 15.6505 22.4457 15.3517 22.1147C15.1634 21.9062 14.8363 21.9062 14.648 22.1147C14.3492 22.4457 13.8002 22.2184 13.8229 21.773C13.8373 21.4925 13.6059 21.2611 13.3254 21.2755C12.88 21.2982 12.6527 20.7492 12.9837 20.4504C13.1922 20.2621 13.1922 19.935 12.9837 19.7467C12.6527 19.4479 12.88 18.8989 13.3254 18.9216C13.6059 18.936 13.8373 18.7046 13.8229 18.4241C13.8002 17.9787 14.3492 17.7514 14.648 18.0824C14.8363 18.2907 15.1635 18.2907 15.3517 18.0824Z" fill="#FEDE3A"/>
<path d="M16.4967 20.4618C16.6923 19.6344 16.1801 18.8052 15.3528 18.6096C14.5254 18.414 13.6962 18.9262 13.5006 19.7535C13.305 20.5809 13.8172 21.4101 14.6445 21.6057C15.4719 21.8013 16.3011 21.2891 16.4967 20.4618Z" fill="#F7CB15"/>
<path d="M15.0003 21.2922C15.6595 21.2922 16.1939 20.7578 16.1939 20.0985C16.1939 19.4393 15.6595 18.9049 15.0003 18.9049C14.341 18.9049 13.8066 19.4393 13.8066 20.0985C13.8066 20.7578 14.341 21.2922 15.0003 21.2922Z" fill="#E7AD27"/>
<path d="M15.1761 19.4152L15.2411 19.6152C15.2659 19.6913 15.3369 19.7429 15.4169 19.7429H15.6271C15.8061 19.7429 15.8806 19.972 15.7358 20.0773L15.5656 20.2008C15.5009 20.2479 15.4738 20.3313 15.4985 20.4074L15.5635 20.6074C15.6189 20.7777 15.4239 20.9193 15.2791 20.814L15.109 20.6904C15.0443 20.6434 14.9565 20.6434 14.8918 20.6904L14.7216 20.814C14.5768 20.9193 14.3819 20.7777 14.4373 20.6074L14.5023 20.4074C14.527 20.3313 14.4999 20.2478 14.4351 20.2008L14.265 20.0773C14.1201 19.972 14.1946 19.7429 14.3736 19.7429H14.5839C14.664 19.7429 14.7349 19.6914 14.7596 19.6152L14.8246 19.4152C14.8799 19.2449 15.1209 19.2449 15.1761 19.4152Z" fill="#FFF335"/>
<path d="M15.8009 11.4321C16.8608 10.9928 17.3638 9.77753 16.9245 8.71767C16.4852 7.65782 15.2699 7.15477 14.21 7.59408C13.1502 8.03339 12.6471 9.24871 13.0865 10.3086C13.5258 11.3684 14.7411 11.8715 15.8009 11.4321Z" fill="#D1D3D4"/>
</svg>
