<svg width="30" height="30" viewBox="0 0 30 30" fill="none" xmlns="http://www.w3.org/2000/svg">
<path d="M15 0C6.72538 0 0 6.72538 0 15C0 23.2746 6.72538 30 15 30C23.2746 30 30 23.2746 30 15C30 6.72538 23.2747 0 15 0ZM25.2465 22.8169C24.5775 22.1831 23.8732 21.6198 23.0986 21.1268C23.5916 19.5774 23.9085 17.8521 23.9789 16.0563H27.8521C27.6408 18.5916 26.6902 20.9155 25.2465 22.8169ZM2.14786 16.0564H6.02108C6.09151 17.8522 6.40841 19.5423 6.90135 21.0916C6.12669 21.5845 5.42246 22.1479 4.75349 22.7818C3.27467 20.8803 2.35915 18.5564 2.14786 16.0564ZM4.7183 7.2535C5.38735 7.88729 6.12676 8.45066 6.86617 8.94367C6.37323 10.493 6.09151 12.1831 5.9859 13.9789H2.11268C2.35915 11.4437 3.27467 9.11971 4.7183 7.2535ZM13.9437 9.11971C12.3944 8.97885 10.8803 8.59152 9.50704 7.95772C10.493 5.70418 12.007 3.9084 13.9437 2.67605V9.11971ZM13.9437 11.2324V13.9437H8.13383C8.20426 12.5352 8.41555 11.1972 8.80288 9.92962C10.3873 10.669 12.1479 11.0915 13.9437 11.2324ZM13.9437 16.0564V18.7677C12.1479 18.9085 10.3874 19.331 8.76763 20.0705C8.41555 18.8381 8.16901 17.5001 8.09858 16.0564H13.9437V16.0564ZM13.9437 20.8803V27.3239C12.007 26.0915 10.493 24.2958 9.50704 22.0423C10.8803 21.4085 12.3944 21.0212 13.9437 20.8803ZM16.0564 20.8803C17.6057 21.0212 19.1198 21.4085 20.493 22.0775C19.4719 24.2958 17.9578 26.0915 16.0564 27.3239V20.8803ZM16.0564 18.7676V16.0563H21.8662C21.7958 17.4648 21.5493 18.838 21.1972 20.0704C19.6127 19.331 17.8522 18.9085 16.0564 18.7676ZM16.0564 13.9437V11.2324C17.8522 11.0915 19.6127 10.669 21.1973 9.92955C21.5493 11.1971 21.7959 12.5352 21.8663 13.9436H16.0564V13.9437ZM16.0564 9.11971V2.67605C17.9578 3.90847 19.4719 5.70425 20.493 7.92254C19.1198 8.59159 17.6056 8.97892 16.0564 9.11971ZM19.7536 3.0282C21.2676 3.62682 22.6409 4.50708 23.8381 5.63382C23.3803 6.09158 22.8521 6.47891 22.324 6.86624C21.6549 5.42253 20.7747 4.11975 19.7536 3.0282ZM7.67607 6.90142C7.14789 6.54934 6.61977 6.12676 6.16201 5.669C7.35917 4.54226 8.73245 3.66193 10.2818 3.02813C9.19014 4.15494 8.34505 5.42253 7.67607 6.90142ZM7.67607 23.0986C8.34512 24.5423 9.22539 25.8451 10.2465 26.9719C8.6972 26.3733 7.32399 25.4578 6.12676 24.331C6.6197 23.8732 7.11271 23.4859 7.67607 23.0986ZM22.324 23.1338C22.8522 23.5212 23.3451 23.9085 23.8381 24.3662C22.6761 25.4578 21.3029 26.3733 19.7536 26.9719C20.7747 25.8803 21.6549 24.5775 22.324 23.1338ZM23.9789 13.9437C23.9085 12.1479 23.5916 10.4578 23.0986 8.87324C23.8733 8.3803 24.5775 7.81693 25.2465 7.18307C26.6902 9.08446 27.6409 11.4084 27.8521 13.9436H23.9789V13.9437Z" fill="url(#paint0_linear)"/>
<defs>
<linearGradient id="paint0_linear" x1="15" y1="-0.000412879" x2="15" y2="29.9997" gradientUnits="userSpaceOnUse">
<stop stop-color="#00EFD1"/>
<stop offset="1" stop-color="#00ACEA"/>
</linearGradient>
</defs>
</svg>
