<svg width="30" height="22" viewBox="0 0 30 22" fill="none" xmlns="http://www.w3.org/2000/svg">
<path d="M29.3819 3.28673C29.0361 2.00156 28.0228 0.988536 26.7379 0.642469C24.3902 0 14.9997 0 14.9997 0C14.9997 0 5.60941 0 3.26178 0.617978C2.00156 0.963817 0.963588 2.00179 0.61775 3.28673C0 5.63413 0 10.5024 0 10.5024C0 10.5024 0 15.3952 0.61775 17.7181C0.963817 19.0031 1.97684 20.0163 3.26201 20.3624C5.63413 21.0049 14.9999 21.0049 14.9999 21.0049C14.9999 21.0049 24.3902 21.0049 26.7379 20.3869C28.023 20.041 29.0361 19.0278 29.3821 17.7428C29.9999 15.3952 29.9999 10.5271 29.9999 10.5271C29.9999 10.5271 30.0246 5.63413 29.3819 3.28673Z" fill="#FF0000"/>
<path d="M11 14.9951L18.8088 10.4975L11 6V14.9951Z" fill="white"/>
</svg>
