<svg width="23" height="21" viewBox="0 0 23 21" fill="none" xmlns="http://www.w3.org/2000/svg">
<g clip-path="url(#clip0)">
<path d="M10.7333 17.9253L11.505 14.9061L11.7006 14.9149C11.7839 15.4267 11.9165 15.9298 12.0967 16.4172L12.1075 16.4465L12.0998 16.4767L11.7829 17.7164L12.2333 17.1294L12.3322 17.0004L12.4027 17.1469C12.5219 17.3947 12.6488 17.6402 12.7911 17.8754L12.8264 17.9338L12.7849 17.988L11.1193 20.1607L11.0399 20.0999L11.1193 20.1607C11.0741 20.2197 11.0156 20.2674 10.9486 20.3001C10.8817 20.3329 10.8079 20.3499 10.7333 20.3499C10.6586 20.3499 10.5849 20.3329 10.5179 20.3001C10.4509 20.2674 10.3924 20.2197 10.3472 20.1607L-0.00285096 6.6608L-0.00289308 6.66075C-0.0593358 6.58702 -0.0928156 6.49859 -0.0989682 6.40619C-0.10512 6.31379 -0.0836584 6.22177 -0.037398 6.14136L10.7333 17.9253ZM10.7333 17.9253L7.90268 6.84996H13.5635L13.2503 8.07519L13.2123 8.22394L13.3638 8.19858C13.6451 8.15145 13.9252 8.09781 14.2019 8.03307L14.2609 8.01925L14.276 7.96048L14.5599 6.84996H20.1139L19.6382 7.47022L19.5543 7.57961L19.6843 7.6254C19.9416 7.716 20.2022 7.79463 20.4634 7.86878L20.5287 7.88732L20.5701 7.83343L21.4694 6.66082L21.4694 6.66075C21.5259 6.58702 21.5593 6.49859 21.5655 6.40619C21.5716 6.31379 21.5502 6.22177 21.5039 6.14136C21.5039 6.14136 21.5039 6.14135 21.5039 6.14134L18.0539 0.141428C18.0117 0.0678877 17.9503 0.00694154 17.8764 -0.0353802C17.8026 -0.0776932 17.7187 -0.0999397 17.6334 -0.1H17.6333L3.83321 -0.1L3.83314 -0.1C3.74783 -0.0999397 3.66396 -0.0776931 3.59009 -0.0353802C3.51621 0.00693597 3.45489 0.0678722 3.41263 0.141401C3.41263 0.14141 3.41262 0.141419 3.41262 0.141428L-0.0373813 6.14134L10.7333 17.9253ZM19.7816 7.44756C19.7713 7.44397 19.761 7.44037 19.7507 7.43676L19.7175 7.53108L19.7969 7.59194L19.8171 7.56551C20.0394 7.64095 20.2643 7.70832 20.4907 7.77258L21.39 6.59996C21.4346 6.54175 21.4609 6.47212 21.4657 6.39954C21.4705 6.32697 21.4537 6.25459 21.4172 6.19121L19.7816 7.44756ZM17.6333 1.34023L20.255 5.89996H15.0113L17.6333 1.34023ZM16.805 0.849995L14.1833 5.40973L11.5612 0.849995H16.805ZM13.3549 5.89996H8.11122L10.7333 1.34023L13.3549 5.89996ZM4.66119 0.849995H9.90491L7.28323 5.40973L4.66119 0.849995ZM1.21153 5.89996L3.83321 1.34023L6.45525 5.89996H1.21153ZM6.90619 6.84996L9.68321 17.716L1.35253 6.84996H6.90619Z" fill="white" stroke="white" stroke-width="0.2"/>
<path d="M22.6573 8.95935C22.7513 8.96916 22.8384 9.01266 22.9016 9.08147C22.9649 9.15028 22.9999 9.23955 23 9.3321L22.6573 8.95935ZM22.6573 8.95935C20.9653 8.78543 19.3212 8.30473 17.8092 7.54186L22.6573 8.95935ZM12.5986 8.85988L12.5984 8.8599L17.4531 21.0657C17.5687 21.1113 17.6978 21.1113 17.8134 21.0657C19.3507 20.4883 20.6762 19.4732 21.6187 18.1513C22.5613 16.8291 23.0774 15.2606 23.1 13.6482H23.1V13.6468V9.3321V9.33206C23.0999 9.21418 23.0553 9.10084 22.9753 9.01379C22.8953 8.9268 22.7856 8.8722 22.6676 8.85989L22.6573 8.95903L22.6675 8.85988C20.9877 8.6872 19.3555 8.20997 17.8544 7.45266C17.786 7.41783 17.7101 7.39969 17.6333 7.39969C17.5563 7.39969 17.4803 7.41787 17.4119 7.45278L17.4573 7.54182L17.4123 7.45258C15.911 8.20994 14.2787 8.68719 12.5986 8.85988ZM22.1333 13.6461C22.1121 15.0422 21.6708 16.4014 20.8641 17.5538C20.0648 18.6958 18.9418 19.5845 17.6333 20.111C16.3247 19.5845 15.2017 18.6958 14.4024 17.5538C13.5957 16.4014 13.1544 15.0422 13.1332 13.6461V9.75303C14.6979 9.54642 16.2178 9.09175 17.6333 8.40679C19.0487 9.09175 20.5686 9.54642 22.1333 9.75303V13.6461Z" fill="white" stroke="white" stroke-width="0.2"/>
<path d="M14.524 13.5383L14.4541 13.4699L14.3842 13.5383L13.8421 14.0686L13.7691 14.14L13.8421 14.2115L16.1422 16.4615L16.1422 16.4615C16.233 16.5503 16.3557 16.5998 16.4831 16.5998C16.6106 16.5998 16.7333 16.5503 16.8241 16.4615L16.8241 16.4615L21.4241 11.9615L21.4972 11.89L21.4241 11.8186L20.8821 11.2883L20.8121 11.2199L20.7422 11.2883L16.4831 15.4548L14.524 13.5383Z" fill="white" stroke="white" stroke-width="0.2"/>
</g>
<defs>
<clipPath id="clip0">
<rect width="23" height="21" fill="white"/>
</clipPath>
</defs>
</svg>
