<svg width="22" height="20" viewBox="0 0 22 20" fill="none" xmlns="http://www.w3.org/2000/svg">
<g clip-path="url(#clip0)">
<path d="M0.30238 16.7583C0.387723 16.6409 0.532858 16.5667 0.690178 16.5667V16.591C0.765021 16.5751 0.843204 16.5667 0.923822 16.5667H1.59588V6.1667C1.59588 5.18371 2.47225 4.40003 3.52919 4.40003C3.77773 4.40003 3.99586 4.5853 3.99586 4.83337C3.99586 5.08143 3.77773 5.2667 3.52919 5.2667C2.96873 5.2667 2.5292 5.67927 2.5292 6.1667V16.5667H6.74533C7.23222 16.5667 7.70811 16.7158 8.08535 16.9887C8.30245 17.1458 8.57741 17.2333 8.85919 17.2333H13.1407C13.423 17.2333 13.695 17.1476 13.9068 16.9943L13.9654 17.0753L13.9068 16.9943C14.2887 16.7179 14.7673 16.5667 15.2546 16.5667H19.4707V6.1667C19.4707 5.67927 19.0312 5.2667 18.4707 5.2667C18.2222 5.2667 18.004 5.08143 18.004 4.83337C18.004 4.5853 18.2222 4.40003 18.4707 4.40003C19.5276 4.40003 20.404 5.18371 20.404 6.1667V16.5667H21.0761C21.7463 16.5667 22.255 17.1534 22.0576 17.7624C22.0576 17.7624 22.0576 17.7625 22.0576 17.7625L21.9625 17.7316C21.6881 18.5788 20.9024 20 18.7226 20H3.27725C1.09744 20 0.311678 18.5788 0.0373223 17.7316L0.30238 16.7583ZM0.30238 16.7583C-0.0166864 16.981 -0.185397 17.3685 -0.0578115 17.7624" fill="white" stroke="white" stroke-width="0.2"/>
<path d="M8.64986 13.9619L8.64989 13.9618L8.65231 13.9552L8.65241 13.9549C8.65363 13.9518 8.65585 13.9459 8.65795 13.939C8.66269 13.9233 8.66513 13.9075 8.66673 13.8886C8.66969 13.8535 8.67091 13.7911 8.67147 13.6652C8.67206 13.5308 8.67185 13.3189 8.67153 12.9806C8.67124 12.6772 8.67085 12.2722 8.67085 11.7302C8.67085 11.2186 8.25194 10.7994 7.71424 10.7404L7.71414 10.7404C7.4672 10.7135 7.22872 10.8728 7.19624 11.1176C7.16346 11.3647 7.35684 11.5739 7.60452 11.601L7.60453 11.601C7.68779 11.6102 7.73753 11.6718 7.73753 11.7301V12.8025L5.73755 10.9843V1.03162C5.73755 0.894357 5.86367 0.766665 6.039 0.766665H16.0068C16.1822 0.766665 16.3083 0.894357 16.3083 1.03162V13.135C16.3083 13.2723 16.1822 13.4 16.0068 13.4H10.1587C9.9102 13.4 9.69207 13.5852 9.69207 13.8333C9.69207 14.0814 9.9102 14.2666 10.1587 14.2666H16.0068C16.6786 14.2666 17.2416 13.7678 17.2416 13.135V1.03162C17.2416 0.39881 16.6786 -0.1 16.0068 -0.1H6.03895C5.36719 -0.1 4.80417 0.398807 4.80417 1.03162V11.1666C4.80417 11.2848 4.8559 11.396 4.94429 11.4763L7.8776 14.143C8.0024 14.2565 8.16939 14.2871 8.31533 14.2539C8.46125 14.2208 8.59682 14.1209 8.64986 13.9619Z" fill="white" stroke="white" stroke-width="0.2"/>
<path d="M11.2119 4.45554L11.2119 4.45553L13.1598 2.6847C13.3467 2.51486 13.3467 2.23518 13.1598 2.06534L13.1598 2.06533C12.9785 1.9005 12.6881 1.9005 12.5068 2.06533L12.5068 2.06534L10.8854 3.53931L10.3182 3.02367L10.3182 3.02366C10.1368 2.85883 9.8465 2.85883 9.66513 3.02366L9.66512 3.02367C9.47829 3.19351 9.47829 3.47319 9.66512 3.64303L10.5589 4.45553C10.7402 4.62042 11.0306 4.62035 11.2119 4.45554Z" fill="white" stroke="white" stroke-width="0.2"/>
<path d="M7.55417 6.33337C7.55417 6.58143 7.7723 6.7667 8.02084 6.7667H13.9791C14.2276 6.7667 14.4458 6.58143 14.4458 6.33337C14.4458 6.0853 14.2276 5.90003 13.9791 5.90003H8.02084C7.77231 5.90003 7.55417 6.08525 7.55417 6.33337Z" fill="white" stroke="white" stroke-width="0.2"/>
<path d="M8.02084 9.26669H13.9791C14.2276 9.26669 14.4458 9.08142 14.4458 8.83335C14.4458 8.58529 14.2276 8.40002 13.9791 8.40002H8.02084C7.7723 8.40002 7.55417 8.58529 7.55417 8.83335C7.55417 9.08142 7.7723 9.26669 8.02084 9.26669Z" fill="white" stroke="white" stroke-width="0.2"/>
<path d="M13.9791 10.9H10.4958C10.2473 10.9 10.0292 11.0853 10.0292 11.3333C10.0292 11.5814 10.2473 11.7667 10.4958 11.7667H13.9791C14.2277 11.7667 14.4458 11.5814 14.4458 11.3333C14.4458 11.0853 14.2277 10.9 13.9791 10.9Z" fill="white" stroke="white" stroke-width="0.2"/>
</g>
<defs>
<clipPath id="clip0">
<rect width="22" height="20" fill="white"/>
</clipPath>
</defs>
</svg>
