<svg width="23" height="22" viewBox="0 0 23 22" fill="none" xmlns="http://www.w3.org/2000/svg">
<g clip-path="url(#clip0)">
<path d="M17.3804 20.7278L17.8194 17.8305L17.82 17.8306L17.82 17.8233L17.8278 16.5003L17.8281 16.45H17.7778H4.44444H4.39444V16.5V17.7222H4.39389L4.39499 17.7296L4.84308 20.7278H1.16111V4.93889H21.0611V20.7278H17.3804ZM12.0008 6.82341C11.7174 6.70477 11.4142 6.65318 11.1111 6.67212C10.808 6.65318 10.5048 6.70477 10.2214 6.82341C9.93693 6.94246 9.679 7.12623 9.46438 7.36232C9.24976 7.5984 9.08326 7.88149 8.97556 8.19284C8.86815 8.50337 8.82158 8.8352 8.83882 9.16667C8.82158 9.49814 8.86815 9.82996 8.97556 10.1405C9.08326 10.4518 9.24976 10.7349 9.46438 10.971C9.679 11.2071 9.93693 11.3909 10.2214 11.5099C10.5048 11.6286 10.808 11.6802 11.1111 11.6612C11.4142 11.6802 11.7174 11.6286 12.0008 11.5099C12.2853 11.3909 12.5432 11.2071 12.7578 10.971C12.9725 10.7349 13.139 10.4518 13.2467 10.1405C13.3541 9.82996 13.4006 9.49814 13.3834 9.16667C13.4006 8.8352 13.3541 8.50337 13.2467 8.19284C13.139 7.88149 12.9725 7.5984 12.7578 7.36232C12.5432 7.12623 12.2853 6.94246 12.0008 6.82341ZM12.1724 9.16234L12.1717 9.16228L12.1724 9.17099C12.1861 9.32876 12.1679 9.48785 12.1192 9.63681C12.0706 9.78577 11.9927 9.92069 11.8914 10.0321C11.7902 10.1434 11.6682 10.2284 11.5342 10.2814C11.4004 10.3343 11.2577 10.354 11.1163 10.3392L11.1164 10.3381L11.1059 10.3392C10.9645 10.354 10.8219 10.3343 10.688 10.2814C10.5541 10.2284 10.432 10.1434 10.3308 10.0321C10.2296 9.92069 10.1517 9.78577 10.103 9.63681C10.0543 9.48785 10.0361 9.32876 10.0498 9.17099L10.0506 9.17106L10.0498 9.16234C10.0361 9.00457 10.0543 8.84548 10.103 8.69652C10.1517 8.54757 10.2296 8.41264 10.3308 8.30127C10.432 8.18992 10.5541 8.1049 10.688 8.05195C10.8219 7.99901 10.9645 7.97933 11.1059 7.99417L11.1111 7.94444L11.1163 7.99417C11.2577 7.97933 11.4004 7.99901 11.5342 8.05195C11.6682 8.1049 11.7902 8.18992 11.8914 8.30127C11.9927 8.41264 12.0706 8.54757 12.1192 8.69652C12.1679 8.84548 12.1861 9.00457 12.1724 9.16234ZM15 15.9389H15.05V15.8889C15.05 14.7301 14.6828 13.7992 14.003 13.1582C13.3235 12.5176 12.3378 12.1722 11.1111 12.1722C9.88445 12.1722 8.89868 12.5176 8.21924 13.1582C7.53942 13.7992 7.17222 14.7301 7.17222 15.8889V15.9389H7.22222H8.33333H8.38333V15.8889C8.38333 14.8932 8.75437 14.2987 9.27481 13.9506C9.79881 13.6001 10.4815 13.4944 11.1111 13.4944C11.7407 13.4944 12.4234 13.6001 12.9474 13.9506C13.4678 14.2987 13.8389 14.8932 13.8389 15.8889V15.9389H13.8889H15ZM21.1111 -0.05H1.11111C0.801544 -0.05 0.505742 0.0853149 0.28844 0.324347C0.0712822 0.56322 -0.05 0.886265 -0.05 1.22222V20.7778C-0.05 21.1137 0.0712822 21.4368 0.28844 21.6757C0.505742 21.9147 0.801544 22.05 1.11111 22.05H21.1111C21.4207 22.05 21.7165 21.9147 21.9338 21.6757C22.1509 21.4368 22.2722 21.1137 22.2722 20.7778V1.22222C22.2722 0.886265 22.1509 0.56322 21.9338 0.324347C21.7165 0.0853149 21.4207 -0.05 21.1111 -0.05ZM21.0611 3.61667H1.16111V1.27222H21.0611V3.61667ZM6.06911 20.7278L5.62148 17.7722H16.6007L16.1531 20.7278H6.06911ZM2.27312 2.07897C2.20718 2.18752 2.17222 2.31469 2.17222 2.44444C2.17222 2.61833 2.23497 2.78593 2.34794 2.9102C2.46106 3.03463 2.61555 3.10556 2.77778 3.10556C2.89867 3.10556 3.01639 3.0661 3.11604 2.99285C3.21562 2.91966 3.29256 2.81615 3.33784 2.69593C3.3831 2.57572 3.39489 2.44367 3.37186 2.31633C3.34883 2.18897 3.29189 2.0714 3.20761 1.97869C3.12329 1.88593 3.01525 1.82214 2.89685 1.79623C2.77839 1.77031 2.65568 1.78367 2.54444 1.83435C2.43329 1.885 2.33907 1.97039 2.27312 2.07897ZM4.49534 2.07897C4.4294 2.18752 4.39444 2.31469 4.39444 2.44444C4.39444 2.61833 4.45719 2.78593 4.57017 2.9102C4.68328 3.03463 4.83778 3.10556 5 3.10556C5.12089 3.10556 5.23861 3.0661 5.33826 2.99285C5.43784 2.91966 5.51479 2.81615 5.56006 2.69593C5.60532 2.57572 5.61711 2.44367 5.59408 2.31633C5.57105 2.18897 5.51412 2.0714 5.42983 1.97869C5.34551 1.88593 5.23747 1.82214 5.11907 1.79623C5.00062 1.77031 4.8779 1.78367 4.76667 1.83435C4.65552 1.885 4.56129 1.97039 4.49534 2.07897Z" fill="white" stroke="white" stroke-width="0.1"/>
</g>
<defs>
<clipPath id="clip0">
<rect width="22.2222" height="22" fill="white"/>
</clipPath>
</defs>
</svg>
