<svg width="22" height="22" viewBox="0 0 22 22" fill="none" xmlns="http://www.w3.org/2000/svg">
<g clip-path="url(#clip0)">
<path d="M-0.1 2.47812H-0.084968C-0.0297211 1.86285 0.220055 1.2871 0.646449 0.821802L0.646466 0.821783C1.18371 0.235821 1.94719 -0.1 2.74194 -0.1H14.0002V-0.100077L14.0041 -0.0999241L14.2677 -0.0896301L14.3199 -0.0875931L14.348 -0.0436535L14.6242 0.387377L14.6527 0.43181L14.6321 0.480389L14.5354 0.708158C13.9038 2.19904 13.9022 3.51471 14.5171 4.74174L14.5171 4.7417L14.5188 4.74535L14.6325 4.9969L14.6549 5.04654L14.6254 5.0923L14.593 5.14246V9.30067C14.938 9.24237 15.2919 9.20855 15.6545 9.20855C19.2085 9.20855 22.1 12.1 22.1 15.6541C22.1 19.2085 19.2086 22.1 15.6545 22.1C13.6178 22.1 11.8033 21.1473 10.6216 19.6687H2.76925C1.18682 19.6687 -0.1 18.3814 -0.1 16.799V2.57812V2.47812ZM3.15507 2.01979H13.01C13.0571 1.68974 13.1301 1.35549 13.2341 1.01667H2.74194C2.25972 1.01667 1.7959 1.22064 1.46975 1.57641C1.13928 1.93691 0.980653 2.40557 1.02345 2.89754C1.09946 3.77144 1.90103 4.46677 2.86011 4.46677H13.2007C13.0613 4.03388 12.9826 3.58964 12.9581 3.13646H3.15507H3.05507V3.03646V2.11979V2.01979H3.15507ZM13.4763 5.58344H2.86011C2.16904 5.58344 1.5258 5.35051 1.01667 4.96123V16.799C1.01667 17.7656 1.80309 18.552 2.76925 18.552H9.8988C9.45799 17.6803 9.20855 16.6958 9.20855 15.6541C9.20855 12.8646 10.9924 10.49 13.4763 9.59445V5.58344ZM15.6545 10.3252C12.7158 10.3252 10.3252 12.7158 10.3252 15.6541C10.3252 18.5928 12.7158 20.9833 15.6545 20.9833C18.5928 20.9833 20.9833 18.5928 20.9833 15.6541C20.9833 12.7158 18.5928 10.3252 15.6545 10.3252Z" fill="white" stroke="white" stroke-width="0.2"/>
<path d="M17.605 14.9442L17.6757 14.8735L17.605 14.8028L16.9569 14.1547L16.8862 14.084L16.8155 14.1547L16.1053 14.8648V11.4584V11.3584H16.0053H15.0887H14.9887V11.4584V14.8648L14.2785 14.1547L14.2078 14.084L14.1371 14.1547L13.489 14.8028L13.4183 14.8735L13.489 14.9442L15.4763 16.9315L15.547 17.0022L15.6177 16.9315L17.605 14.9442Z" fill="white" stroke="white" stroke-width="0.2"/>
<path d="M17.702 16.2126V17.5087H13.3916V16.2126V16.1126H13.2916H12.3749H12.2749V16.2126V18.5253V18.6253H12.3749H18.7186H18.8186V18.5253V16.2126V16.1126H18.7186H17.802H17.702V16.2126Z" fill="white" stroke="white" stroke-width="0.2"/>
</g>
<defs>
<clipPath id="clip0">
<rect width="22" height="22" fill="white"/>
</clipPath>
</defs>
</svg>
