<svg width="24" height="22" viewBox="0 0 24 22" fill="none" xmlns="http://www.w3.org/2000/svg">
<g clip-path="url(#clip0)">
<path d="M0.29891 18.4062C0.40006 18.2692 0.569117 18.1834 0.751076 18.1834V18.2093C0.83273 18.1924 0.917797 18.1834 1.00534 18.1834H1.69551V6.7834C1.69551 5.67798 2.66985 4.80007 3.84059 4.80007C4.1316 4.80007 4.38961 5.01972 4.38961 5.31674C4.38961 5.61376 4.1316 5.8334 3.84059 5.8334C3.25122 5.8334 2.79354 6.27138 2.79354 6.7834V18.1834H7.34051C7.87891 18.1834 8.40556 18.35 8.82353 18.6557M0.29891 18.4062L8.73497 18.7768M0.29891 18.4062C-0.0574904 18.661 -0.246256 19.1011 -0.102233 19.5505L0.040583 19.5048L-0.10223 19.5506C0.0517683 20.0312 0.351058 20.6811 0.923981 21.2119C1.50027 21.7458 2.34385 22.15 3.56642 22.15H20.3746C21.5972 22.15 22.4407 21.7458 23.017 21.2119C23.5899 20.6811 23.8892 20.0313 24.0432 19.5506M8.82353 18.6557L8.73497 18.7768M8.82353 18.6557C8.82352 18.6557 8.82352 18.6557 8.82352 18.6557L8.73497 18.7768M8.82353 18.6557C9.05244 18.8231 9.34292 18.9167 9.64088 18.9167H14.3002C14.5989 18.9167 14.8862 18.8249 15.1091 18.6618L15.1091 18.6618C15.5321 18.3524 16.0616 18.1834 16.6006 18.1834H21.1475M8.73497 18.7768C8.99059 18.9637 9.31234 19.0667 9.64088 19.0667H14.3002C14.6287 19.0667 14.9474 18.9659 15.1977 18.7829C15.5939 18.493 16.0922 18.3334 16.6006 18.3334H21.1475V18.1834M21.1475 18.1834H21.2975V6.7834C21.2975 6.17685 20.7605 5.6834 20.1005 5.6834C19.8801 5.6834 19.7015 5.51923 19.7015 5.31674C19.7015 5.11425 19.8801 4.95007 20.1005 4.95007C21.2006 4.95007 22.0956 5.77251 22.0956 6.7834V18.1834H22.2456M21.1475 18.1834V6.7834C21.1475 6.27138 20.6899 5.8334 20.1005 5.8334C19.8095 5.8334 19.5515 5.61376 19.5515 5.31674C19.5515 5.01972 19.8095 4.80007 20.1005 4.80007C21.2712 4.80007 22.2456 5.67798 22.2456 6.7834V18.1834M22.2456 18.1834V18.3334H22.9357C23.6074 18.3334 24.0876 18.9208 23.9004 19.5048M22.2456 18.1834H22.9357C23.6892 18.1834 24.2673 18.8516 24.0432 19.5506M24.0432 19.5506C24.0432 19.5506 24.0432 19.5506 24.0432 19.5506L23.9004 19.5048M24.0432 19.5506L23.9004 19.5048M23.9004 19.5048C23.6018 20.4367 22.7468 22 20.3746 22H3.56642C1.19427 22 0.339179 20.4367 0.0406155 19.5048C-0.0527469 19.2134 0.0205508 18.9195 0.202062 18.6989M0.408833 18.5114C0.372789 18.5665 0.35206 18.6311 0.35206 18.7C0.35206 18.9025 0.53072 19.0667 0.751076 19.0667" fill="white" stroke="white" stroke-width="0.3"/>
<path d="M9.45231 15.3702L9.45236 15.3701L9.45441 15.3645L9.45456 15.3641C9.45591 15.3606 9.45876 15.3531 9.46145 15.344C9.46766 15.3232 9.47063 15.303 9.4725 15.2807C9.47588 15.2402 9.47719 15.1699 9.47779 15.0319C9.47843 14.884 9.47821 14.6507 9.47786 14.2784C9.47754 13.9447 9.47712 13.4992 9.47712 12.9032C9.47712 12.3185 9.00375 11.8417 8.39959 11.7747L8.39944 11.7747C8.11046 11.7429 7.82882 11.9314 7.79037 12.2243C7.75154 12.5202 7.98066 12.7687 8.27086 12.8009L8.27088 12.8009C8.34237 12.8088 8.37909 12.8609 8.37909 12.9032V13.9899L6.285 12.0655V1.13479C6.285 1.00794 6.40161 0.883332 6.57187 0.883332H17.4192C17.5895 0.883332 17.7061 1.00794 17.7061 1.13479V14.4485C17.7061 14.5754 17.5895 14.7 17.4192 14.7H11.0551C10.7641 14.7 10.5061 14.9196 10.5061 15.2166C10.5061 15.5137 10.7641 15.7333 11.0551 15.7333H17.4192C18.1708 15.7333 18.8041 15.1688 18.8041 14.4485V1.13479C18.8041 0.414543 18.1708 -0.15 17.4192 -0.15H6.57182C5.82025 -0.15 5.18691 0.41454 5.18691 1.13479V12.2833C5.18691 12.4246 5.24812 12.5573 5.35228 12.653L8.54441 15.5864C8.82956 15.8484 9.32762 15.7481 9.45231 15.3702Z" fill="white" stroke="white" stroke-width="0.3"/>
<path d="M12.2295 4.93019L12.2295 4.93017L14.3492 2.98226C14.5697 2.77964 14.5697 2.44546 14.3492 2.24285L14.3492 2.24283C14.136 2.04694 13.7952 2.04694 13.582 2.24283L13.582 2.24285L11.8458 3.83822L11.2569 3.29701L11.2569 3.297C11.0436 3.1011 10.7028 3.1011 10.4896 3.297L10.4896 3.29701C10.2691 3.49963 10.2691 3.83381 10.4896 4.03642L11.4622 4.93017C11.6755 5.12615 12.0162 5.12606 12.2295 4.93019Z" fill="white" stroke="white" stroke-width="0.3"/>
<path d="M8.1795 6.9667C8.1795 7.26372 8.43751 7.48337 8.72851 7.48337H15.2125C15.5035 7.48337 15.7615 7.26372 15.7615 6.9667C15.7615 6.66968 15.5035 6.45004 15.2125 6.45004H8.72851C8.43752 6.45004 8.1795 6.66962 8.1795 6.9667Z" fill="white" stroke="white" stroke-width="0.3"/>
<path d="M8.72851 10.2334H15.2125C15.5035 10.2334 15.7615 10.0137 15.7615 9.7167C15.7615 9.41968 15.5035 9.20004 15.2125 9.20004H8.72851C8.43751 9.20004 8.1795 9.41968 8.1795 9.7167C8.1795 10.0137 8.43751 10.2334 8.72851 10.2334Z" fill="white" stroke="white" stroke-width="0.3"/>
<path d="M15.2126 11.95H11.4219C11.1309 11.95 10.8729 12.1697 10.8729 12.4667C10.8729 12.7637 11.1309 12.9834 11.4219 12.9834H15.2126C15.5036 12.9834 15.7616 12.7637 15.7616 12.4667C15.7616 12.1697 15.5036 11.95 15.2126 11.95Z" fill="white" stroke="white" stroke-width="0.3"/>
</g>
<defs>
<clipPath id="clip0">
<rect width="23.9412" height="22" fill="white"/>
</clipPath>
</defs>
</svg>
