<svg width="28" height="23" viewBox="0 0 28 23" fill="none" xmlns="http://www.w3.org/2000/svg">
<g clip-path="url(#clip0)">
<path d="M7.78806 19.4688C8.06544 19.4688 8.2903 19.2424 8.2903 18.9631C8.2903 18.6838 8.06544 18.4573 7.78806 18.4573C7.51068 18.4573 7.28583 18.6838 7.28583 18.9631C7.28583 19.2424 7.51068 19.4688 7.78806 19.4688Z" fill="white"/>
<path fill-rule="evenodd" clip-rule="evenodd" d="M8.4903 18.9631C8.4903 19.3516 8.17721 19.6688 7.78806 19.6688C7.39891 19.6688 7.08583 19.3516 7.08583 18.9631C7.08583 18.5746 7.39891 18.2573 7.78806 18.2573C8.17721 18.2573 8.4903 18.5746 8.4903 18.9631ZM8.2903 18.9631C8.2903 19.2424 8.06544 19.4688 7.78806 19.4688C7.51068 19.4688 7.28583 19.2424 7.28583 18.9631C7.28583 18.6838 7.51068 18.4573 7.78806 18.4573C8.06544 18.4573 8.2903 18.6838 8.2903 18.9631Z" fill="white"/>
<path d="M26.7767 13.4006C26.6146 13.0327 26.3268 12.7348 25.965 12.5605C25.6033 12.3862 25.1914 12.347 24.8034 12.4499L17.546 14.5662C17.422 14.6072 17.3187 14.6947 17.2578 14.8105C17.1968 14.9262 17.1831 15.0611 17.2193 15.1868C17.2556 15.3125 17.3391 15.4192 17.4522 15.4845C17.5654 15.5499 17.6994 15.5687 17.8261 15.5371L25.0809 13.4208C25.2341 13.3869 25.3943 13.4063 25.5351 13.4757C25.6758 13.545 25.7889 13.6603 25.8556 13.8026L26.0878 14.3411C26.1459 14.4836 26.1525 14.642 26.1064 14.7888C26.0603 14.9356 25.9645 15.0617 25.8354 15.1452L15.7266 20.8265C15.5252 20.9235 15.3058 20.9772 15.0824 20.9842C14.859 20.9911 14.6367 20.9512 14.4296 20.867L9.93036 18.6066C9.81118 18.5517 9.67536 18.5455 9.55169 18.5893C9.42801 18.633 9.3262 18.7233 9.2678 18.841C9.20941 18.9586 9.19903 19.0945 9.23886 19.2197C9.2787 19.3449 9.36561 19.4496 9.4812 19.5117L13.9804 21.7721C14.3085 21.9271 14.6675 22.005 15.0302 21.9997C15.4463 22.0067 15.8573 21.9066 16.2238 21.7089L26.3351 16.0251C26.6805 15.8174 26.9392 15.4916 27.0635 15.1077C27.1878 14.7238 27.1693 14.3078 27.0113 13.9366L26.7767 13.4006Z" fill="white"/>
<path fill-rule="evenodd" clip-rule="evenodd" d="M26.9599 13.3204L27.1954 13.8583C27.3722 14.2739 27.3929 14.7396 27.2538 15.1693C27.1146 15.5991 26.8249 15.9639 26.4381 16.1965L26.4331 16.1995L16.3187 21.885C15.923 22.0984 15.4793 22.2067 15.03 22.1997C14.6378 22.205 14.2497 22.1206 13.895 21.953L13.8906 21.9509L9.3865 19.688C9.22507 19.6012 9.10384 19.4549 9.04828 19.2803C8.99272 19.1057 9.00719 18.9162 9.08865 18.752C9.17011 18.5879 9.31223 18.4618 9.48499 18.4007C9.65776 18.3396 9.8475 18.3483 10.014 18.4249L10.0202 18.4277L14.5121 20.6846C14.6912 20.7563 14.8833 20.7903 15.0762 20.7843C15.2696 20.7782 15.4596 20.7322 15.6343 20.649L25.7315 14.9742C25.819 14.916 25.884 14.8295 25.9156 14.7289C25.9475 14.6271 25.9432 14.5173 25.9033 14.4184L25.6733 13.8849C25.6257 13.7849 25.5458 13.7039 25.4466 13.6551C25.3484 13.6067 25.237 13.5925 25.13 13.6148L17.8746 15.7313C17.6975 15.7754 17.5103 15.749 17.3522 15.6578C17.1942 15.5665 17.0778 15.4176 17.0272 15.2422C16.9766 15.0669 16.9958 14.8788 17.0808 14.7173C17.1658 14.5558 17.31 14.4336 17.4832 14.3763L17.49 14.374L24.7521 12.2565C25.1862 12.1414 25.6471 12.1853 26.0518 12.3803C26.4565 12.5753 26.7786 12.9089 26.9599 13.3204ZM25.0809 13.4208C25.2341 13.3869 25.3943 13.4063 25.5351 13.4757C25.6758 13.545 25.7889 13.6603 25.8556 13.8026L26.0878 14.3411C26.1459 14.4836 26.1525 14.642 26.1064 14.7888C26.0603 14.9356 25.9645 15.0617 25.8354 15.1452L15.7266 20.8265C15.5252 20.9235 15.3058 20.9772 15.0824 20.9842C14.859 20.9911 14.6367 20.9512 14.4296 20.867L9.93036 18.6066C9.81118 18.5517 9.67536 18.5455 9.55169 18.5893C9.42801 18.633 9.3262 18.7233 9.2678 18.841C9.20941 18.9586 9.19903 19.0945 9.23886 19.2197C9.2787 19.3449 9.36561 19.4496 9.4812 19.5117L13.9804 21.7721C14.3085 21.9271 14.6675 22.005 15.0302 21.9997C15.4463 22.0067 15.8573 21.9066 16.2238 21.7089L26.3351 16.0251C26.6805 15.8174 26.9392 15.4916 27.0635 15.1077C27.1878 14.7238 27.1693 14.3078 27.0113 13.9366L26.7767 13.4006C26.6146 13.0327 26.3268 12.7348 25.965 12.5605C25.6033 12.3862 25.1914 12.347 24.8034 12.4499L17.546 14.5662C17.422 14.6072 17.3187 14.6947 17.2578 14.8105C17.1968 14.9262 17.1831 15.0611 17.2193 15.1868C17.2556 15.3125 17.3391 15.4192 17.4522 15.4845C17.5654 15.5499 17.6994 15.5687 17.8261 15.5371L25.0809 13.4208Z" fill="white"/>
<path d="M12.3125 12.8949C12.3304 12.8998 12.3481 12.9057 12.3655 12.9126L15.6358 16.6268C15.7315 16.7383 15.7842 16.8805 15.7842 17.0276C15.7842 17.1747 15.7315 17.3169 15.6358 17.4283L15.4289 17.6508C15.3857 17.6979 15.3335 17.7358 15.2754 17.7623C15.2173 17.7888 15.1545 17.8033 15.0907 17.8051C14.962 17.8046 14.8384 17.7548 14.745 17.666L12.8096 15.7899C12.7617 15.7434 12.7051 15.7069 12.6431 15.6823C12.5812 15.6577 12.5149 15.6456 12.4483 15.6466C12.3816 15.6477 12.3158 15.6619 12.2546 15.6884C12.1934 15.715 12.1381 15.7533 12.0917 15.8013C12.0453 15.8493 12.0088 15.9059 11.9842 15.9681C11.9597 16.0302 11.9476 16.0965 11.9487 16.1633C11.9497 16.2301 11.9639 16.2961 11.9904 16.3574C12.0169 16.4187 12.0551 16.4741 12.103 16.5206L14.041 18.3942C14.3164 18.6651 14.6871 18.8168 15.0731 18.8164H15.1311C15.3286 18.8117 15.5231 18.7672 15.703 18.6855C15.8829 18.6038 16.0446 18.4867 16.1783 18.3411L16.3853 18.1186C16.6532 17.822 16.8022 17.4366 16.8036 17.0366C16.805 16.6366 16.6587 16.2502 16.3928 15.9517L13.1124 12.24C12.9075 12.0227 12.6257 11.8947 12.3276 11.8835H6.52376V11.3779C6.51579 10.9688 6.34646 10.5795 6.05279 10.2952C5.75912 10.0109 5.36502 9.85471 4.95672 9.86081H2.56704C2.15855 9.85404 1.76407 10.01 1.47025 10.2945C1.17644 10.5789 1.0073 10.9686 1 11.3779V18.9631C1.0073 19.3724 1.17644 19.762 1.47025 20.0465C1.76407 20.3309 2.15855 20.4869 2.56704 20.4801H4.96176C5.37007 20.4862 5.76416 20.33 6.05783 20.0457C6.3515 19.7614 6.52084 19.3722 6.5288 18.9631V12.8949H12.3125ZM5.52449 18.9631C5.51602 19.1046 5.45218 19.2371 5.34683 19.3318C5.24147 19.4264 5.10311 19.4757 4.96176 19.4688H2.56704C2.42638 19.475 2.28894 19.4254 2.18454 19.3307C2.08015 19.236 2.0172 19.1039 2.00937 18.9631V11.3779C2.01719 11.2361 2.08084 11.1032 2.18634 11.0084C2.29184 10.9136 2.43058 10.8646 2.57209 10.8722H4.96176C5.10311 10.8653 5.24147 10.9145 5.34683 11.0092C5.45218 11.1038 5.51602 11.2363 5.52449 11.3779V18.9631Z" fill="white"/>
<path fill-rule="evenodd" clip-rule="evenodd" d="M15.4289 17.6508L15.6358 17.4283C15.7315 17.3169 15.7842 17.1747 15.7842 17.0276C15.7842 16.8805 15.7315 16.7383 15.6358 16.6268L12.3655 12.9126C12.3481 12.9057 12.3304 12.8998 12.3125 12.8949H6.52881V18.9631C6.52085 19.3722 6.35151 19.7614 6.05784 20.0457C5.76417 20.33 5.37008 20.4862 4.96177 20.4801H2.56705C2.15856 20.4869 1.76408 20.3309 1.47026 20.0465C1.17645 19.762 1.00731 19.3724 1.00001 18.9631V11.3779C1.00731 10.9686 1.17645 10.5789 1.47026 10.2945C1.76408 10.01 2.15856 9.85409 2.56705 9.86086H4.95673C5.36503 9.85476 5.75913 10.0109 6.0528 10.2952C6.34648 10.5795 6.5158 10.9688 6.52377 11.3779V11.8835H12.3276C12.6257 11.8947 12.9075 12.0227 13.1124 12.24L16.3928 15.9517C16.6587 16.2502 16.805 16.6366 16.8036 17.0366C16.8022 17.4366 16.6532 17.822 16.3853 18.1186L16.1783 18.3411C16.0446 18.4867 15.8829 18.6038 15.703 18.6855C15.5231 18.7672 15.3286 18.8117 15.1311 18.8164H15.0731C14.6871 18.8168 14.3164 18.6651 14.041 18.3942L12.103 16.5206C12.0551 16.4741 12.0169 16.4187 11.9904 16.3574C11.9639 16.2961 11.9497 16.2301 11.9487 16.1633C11.9476 16.0965 11.9597 16.0302 11.9842 15.9681C12.0088 15.9059 12.0453 15.8493 12.0917 15.8013C12.1381 15.7533 12.1934 15.715 12.2546 15.6884C12.3158 15.6619 12.3816 15.6477 12.4483 15.6466C12.5149 15.6456 12.5812 15.6577 12.6431 15.6823C12.7051 15.7069 12.7617 15.7434 12.8096 15.7899L14.745 17.666C14.8384 17.7548 14.962 17.8046 15.0907 17.8051C15.1545 17.8033 15.2173 17.7888 15.2754 17.7623C15.3335 17.7358 15.3857 17.6979 15.4289 17.6508ZM15.0884 17.605C15.1243 17.6037 15.1597 17.5953 15.1924 17.5803C15.2261 17.565 15.2564 17.543 15.2815 17.5156L15.2824 17.5146L15.4864 17.2953C15.5495 17.2205 15.5842 17.1257 15.5842 17.0276C15.5842 16.9286 15.5489 16.833 15.4848 16.758C15.4845 16.7577 15.4843 16.7574 15.4841 16.7571L12.2595 13.0949H6.72881V18.967C6.71983 19.4288 6.52862 19.8683 6.19695 20.1894C5.86564 20.5102 5.42107 20.6866 4.9603 20.6801H2.56864C2.10764 20.6873 1.66264 20.5111 1.33115 20.1902C0.999267 19.8689 0.808293 19.4288 0.800051 18.9666L0.799988 18.9631L0.800019 11.3743C0.808262 10.9121 0.999267 10.4721 1.33115 10.1508C1.66265 9.82989 2.10765 9.65367 2.56866 9.66086H4.95528C5.41604 9.65439 5.8606 9.83082 6.19191 10.1515C6.52357 10.4726 6.71475 10.9121 6.72373 11.374L6.7238 11.3779L6.72377 11.6835H12.3351C12.6857 11.6967 13.0171 11.8474 13.2579 12.1029L13.2623 12.1075L16.5422 15.8187C16.5423 15.8188 16.5421 15.8186 16.5422 15.8187C16.8406 16.154 17.0051 16.5882 17.0036 17.0373C17.002 17.4866 16.8347 17.9195 16.5337 18.2527L16.5317 18.2548L16.3256 18.4764C16.3255 18.4765 16.3258 18.4762 16.3256 18.4764C16.1738 18.6416 15.9899 18.7749 15.7857 18.8676C15.5812 18.9604 15.3603 19.011 15.1359 19.0164L15.1311 19.0165L15.0733 19.0164L15.0884 17.605ZM15.0884 17.605C15.0122 17.604 14.939 17.5743 14.8835 17.5217C14.8837 17.5218 14.8833 17.5215 14.8835 17.5217L12.9489 15.6464L15.0884 17.605ZM4.96177 19.4688C5.10312 19.4757 5.24148 19.4264 5.34684 19.3318C5.45219 19.2371 5.51603 19.1046 5.5245 18.9631V11.3779C5.51603 11.2363 5.45219 11.1038 5.34684 11.0092C5.24148 10.9145 5.10312 10.8653 4.96177 10.8722H2.5721C2.43059 10.8646 2.29185 10.9136 2.18635 11.0084C2.08085 11.1032 2.0172 11.2361 2.00938 11.3779V18.9631C2.01721 19.1039 2.08016 19.236 2.18455 19.3307C2.28895 19.4254 2.42639 19.475 2.56705 19.4688H4.96177ZM2.20938 18.9569C2.21546 19.0435 2.25471 19.1243 2.3189 19.1825C2.38429 19.2418 2.47029 19.2728 2.55824 19.269L2.56705 19.2686L4.97155 19.2688C5.06018 19.2731 5.14699 19.2425 5.21316 19.183C5.27803 19.1247 5.31792 19.0435 5.32449 18.9564V11.3845C5.31792 11.2974 5.27803 11.2162 5.21316 11.1579C5.14699 11.0985 5.06017 11.0676 4.97154 11.0719L4.96177 11.0724L2.56138 11.0722C2.4729 11.0674 2.38611 11.0978 2.32003 11.1571C2.25514 11.2155 2.21545 11.2968 2.20938 11.384V18.9569Z" fill="white"/>
<path d="M14.4624 8.21721C13.5756 8.46542 12.6748 8.66045 11.7649 8.80127C11.6591 8.81497 11.5604 8.86187 11.4829 8.93525C11.4054 9.00864 11.3531 9.10473 11.3335 9.20975C11.3139 9.31476 11.328 9.42331 11.3737 9.51981C11.4195 9.61631 11.4946 9.6958 11.5882 9.74689L15.8175 12.0755C15.8946 12.1183 15.9816 12.1401 16.0698 12.1387H16.1127C19.7262 11.8201 24.069 9.40809 26.87 7.60533C26.5831 7.39484 26.3108 7.16507 26.055 6.9176C23.36 8.61417 19.4033 10.7709 16.1632 11.1248L13.3193 9.54715C13.8745 9.42831 14.5659 9.26144 15.338 9.04147C15.0174 8.79906 14.7238 8.52271 14.4624 8.21721Z" fill="white"/>
<path fill-rule="evenodd" clip-rule="evenodd" d="M16.1127 12.1388H16.0698C15.9816 12.1402 15.8946 12.1184 15.8175 12.0756L11.5882 9.74694C11.4946 9.69585 11.4195 9.61636 11.3737 9.51986C11.328 9.42336 11.3139 9.31482 11.3335 9.20981C11.3531 9.10478 11.4054 9.0087 11.4829 8.93531C11.5604 8.86193 11.6591 8.81502 11.7649 8.80132C12.6748 8.6605 13.5756 8.46547 14.4624 8.21726C14.6703 8.4602 14.8985 8.6847 15.1445 8.88836C15.2079 8.94081 15.2724 8.99188 15.338 9.04152C15.2573 9.06451 15.1775 9.08693 15.0986 9.10877C14.5513 9.26028 14.0496 9.38414 13.6145 9.48229C13.5124 9.50534 13.4139 9.52696 13.3193 9.5472L16.1632 11.1249C19.4033 10.771 23.36 8.61423 26.055 6.91765C26.2597 7.11571 26.475 7.30242 26.6999 7.47698C26.756 7.52055 26.8127 7.56334 26.87 7.60538C26.8107 7.64359 26.7506 7.68207 26.6899 7.72081C23.8853 9.50945 19.6497 11.827 16.1127 12.1388ZM16.2043 10.919C19.3822 10.5497 23.2701 8.43445 25.9484 6.7484L26.0812 6.66479L26.194 6.7739C26.4433 7.01507 26.7087 7.239 26.9883 7.44412L27.2228 7.61616L26.9783 7.77356C25.5731 8.67798 23.7785 9.73694 21.8797 10.6104C19.9831 11.4827 17.97 12.1759 16.1303 12.3381L16.1215 12.3388H16.0712C15.9488 12.3405 15.828 12.3101 15.7208 12.2507C15.7207 12.2506 15.7209 12.2508 15.7208 12.2507L11.4925 9.92252C11.4923 9.92244 11.4926 9.9226 11.4925 9.92252C11.3619 9.85116 11.2568 9.74006 11.193 9.60556C11.1292 9.47094 11.1096 9.31955 11.1369 9.17308C11.1643 9.02661 11.2372 8.89252 11.3454 8.79008C11.453 8.68825 11.5898 8.6229 11.7365 8.60333C12.6379 8.46375 13.5301 8.27052 14.4085 8.02466L14.4624 8.21726L14.6144 8.08722C14.8665 8.3818 15.1495 8.64827 15.4587 8.88199L15.7787 9.12394L15.3928 9.23386C14.8395 9.3915 14.3272 9.52208 13.8762 9.62742L16.2043 10.919Z" fill="white"/>
<path d="M18.6159 9.10224C19.515 9.10574 20.3949 8.8418 21.1442 8.34385C21.8935 7.8459 22.4784 7.13634 22.8249 6.30505C23.1714 5.47375 23.2639 4.55812 23.0906 3.67412C22.9174 2.79012 22.4862 1.97753 21.8516 1.33927C21.2171 0.701015 20.4078 0.2658 19.5263 0.0887546C18.6447 -0.0882912 17.7305 0.000796944 16.8995 0.344735C16.0685 0.688674 15.3581 1.27199 14.8582 2.0208C14.3583 2.76961 14.0915 3.65022 14.0915 4.5511C14.0915 5.75508 14.5676 6.91 15.4156 7.763C16.2636 8.616 17.4144 9.09756 18.6159 9.10224ZM18.6159 1.01133C19.3152 1.00883 19.9995 1.2143 20.5821 1.60173C21.1647 1.98917 21.6195 2.54112 21.8888 3.18771C22.1581 3.83429 22.2299 4.54642 22.095 5.2339C21.9601 5.92138 21.6246 6.55328 21.1311 7.0496C20.6375 7.54591 20.0081 7.88429 19.3224 8.02191C18.6368 8.15952 17.9258 8.09016 17.2796 7.82262C16.6333 7.55508 16.0808 7.10139 15.6921 6.519C15.3033 5.93662 15.0958 5.25174 15.0958 4.5511C15.0958 3.61448 15.4662 2.71604 16.126 2.05257C16.7858 1.38909 17.6812 1.01468 18.6159 1.01133Z" fill="white"/>
<path d="M18.8885 5.59285C18.811 5.6199 18.7289 5.63114 18.647 5.62593C18.5651 5.62072 18.485 5.59916 18.4115 5.56251C18.3395 5.53331 18.2743 5.48948 18.22 5.43378C18.1657 5.37808 18.1236 5.31172 18.0961 5.23887C18.0533 5.11079 17.9614 5.00501 17.8408 4.94479C17.7201 4.88457 17.5805 4.87485 17.4527 4.91777C17.3248 4.96068 17.2192 5.05272 17.1591 5.17363C17.099 5.29455 17.0893 5.43443 17.1322 5.56251C17.204 5.76726 17.3173 5.95493 17.465 6.11374C17.6126 6.27255 17.7914 6.39907 17.9901 6.48538L18.1113 6.53089V6.82671C18.1113 6.96083 18.1644 7.08945 18.2591 7.18429C18.3537 7.27912 18.4821 7.3324 18.6159 7.3324C18.7498 7.3324 18.8782 7.27912 18.9728 7.18429C19.0675 7.08945 19.1206 6.96083 19.1206 6.82671V6.57387C19.1782 6.5571 19.2346 6.53684 19.2897 6.51319C19.5615 6.40724 19.7838 6.20307 19.9127 5.94095C20.0417 5.67883 20.0679 5.37781 19.9862 5.09728C19.7843 4.45001 19.2115 4.28061 18.7926 4.15924C18.5554 4.09098 18.3333 4.02524 18.2627 3.9064C18.2423 3.87151 18.2315 3.8318 18.2315 3.79136C18.2315 3.75092 18.2423 3.71121 18.2627 3.67632C18.3434 3.5499 18.5932 3.51956 18.7901 3.55748C18.871 3.57706 18.9458 3.61639 19.0079 3.67198C19.07 3.72756 19.1174 3.79767 19.1459 3.87606C19.1583 3.9452 19.185 4.01098 19.2243 4.0692C19.2636 4.12742 19.3145 4.17681 19.3738 4.21421C19.4332 4.25161 19.4997 4.27621 19.5691 4.28643C19.6385 4.29665 19.7092 4.29228 19.7768 4.27358C19.8444 4.25488 19.9074 4.22228 19.9617 4.17784C20.016 4.13341 20.0605 4.07812 20.0923 4.0155C20.1241 3.95289 20.1425 3.88431 20.1464 3.81416C20.1503 3.74401 20.1395 3.67381 20.1149 3.60805C20.0447 3.37186 19.9183 3.15633 19.7463 2.98012C19.5744 2.8039 19.3623 2.6723 19.1282 2.59669V2.27558C19.1282 2.14146 19.075 2.01284 18.9804 1.91801C18.8857 1.82317 18.7574 1.7699 18.6235 1.7699C18.4897 1.7699 18.3613 1.82317 18.2667 1.91801C18.172 2.01284 18.1188 2.14146 18.1188 2.27558V2.61439C17.936 2.6636 17.7672 2.755 17.6259 2.88127C17.4846 3.00754 17.3747 3.16517 17.3051 3.34158C17.2354 3.51799 17.2079 3.70827 17.2248 3.89722C17.2417 4.08618 17.3024 4.26855 17.4022 4.42978C17.6747 4.88995 18.1415 5.02649 18.515 5.13521C18.8885 5.24393 18.9945 5.29197 19.0197 5.40322C19.0449 5.51447 18.8885 5.59285 18.8885 5.59285Z" fill="white"/>
</g>
<defs>
<clipPath id="clip0">
<rect width="28" height="23" fill="white"/>
</clipPath>
</defs>
</svg>
