<svg width="21" height="21" viewBox="0 0 21 21" fill="none" xmlns="http://www.w3.org/2000/svg">
<g clip-path="url(#clip0)">
<mask id="path-1-outside-1" maskUnits="userSpaceOnUse" x="-1" y="-0.299988" width="22" height="21" fill="black">
<rect fill="white" x="-1" y="-0.299988" width="22" height="21"/>
<path d="M19.6434 6.05501L18.4125 5.55101C18.268 5.49032 18.148 5.38655 18.0704 5.25526C18.6912 4.86788 19.0658 4.20799 19.0667 3.50001V2.80001C19.0667 1.64021 18.0817 0.700012 16.8667 0.700012C15.6516 0.700012 14.6667 1.64021 14.6667 2.80001V3.50001C14.6674 4.20811 15.042 4.86816 15.6629 5.25561C15.5855 5.38679 15.4658 5.49054 15.3215 5.55136L14.0899 6.05501C14.0056 6.09046 13.9249 6.13335 13.849 6.18311C13.7146 5.81088 13.4216 5.51023 13.0423 5.35536L11.8114 4.85136C11.6669 4.79067 11.5469 4.6869 11.4693 4.55561C12.0907 4.16841 12.4657 4.50831 12.4667 3.80001V3.10001C12.4667 1.94021 11.4817 1.00001 10.2667 1.00001C9.05164 1.00001 8.06667 1.94021 8.06667 3.10001V3.80001C8.06743 4.50811 8.44198 4.16816 9.0629 4.55561C8.98554 4.68679 8.86579 4.79054 8.72153 4.85136L7.4899 5.35501C7.11073 5.51033 6.81782 5.81115 6.68323 6.18346C6.60755 6.1335 6.527 6.0906 6.4427 6.05536L5.2118 5.55136C5.06728 5.49067 4.94725 5.3869 4.8697 5.25561C5.4909 4.86833 5.86575 4.20825 5.86667 3.50001V2.80001C5.86667 1.64021 4.88169 0.700012 3.66667 0.700012C2.45164 0.700012 1.46667 1.64021 1.46667 2.80001V3.50001C1.46743 4.20811 1.84198 4.86816 2.4629 5.25561C2.38554 5.38679 2.26579 5.49054 2.12153 5.55136L0.8899 6.05501C0.349827 6.27551 -0.000333608 6.78231 2.38509e-07 7.34301V9.51837C2.38509e-07 9.90497 0.328325 10.2184 0.733334 10.2184H1.46667C1.87168 10.2184 2.2 9.90497 2.2 9.51837V8.99337C2.2 8.80007 2.03584 8.64337 1.83333 8.64337C1.63083 8.64337 1.46667 8.80007 1.46667 8.99337V9.51837H0.733334V7.34301C0.733051 7.06249 0.908236 6.80891 1.17847 6.69866L2.41083 6.19501C2.72756 6.06443 2.98593 5.83144 3.1405 5.53701C3.4857 5.62148 3.84764 5.62148 4.19283 5.53701C4.34759 5.83156 4.60623 6.06456 4.92323 6.19501L6.15487 6.69936C6.42485 6.80951 6.59999 7.06275 6.6 7.34301V11.2H5.86667V11.5774C5.86667 11.1908 5.53834 10.8774 5.13333 10.8774H3.66667C3.26166 10.8774 2.93333 11.1908 2.93333 11.5774V13.8366C2.93333 17.6435 6.0962 19.8548 9.98397 19.9948C10.0793 19.9983 10.1745 20 10.2696 20C14.3166 19.994 17.5954 17.8631 17.6 14V11.5774C17.6 11.1908 17.2717 10.8774 16.8667 10.8774H15.4C14.995 10.8774 14.6667 11.1908 14.6667 11.5774V11.2H13.9333V7.34301C13.9331 7.06249 14.1082 6.80891 14.3785 6.69866L15.6108 6.19466C15.9276 6.06408 16.1859 5.83109 16.3405 5.53666C16.6857 5.62113 17.0476 5.62113 17.3928 5.53666C17.5476 5.83121 17.8062 6.06421 18.1232 6.19466L19.3549 6.69901C19.625 6.80921 19.8001 7.06262 19.8 7.34301V9.88751H19.0667V9.28048C19.0667 9.08718 18.9025 8.93048 18.7 8.93048C18.4975 8.93048 18.3333 9.08718 18.3333 9.28048V9.88751C18.3333 10.2741 18.6617 10.5875 19.0667 10.5875H19.8C20.205 10.5875 20.5333 10.2741 20.5333 9.88751V7.34301C20.5337 6.78231 20.1835 6.27551 19.6434 6.05501ZM2.2 3.50001V2.80001C2.2 2.02681 2.85665 1.40001 3.66667 1.40001C4.47668 1.40001 5.13333 2.02681 5.13333 2.80001V3.50001C5.13333 4.27321 4.47668 4.90001 3.66667 4.90001C2.85665 4.90001 2.2 4.27321 2.2 3.50001ZM8.8 3.10001C8.8 2.32681 9.45665 1.70001 10.2667 1.70001C11.0767 1.70001 11.7333 2.32681 11.7333 3.10001V3.80001C11.7333 4.57321 11.0767 4.20001 10.2667 4.20001C9.45665 4.20001 8.8 4.57321 8.8 3.80001V3.10001ZM5.13333 11.5774V10.8637H3.66667V11.5774H5.13333ZM14.8416 17.5367C13.5518 18.7293 11.8061 19.365 10.0118 19.2955C6.5131 19.1691 3.66667 17.2718 3.66667 13.8366V11.5637H5.13333V13.8681C5.09334 16.5171 7.23987 17.7292 10.01 17.8937C11.4139 17.9596 12.7847 17.4736 13.8031 16.5489C14.8216 15.6243 15.3987 15.3417 15.4 14V11.5637H16.8667L16.8667 14C16.8718 15.7133 16.1397 16.3535 14.8416 17.5367ZM16.8667 11.5774V10.8637H15.4V11.5774H16.8667ZM14.6667 11.9V14C14.6653 15.1503 14.1703 15.2498 13.2969 16.0424C12.4235 16.835 11.2481 17.2513 10.0445 17.1944C7.66569 17.0472 5.82704 16.1432 5.86667 13.8681V11.9H6.6C7.00501 11.9 7.33333 11.5866 7.33333 11.2H8.06667C8.47168 11.2 8.8 10.8866 8.8 10.5V9.81095C8.8 9.61765 8.63584 9.46095 8.43333 9.46095C8.23083 9.46095 8.06667 9.61765 8.06667 9.81095V10.5H7.33333V6.64301C7.33305 6.36249 7.50824 6.10891 7.77847 5.99866L9.01083 5.49466C9.32756 5.36408 9.58593 5.13109 9.7405 4.83666C10.0857 4.92113 10.4476 4.92113 10.7928 4.83666C10.9476 5.13121 11.2062 5.36421 11.5232 5.49466L12.7549 5.99901C13.025 6.10921 13.2001 6.36262 13.2 6.64301V10.5H12.4667V9.81095C12.4667 9.61765 12.3025 9.46095 12.1 9.46095C11.8975 9.46095 11.7333 9.61765 11.7333 9.81095V10.5C11.7333 10.8866 12.0617 11.2 12.4667 11.2H13.2C13.2 11.5866 13.5283 11.9 13.9333 11.9H14.6667ZM15.4 3.50001V2.80001C15.4 2.02681 16.0566 1.40001 16.8667 1.40001C17.6767 1.40001 18.3333 2.02681 18.3333 2.80001V3.50001C18.3333 4.27321 17.6767 4.90001 16.8667 4.90001C16.0566 4.90001 15.4 4.27321 15.4 3.50001Z"/>
</mask>
<path d="M19.6434 6.05501L18.4125 5.55101C18.268 5.49032 18.148 5.38655 18.0704 5.25526C18.6912 4.86788 19.0658 4.20799 19.0667 3.50001V2.80001C19.0667 1.64021 18.0817 0.700012 16.8667 0.700012C15.6516 0.700012 14.6667 1.64021 14.6667 2.80001V3.50001C14.6674 4.20811 15.042 4.86816 15.6629 5.25561C15.5855 5.38679 15.4658 5.49054 15.3215 5.55136L14.0899 6.05501C14.0056 6.09046 13.9249 6.13335 13.849 6.18311C13.7146 5.81088 13.4216 5.51023 13.0423 5.35536L11.8114 4.85136C11.6669 4.79067 11.5469 4.6869 11.4693 4.55561C12.0907 4.16841 12.4657 4.50831 12.4667 3.80001V3.10001C12.4667 1.94021 11.4817 1.00001 10.2667 1.00001C9.05164 1.00001 8.06667 1.94021 8.06667 3.10001V3.80001C8.06743 4.50811 8.44198 4.16816 9.0629 4.55561C8.98554 4.68679 8.86579 4.79054 8.72153 4.85136L7.4899 5.35501C7.11073 5.51033 6.81782 5.81115 6.68323 6.18346C6.60755 6.1335 6.527 6.0906 6.4427 6.05536L5.2118 5.55136C5.06728 5.49067 4.94725 5.3869 4.8697 5.25561C5.4909 4.86833 5.86575 4.20825 5.86667 3.50001V2.80001C5.86667 1.64021 4.88169 0.700012 3.66667 0.700012C2.45164 0.700012 1.46667 1.64021 1.46667 2.80001V3.50001C1.46743 4.20811 1.84198 4.86816 2.4629 5.25561C2.38554 5.38679 2.26579 5.49054 2.12153 5.55136L0.8899 6.05501C0.349827 6.27551 -0.000333608 6.78231 2.38509e-07 7.34301V9.51837C2.38509e-07 9.90497 0.328325 10.2184 0.733334 10.2184H1.46667C1.87168 10.2184 2.2 9.90497 2.2 9.51837V8.99337C2.2 8.80007 2.03584 8.64337 1.83333 8.64337C1.63083 8.64337 1.46667 8.80007 1.46667 8.99337V9.51837H0.733334V7.34301C0.733051 7.06249 0.908236 6.80891 1.17847 6.69866L2.41083 6.19501C2.72756 6.06443 2.98593 5.83144 3.1405 5.53701C3.4857 5.62148 3.84764 5.62148 4.19283 5.53701C4.34759 5.83156 4.60623 6.06456 4.92323 6.19501L6.15487 6.69936C6.42485 6.80951 6.59999 7.06275 6.6 7.34301V11.2H5.86667V11.5774C5.86667 11.1908 5.53834 10.8774 5.13333 10.8774H3.66667C3.26166 10.8774 2.93333 11.1908 2.93333 11.5774V13.8366C2.93333 17.6435 6.0962 19.8548 9.98397 19.9948C10.0793 19.9983 10.1745 20 10.2696 20C14.3166 19.994 17.5954 17.8631 17.6 14V11.5774C17.6 11.1908 17.2717 10.8774 16.8667 10.8774H15.4C14.995 10.8774 14.6667 11.1908 14.6667 11.5774V11.2H13.9333V7.34301C13.9331 7.06249 14.1082 6.80891 14.3785 6.69866L15.6108 6.19466C15.9276 6.06408 16.1859 5.83109 16.3405 5.53666C16.6857 5.62113 17.0476 5.62113 17.3928 5.53666C17.5476 5.83121 17.8062 6.06421 18.1232 6.19466L19.3549 6.69901C19.625 6.80921 19.8001 7.06262 19.8 7.34301V9.88751H19.0667V9.28048C19.0667 9.08718 18.9025 8.93048 18.7 8.93048C18.4975 8.93048 18.3333 9.08718 18.3333 9.28048V9.88751C18.3333 10.2741 18.6617 10.5875 19.0667 10.5875H19.8C20.205 10.5875 20.5333 10.2741 20.5333 9.88751V7.34301C20.5337 6.78231 20.1835 6.27551 19.6434 6.05501ZM2.2 3.50001V2.80001C2.2 2.02681 2.85665 1.40001 3.66667 1.40001C4.47668 1.40001 5.13333 2.02681 5.13333 2.80001V3.50001C5.13333 4.27321 4.47668 4.90001 3.66667 4.90001C2.85665 4.90001 2.2 4.27321 2.2 3.50001ZM8.8 3.10001C8.8 2.32681 9.45665 1.70001 10.2667 1.70001C11.0767 1.70001 11.7333 2.32681 11.7333 3.10001V3.80001C11.7333 4.57321 11.0767 4.20001 10.2667 4.20001C9.45665 4.20001 8.8 4.57321 8.8 3.80001V3.10001ZM5.13333 11.5774V10.8637H3.66667V11.5774H5.13333ZM14.8416 17.5367C13.5518 18.7293 11.8061 19.365 10.0118 19.2955C6.5131 19.1691 3.66667 17.2718 3.66667 13.8366V11.5637H5.13333V13.8681C5.09334 16.5171 7.23987 17.7292 10.01 17.8937C11.4139 17.9596 12.7847 17.4736 13.8031 16.5489C14.8216 15.6243 15.3987 15.3417 15.4 14V11.5637H16.8667L16.8667 14C16.8718 15.7133 16.1397 16.3535 14.8416 17.5367ZM16.8667 11.5774V10.8637H15.4V11.5774H16.8667ZM14.6667 11.9V14C14.6653 15.1503 14.1703 15.2498 13.2969 16.0424C12.4235 16.835 11.2481 17.2513 10.0445 17.1944C7.66569 17.0472 5.82704 16.1432 5.86667 13.8681V11.9H6.6C7.00501 11.9 7.33333 11.5866 7.33333 11.2H8.06667C8.47168 11.2 8.8 10.8866 8.8 10.5V9.81095C8.8 9.61765 8.63584 9.46095 8.43333 9.46095C8.23083 9.46095 8.06667 9.61765 8.06667 9.81095V10.5H7.33333V6.64301C7.33305 6.36249 7.50824 6.10891 7.77847 5.99866L9.01083 5.49466C9.32756 5.36408 9.58593 5.13109 9.7405 4.83666C10.0857 4.92113 10.4476 4.92113 10.7928 4.83666C10.9476 5.13121 11.2062 5.36421 11.5232 5.49466L12.7549 5.99901C13.025 6.10921 13.2001 6.36262 13.2 6.64301V10.5H12.4667V9.81095C12.4667 9.61765 12.3025 9.46095 12.1 9.46095C11.8975 9.46095 11.7333 9.61765 11.7333 9.81095V10.5C11.7333 10.8866 12.0617 11.2 12.4667 11.2H13.2C13.2 11.5866 13.5283 11.9 13.9333 11.9H14.6667ZM15.4 3.50001V2.80001C15.4 2.02681 16.0566 1.40001 16.8667 1.40001C17.6767 1.40001 18.3333 2.02681 18.3333 2.80001V3.50001C18.3333 4.27321 17.6767 4.90001 16.8667 4.90001C16.0566 4.90001 15.4 4.27321 15.4 3.50001Z" fill="white"/>
<path d="M19.6434 6.05501L18.4125 5.55101C18.268 5.49032 18.148 5.38655 18.0704 5.25526C18.6912 4.86788 19.0658 4.20799 19.0667 3.50001V2.80001C19.0667 1.64021 18.0817 0.700012 16.8667 0.700012C15.6516 0.700012 14.6667 1.64021 14.6667 2.80001V3.50001C14.6674 4.20811 15.042 4.86816 15.6629 5.25561C15.5855 5.38679 15.4658 5.49054 15.3215 5.55136L14.0899 6.05501C14.0056 6.09046 13.9249 6.13335 13.849 6.18311C13.7146 5.81088 13.4216 5.51023 13.0423 5.35536L11.8114 4.85136C11.6669 4.79067 11.5469 4.6869 11.4693 4.55561C12.0907 4.16841 12.4657 4.50831 12.4667 3.80001V3.10001C12.4667 1.94021 11.4817 1.00001 10.2667 1.00001C9.05164 1.00001 8.06667 1.94021 8.06667 3.10001V3.80001C8.06743 4.50811 8.44198 4.16816 9.0629 4.55561C8.98554 4.68679 8.86579 4.79054 8.72153 4.85136L7.4899 5.35501C7.11073 5.51033 6.81782 5.81115 6.68323 6.18346C6.60755 6.1335 6.527 6.0906 6.4427 6.05536L5.2118 5.55136C5.06728 5.49067 4.94725 5.3869 4.8697 5.25561C5.4909 4.86833 5.86575 4.20825 5.86667 3.50001V2.80001C5.86667 1.64021 4.88169 0.700012 3.66667 0.700012C2.45164 0.700012 1.46667 1.64021 1.46667 2.80001V3.50001C1.46743 4.20811 1.84198 4.86816 2.4629 5.25561C2.38554 5.38679 2.26579 5.49054 2.12153 5.55136L0.8899 6.05501C0.349827 6.27551 -0.000333608 6.78231 2.38509e-07 7.34301V9.51837C2.38509e-07 9.90497 0.328325 10.2184 0.733334 10.2184H1.46667C1.87168 10.2184 2.2 9.90497 2.2 9.51837V8.99337C2.2 8.80007 2.03584 8.64337 1.83333 8.64337C1.63083 8.64337 1.46667 8.80007 1.46667 8.99337V9.51837H0.733334V7.34301C0.733051 7.06249 0.908236 6.80891 1.17847 6.69866L2.41083 6.19501C2.72756 6.06443 2.98593 5.83144 3.1405 5.53701C3.4857 5.62148 3.84764 5.62148 4.19283 5.53701C4.34759 5.83156 4.60623 6.06456 4.92323 6.19501L6.15487 6.69936C6.42485 6.80951 6.59999 7.06275 6.6 7.34301V11.2H5.86667V11.5774C5.86667 11.1908 5.53834 10.8774 5.13333 10.8774H3.66667C3.26166 10.8774 2.93333 11.1908 2.93333 11.5774V13.8366C2.93333 17.6435 6.0962 19.8548 9.98397 19.9948C10.0793 19.9983 10.1745 20 10.2696 20C14.3166 19.994 17.5954 17.8631 17.6 14V11.5774C17.6 11.1908 17.2717 10.8774 16.8667 10.8774H15.4C14.995 10.8774 14.6667 11.1908 14.6667 11.5774V11.2H13.9333V7.34301C13.9331 7.06249 14.1082 6.80891 14.3785 6.69866L15.6108 6.19466C15.9276 6.06408 16.1859 5.83109 16.3405 5.53666C16.6857 5.62113 17.0476 5.62113 17.3928 5.53666C17.5476 5.83121 17.8062 6.06421 18.1232 6.19466L19.3549 6.69901C19.625 6.80921 19.8001 7.06262 19.8 7.34301V9.88751H19.0667V9.28048C19.0667 9.08718 18.9025 8.93048 18.7 8.93048C18.4975 8.93048 18.3333 9.08718 18.3333 9.28048V9.88751C18.3333 10.2741 18.6617 10.5875 19.0667 10.5875H19.8C20.205 10.5875 20.5333 10.2741 20.5333 9.88751V7.34301C20.5337 6.78231 20.1835 6.27551 19.6434 6.05501ZM2.2 3.50001V2.80001C2.2 2.02681 2.85665 1.40001 3.66667 1.40001C4.47668 1.40001 5.13333 2.02681 5.13333 2.80001V3.50001C5.13333 4.27321 4.47668 4.90001 3.66667 4.90001C2.85665 4.90001 2.2 4.27321 2.2 3.50001ZM8.8 3.10001C8.8 2.32681 9.45665 1.70001 10.2667 1.70001C11.0767 1.70001 11.7333 2.32681 11.7333 3.10001V3.80001C11.7333 4.57321 11.0767 4.20001 10.2667 4.20001C9.45665 4.20001 8.8 4.57321 8.8 3.80001V3.10001ZM5.13333 11.5774V10.8637H3.66667V11.5774H5.13333ZM14.8416 17.5367C13.5518 18.7293 11.8061 19.365 10.0118 19.2955C6.5131 19.1691 3.66667 17.2718 3.66667 13.8366V11.5637H5.13333V13.8681C5.09334 16.5171 7.23987 17.7292 10.01 17.8937C11.4139 17.9596 12.7847 17.4736 13.8031 16.5489C14.8216 15.6243 15.3987 15.3417 15.4 14V11.5637H16.8667L16.8667 14C16.8718 15.7133 16.1397 16.3535 14.8416 17.5367ZM16.8667 11.5774V10.8637H15.4V11.5774H16.8667ZM14.6667 11.9V14C14.6653 15.1503 14.1703 15.2498 13.2969 16.0424C12.4235 16.835 11.2481 17.2513 10.0445 17.1944C7.66569 17.0472 5.82704 16.1432 5.86667 13.8681V11.9H6.6C7.00501 11.9 7.33333 11.5866 7.33333 11.2H8.06667C8.47168 11.2 8.8 10.8866 8.8 10.5V9.81095C8.8 9.61765 8.63584 9.46095 8.43333 9.46095C8.23083 9.46095 8.06667 9.61765 8.06667 9.81095V10.5H7.33333V6.64301C7.33305 6.36249 7.50824 6.10891 7.77847 5.99866L9.01083 5.49466C9.32756 5.36408 9.58593 5.13109 9.7405 4.83666C10.0857 4.92113 10.4476 4.92113 10.7928 4.83666C10.9476 5.13121 11.2062 5.36421 11.5232 5.49466L12.7549 5.99901C13.025 6.10921 13.2001 6.36262 13.2 6.64301V10.5H12.4667V9.81095C12.4667 9.61765 12.3025 9.46095 12.1 9.46095C11.8975 9.46095 11.7333 9.61765 11.7333 9.81095V10.5C11.7333 10.8866 12.0617 11.2 12.4667 11.2H13.2C13.2 11.5866 13.5283 11.9 13.9333 11.9H14.6667ZM15.4 3.50001V2.80001C15.4 2.02681 16.0566 1.40001 16.8667 1.40001C17.6767 1.40001 18.3333 2.02681 18.3333 2.80001V3.50001C18.3333 4.27321 17.6767 4.90001 16.8667 4.90001C16.0566 4.90001 15.4 4.27321 15.4 3.50001Z" stroke="white" stroke-width="0.6" mask="url(#path-1-outside-1)"/>
</g>
<defs>
<clipPath id="clip0">
<rect width="20.5333" height="21" fill="white"/>
</clipPath>
</defs>
</svg>
