<svg width="22" height="22" viewBox="0 0 22 22" fill="none" xmlns="http://www.w3.org/2000/svg">
<g clip-path="url(#clip0)">
<path d="M21.6 11.9168H16.4757C16.3709 10.6538 15.8945 9.72483 15.1587 9.04044C14.4956 8.42377 13.6301 8.01339 12.6588 7.72835C13.8836 7.1335 14.73 5.90706 14.73 4.48207C14.73 2.47537 13.0507 0.85 10.996 0.85C8.94127 0.85 7.262 2.47537 7.262 4.48207C7.262 5.90629 8.1076 7.13575 9.33202 7.72871C8.36135 8.01374 7.49716 8.42405 6.83481 9.04048C6.09941 9.72488 5.62314 10.6538 5.51654 11.9168H0.4C0.101266 11.9168 -0.15 12.1548 -0.15 12.4554V14.9659C-0.15 15.2665 0.101266 15.5045 0.4 15.5045H1.094V21.6114C1.094 21.912 1.34527 22.15 1.644 22.15H20.356C20.6547 22.15 20.906 21.912 20.906 21.6114V15.5045H21.6C21.8987 15.5045 22.15 15.2665 22.15 14.9659V12.4554C22.15 12.1548 21.8987 11.9168 21.6 11.9168ZM8.366 4.48207C8.366 3.07665 9.54273 1.92725 11 1.92725C12.4573 1.92725 13.634 3.07665 13.634 4.48207C13.634 5.88749 12.4573 7.03689 11 7.03689C9.54273 7.03689 8.366 5.88749 8.366 4.48207ZM11 8.53385C12.1761 8.53385 13.2314 8.79659 14.0111 9.36568C14.7525 9.90688 15.2584 10.7349 15.3768 11.9168H6.62317C6.74157 10.7349 7.2475 9.90688 7.98894 9.36568C8.76858 8.79659 9.8239 8.53385 11 8.53385ZM2.194 21.0728V15.5045H19.806V21.0728H2.194ZM21.05 14.4273H20.356H1.644H0.95V12.994H6.048H15.956H21.05V14.4273Z" fill="white" stroke="white" stroke-width="0.3"/>
</g>
<defs>
<clipPath id="clip0">
<rect width="22" height="22" fill="white"/>
</clipPath>
</defs>
</svg>
