<svg width="16" height="16" viewBox="0 0 16 16" fill="none" xmlns="http://www.w3.org/2000/svg">
<g clip-path="url(#clip0)">
<path d="M0.311565 15.0883C0.508378 14.9758 1.7176 14.226 2.355 12.8856C0.855191 11.4795 0.0022219 9.52669 0.0022219 7.53013C0.00225315 3.39641 3.60481 0 8.00103 0C12.3973 0 15.9999 3.39641 15.9999 7.53013C15.9999 11.6638 12.3973 15.0603 8.00107 15.0603C7.41053 15.0603 6.8106 15.004 5.93888 14.8259C3.64235 16.0445 1.54894 16.007 0.761534 15.9976C0.414722 15.9882 0.161627 16.0538 0.0304402 15.6976C-0.0633723 15.4539 0.0678464 15.1727 0.311565 15.0883Z" fill="#17ACE8"/>
<path d="M0.0304238 15.6976C0.161612 16.0538 0.414705 15.9882 0.761518 15.9976C1.54892 16.007 3.6423 16.0445 5.93886 14.8259C6.81061 15.004 7.41052 15.0603 8.00105 15.0603V0C3.60483 0 0.00223605 3.39641 0.00223605 7.53013C0.00223605 9.52669 0.855205 11.4795 2.35502 12.8856C1.71761 14.226 0.508392 14.9758 0.31158 15.0883C0.0678606 15.1727 -0.0633574 15.4539 0.0304238 15.6976Z" fill="#1689FC"/>
<path d="M7.06372 7.53015V11.3108C7.06372 11.8264 7.48553 12.2482 8.00106 12.2482C8.51659 12.2482 8.9384 11.8264 8.9384 11.3108V7.53015C8.9384 7.01459 8.51659 6.5928 8.00106 6.5928C7.48553 6.5928 7.06372 7.01459 7.06372 7.53015Z" fill="white"/>
<path d="M7.06372 4.24937C7.06372 4.76493 7.48553 5.18671 8.00106 5.18671C8.51659 5.18671 8.9384 4.7649 8.9384 4.24937C8.9384 3.73384 8.51659 3.31203 8.00106 3.31203C7.48553 3.31203 7.06372 3.73381 7.06372 4.24937Z" fill="white"/>
<path d="M8.00107 5.18672V3.312C7.48551 3.312 7.06372 3.73381 7.06372 4.24934C7.06372 4.76487 7.48554 5.18672 8.00107 5.18672Z" fill="white"/>
<path d="M7.06372 7.53012V11.3108C7.06372 11.8264 7.48554 12.2482 8.00107 12.2482V6.59274C7.48554 6.59274 7.06372 7.01456 7.06372 7.53012Z" fill="white"/>
</g>
<defs>
<clipPath id="clip0">
<rect width="16" height="16" fill="white"/>
</clipPath>
</defs>
</svg>
