<svg width="29" height="24" viewBox="0 0 29 24" fill="none" xmlns="http://www.w3.org/2000/svg">
<path d="M24.4664 1.6018H24.4665L24.4663 1.59751C24.4562 1.36151 24.3293 1.14601 24.1281 1.02249C23.9403 0.907045 23.7142 0.871298 23.4999 0.923377L23.4997 0.922411L23.4865 0.927637L11.9665 5.51244H6.28946V5.51242L6.28749 5.51246C5.18983 5.53412 4.1887 6.14115 3.66145 7.10191L3.17429 7.29136C1.81063 7.76478 0.897305 9.05113 0.900057 10.4947C0.891634 11.9334 1.80917 13.2143 3.17374 13.6693L3.48003 13.7969C3.75617 14.4833 4.26924 15.048 4.92598 15.3884L6.45448 20.9256C6.88219 22.4967 8.50251 23.4235 10.0735 22.9958L10.0473 22.8993L10.0735 22.9958C10.7072 22.8232 11.2652 22.4441 11.6589 21.9183L11.6599 21.917C12.205 21.1627 12.3814 20.203 12.1404 19.3041L12.1403 19.3037L11.1285 15.5937H11.9662L23.4859 20.2655L23.4857 20.266L23.496 20.269L23.6994 20.3271L23.7121 20.3307L23.7253 20.3309C23.8645 20.3331 24.0017 20.2989 24.1236 20.2315C24.3269 20.1221 24.4571 19.9134 24.4662 19.6827L24.4663 19.6827V19.6788V14.2556C26.4976 14.2025 28.1281 12.5391 28.128 10.4949C28.128 8.45074 26.4977 6.78744 24.4664 6.73438V1.6018ZM2.32053 10.4893C2.27843 9.74732 2.68451 9.05781 3.34133 8.73104V12.2588C2.68451 11.9321 2.27843 11.2425 2.32053 10.5006L2.32117 10.5006L2.32053 10.4893ZM10.8138 19.6465L10.8138 19.6465L10.8144 19.6486C10.9566 20.1359 10.8657 20.6615 10.5681 21.0728C10.2675 21.4773 9.78944 21.7112 9.28553 21.7003C8.56541 21.6781 7.94363 21.1895 7.75182 20.495C7.75181 20.495 7.7518 20.4949 7.75179 20.4949L6.42025 15.5937H9.72925L10.8138 19.6465ZM6.29069 6.87489H11.4789V14.2312H6.28946V14.231L6.28399 14.2313C5.45766 14.2766 4.75106 13.6435 4.70574 12.8171C4.7037 12.78 4.70303 12.7428 4.70381 12.7058L4.70383 12.7058V12.7037V8.57677H4.70389L4.70377 8.57339C4.67305 7.66619 5.38353 6.90579 6.29069 6.87489ZM23.1039 2.62135V18.6592L12.8413 14.5541V6.72638L23.1039 2.62135ZM24.4664 8.09763C25.7452 8.1501 26.7657 9.20341 26.7657 10.4951C26.7655 11.7866 25.745 12.8398 24.4664 12.8923V8.09763Z" fill="#334D6E" stroke="#334D6E" stroke-width="0.2"/>
</svg>
