<svg width="30" height="26" viewBox="0 0 30 26" fill="none" xmlns="http://www.w3.org/2000/svg">
<path d="M30 10.0957V25.13C30 25.8373 29.1897 26.2463 28.6107 25.8374L23.7785 22.4289C23.373 22.1433 22.8961 21.9921 22.398 21.9921H11.7697C9.89882 21.9921 8.37714 20.4869 8.37714 18.6369V7.60958C8.37714 7.12985 8.77089 6.74051 9.25604 6.74051H26.6074C28.4783 6.74051 30 8.24574 30 10.0957Z" fill="#FFE14D"/>
<path d="M30 10.0957V25.13C30 25.8373 29.1897 26.2463 28.6107 25.8374L23.7785 22.4289C23.373 22.1433 22.8961 21.9921 22.398 21.9921H15V6.74051H26.6074C28.4783 6.74051 30 8.24574 30 10.0957V10.0957Z" fill="#FABE2C"/>
<path d="M21.6229 0.869069V11.8964C21.6229 13.7463 20.1006 15.251 18.2303 15.251H7.60195C7.10449 15.251 6.62695 15.4022 6.22148 15.6884L1.38926 19.0969C0.80959 19.5063 0 19.0961 0 18.3895V3.35461C0 1.50465 1.52168 0 3.39258 0H20.7439C21.2291 0 21.6229 0.389343 21.6229 0.869069V0.869069Z" fill="#109CF1"/>
<path d="M21.6229 0.869069V11.8964C21.6229 13.7463 20.1006 15.251 18.2303 15.251H15V0H20.7439C21.2291 0 21.6229 0.389343 21.6229 0.869069V0.869069Z" fill="#177AB7"/>
<path d="M17.3537 5.60317C17.3537 6.08347 16.9599 6.47224 16.4748 6.47224H6.31989C5.83473 6.47224 5.44098 6.08347 5.44098 5.60317C5.44098 5.12344 5.83473 4.7341 6.31989 4.7341H16.4748C16.9599 4.7341 17.3537 5.12344 17.3537 5.60317Z" fill="#F0F7FF"/>
<path d="M17.3537 9.65883C17.3537 10.1391 16.9599 10.5279 16.4748 10.5279H6.31989C5.83473 10.5279 5.44098 10.1391 5.44098 9.65883C5.44098 9.17911 5.83473 8.78976 6.31989 8.78976H16.4748C16.9599 8.78976 17.3537 9.17911 17.3537 9.65883Z" fill="#F0F7FF"/>
<path d="M17.3537 9.65883C17.3537 10.1391 16.96 10.5279 16.4748 10.5279H15V8.78976H16.4748C16.96 8.78976 17.3537 9.17911 17.3537 9.65883Z" fill="#DFE7F4"/>
<path d="M16.4748 6.47224H15V4.7341H16.4748C16.96 4.7341 17.3537 5.12344 17.3537 5.60317C17.3537 6.08347 16.96 6.47224 16.4748 6.47224Z" fill="#DFE7F4"/>
</svg>
