<svg width="21" height="22" viewBox="0 0 21 22" fill="none" xmlns="http://www.w3.org/2000/svg">
<path d="M19.1785 2.4068H17.5119V1.69112C17.5119 1.3115 17.3714 0.947431 17.1214 0.679C16.8713 0.410569 16.5322 0.259766 16.1785 0.259766C15.8249 0.259766 15.4858 0.410569 15.2357 0.679C14.9857 0.947431 14.8452 1.3115 14.8452 1.69112V2.4068H12.1785V1.69112C12.1785 1.3115 12.0381 0.947431 11.788 0.679C11.538 0.410569 11.1988 0.259766 10.8452 0.259766C10.4916 0.259766 10.1525 0.410569 9.90241 0.679C9.65236 0.947431 9.51188 1.3115 9.51188 1.69112V2.4068H6.84521V1.69112C6.84521 1.3115 6.70474 0.947431 6.45469 0.679C6.20464 0.410569 5.8655 0.259766 5.51188 0.259766C5.15826 0.259766 4.81912 0.410569 4.56907 0.679C4.31902 0.947431 4.17855 1.3115 4.17855 1.69112V2.4068H2.51188C2.06985 2.4068 1.64593 2.5953 1.33337 2.93084C1.02081 3.26638 0.845215 3.72147 0.845215 4.19599V18.5095C0.845215 18.9841 1.02081 19.4392 1.33337 19.7747C1.64593 20.1102 2.06985 20.2987 2.51188 20.2987H11.8452C11.9336 20.2987 12.0184 20.261 12.0809 20.1939C12.1434 20.1268 12.1785 20.0358 12.1785 19.9409C12.1785 19.846 12.1434 19.755 12.0809 19.6879C12.0184 19.6208 11.9336 19.5831 11.8452 19.5831H2.51188C2.24691 19.5822 1.99301 19.4688 1.80565 19.2677C1.61828 19.0666 1.51267 18.794 1.51188 18.5095V7.41654H20.1785V13.4998C20.1785 13.5947 20.2137 13.6857 20.2762 13.7528C20.3387 13.8199 20.4235 13.8576 20.5119 13.8576C20.6003 13.8576 20.6851 13.8199 20.7476 13.7528C20.8101 13.6857 20.8452 13.5947 20.8452 13.4998V4.19599C20.8452 3.72147 20.6696 3.26638 20.3571 2.93084C20.0445 2.5953 19.6206 2.4068 19.1785 2.4068ZM15.5119 1.69112C15.5119 1.50131 15.5821 1.31928 15.7071 1.18506C15.8322 1.05084 16.0017 0.975443 16.1785 0.975443C16.3554 0.975443 16.5249 1.05084 16.65 1.18506C16.775 1.31928 16.8452 1.50131 16.8452 1.69112V3.83815C16.8452 4.02796 16.775 4.21 16.65 4.34421C16.5249 4.47843 16.3554 4.55383 16.1785 4.55383C16.0017 4.55383 15.8322 4.47843 15.7071 4.34421C15.5821 4.21 15.5119 4.02796 15.5119 3.83815V1.69112ZM10.1785 1.69112C10.1785 1.50131 10.2488 1.31928 10.3738 1.18506C10.4988 1.05084 10.6684 0.975443 10.8452 0.975443C11.022 0.975443 11.1916 1.05084 11.3166 1.18506C11.4416 1.31928 11.5119 1.50131 11.5119 1.69112V3.83815C11.5119 4.02796 11.4416 4.21 11.3166 4.34421C11.1916 4.47843 11.022 4.55383 10.8452 4.55383C10.6684 4.55383 10.4988 4.47843 10.3738 4.34421C10.2488 4.21 10.1785 4.02796 10.1785 3.83815V1.69112ZM4.84521 1.69112C4.84521 1.50131 4.91545 1.31928 5.04048 1.18506C5.1655 1.05084 5.33507 0.975443 5.51188 0.975443C5.68869 0.975443 5.85826 1.05084 5.98329 1.18506C6.10831 1.31928 6.17855 1.50131 6.17855 1.69112V3.83815C6.17855 4.02796 6.10831 4.21 5.98329 4.34421C5.85826 4.47843 5.68869 4.55383 5.51188 4.55383C5.33507 4.55383 5.1655 4.47843 5.04048 4.34421C4.91545 4.21 4.84521 4.02796 4.84521 3.83815V1.69112ZM20.1785 6.70086H1.51188V4.19599C1.51267 3.91154 1.61828 3.63898 1.80565 3.43784C1.99301 3.2367 2.24691 3.12333 2.51188 3.12248H4.17855V3.83815C4.17855 4.21777 4.31902 4.58184 4.56907 4.85027C4.81912 5.11871 5.15826 5.26951 5.51188 5.26951C5.8655 5.26951 6.20464 5.11871 6.45469 4.85027C6.70474 4.58184 6.84521 4.21777 6.84521 3.83815V3.12248H9.51188V3.83815C9.51188 4.21777 9.65236 4.58184 9.90241 4.85027C10.1525 5.11871 10.4916 5.26951 10.8452 5.26951C11.1988 5.26951 11.538 5.11871 11.788 4.85027C12.0381 4.58184 12.1785 4.21777 12.1785 3.83815V3.12248H14.8452V3.83815C14.8452 4.21777 14.9857 4.58184 15.2357 4.85027C15.4858 5.11871 15.8249 5.26951 16.1785 5.26951C16.5322 5.26951 16.8713 5.11871 17.1214 4.85027C17.3714 4.58184 17.5119 4.21777 17.5119 3.83815V3.12248H19.1785C19.4435 3.12333 19.6974 3.2367 19.8848 3.43784C20.0721 3.63898 20.1778 3.91154 20.1785 4.19599V6.70086Z" fill="#109CF1"/>
<path d="M10.1787 9.92124C10.1787 9.73143 10.1084 9.5494 9.98339 9.41518C9.85837 9.28097 9.6888 9.20557 9.51199 9.20557H8.17865C8.00184 9.20557 7.83227 9.28097 7.70725 9.41518C7.58223 9.5494 7.51199 9.73143 7.51199 9.92124V10.9948C7.51199 11.1846 7.58223 11.3666 7.70725 11.5008C7.83227 11.635 8.00184 11.7104 8.17865 11.7104H9.51199C9.6888 11.7104 9.85837 11.635 9.98339 11.5008C10.1084 11.3666 10.1787 11.1846 10.1787 10.9948V9.92124ZM8.17865 10.9948V9.92124H9.51199V10.9948H8.17865Z" fill="#109CF1"/>
<path d="M6.17833 9.92124C6.17833 9.73143 6.1081 9.5494 5.98307 9.41518C5.85805 9.28097 5.68848 9.20557 5.51167 9.20557H4.17833C4.00152 9.20557 3.83195 9.28097 3.70693 9.41518C3.58191 9.5494 3.51167 9.73143 3.51167 9.92124V10.9948C3.51167 11.1846 3.58191 11.3666 3.70693 11.5008C3.83195 11.635 4.00152 11.7104 4.17833 11.7104H5.51167C5.68848 11.7104 5.85805 11.635 5.98307 11.5008C6.1081 11.3666 6.17833 11.1846 6.17833 10.9948V9.92124ZM4.17833 10.9948V9.92124H5.51167V10.9948H4.17833Z" fill="#109CF1"/>
<path d="M17.5118 11.7104C17.6886 11.7104 17.8581 11.635 17.9832 11.5008C18.1082 11.3666 18.1784 11.1846 18.1784 10.9948V9.92124C18.1784 9.73143 18.1082 9.5494 17.9832 9.41518C17.8581 9.28097 17.6886 9.20557 17.5118 9.20557H16.1784C16.0016 9.20557 15.8321 9.28097 15.707 9.41518C15.582 9.5494 15.5118 9.73143 15.5118 9.92124V10.9948C15.5118 11.1846 15.582 11.3666 15.707 11.5008C15.8321 11.635 16.0016 11.7104 16.1784 11.7104H17.5118ZM16.1784 9.92124H17.5118V10.9948H16.1784V9.92124Z" fill="#109CF1"/>
<path d="M10.1787 13.1419C10.1787 12.9521 10.1084 12.7701 9.98339 12.6359C9.85837 12.5017 9.6888 12.4263 9.51199 12.4263H8.17865C8.00184 12.4263 7.83227 12.5017 7.70725 12.6359C7.58223 12.7701 7.51199 12.9521 7.51199 13.1419V14.2155C7.51199 14.4053 7.58223 14.5873 7.70725 14.7215C7.83227 14.8557 8.00184 14.9311 8.17865 14.9311H9.51199C9.6888 14.9311 9.85837 14.8557 9.98339 14.7215C10.1084 14.5873 10.1787 14.4053 10.1787 14.2155V13.1419ZM8.17865 14.2155V13.1419H9.51199V14.2155H8.17865Z" fill="#109CF1"/>
<path d="M6.17833 13.1419C6.17833 12.9521 6.1081 12.7701 5.98307 12.6359C5.85805 12.5017 5.68848 12.4263 5.51167 12.4263H4.17833C4.00152 12.4263 3.83195 12.5017 3.70693 12.6359C3.58191 12.7701 3.51167 12.9521 3.51167 13.1419V14.2155C3.51167 14.4053 3.58191 14.5873 3.70693 14.7215C3.83195 14.8557 4.00152 14.9311 4.17833 14.9311H5.51167C5.68848 14.9311 5.85805 14.8557 5.98307 14.7215C6.1081 14.5873 6.17833 14.4053 6.17833 14.2155V13.1419ZM4.17833 14.2155V13.1419H5.51167V14.2155H4.17833Z" fill="#109CF1"/>
<path d="M9.51199 15.647H8.17865C8.00184 15.647 7.83227 15.7224 7.70725 15.8566C7.58223 15.9908 7.51199 16.1728 7.51199 16.3626V17.4362C7.51199 17.626 7.58223 17.808 7.70725 17.9422C7.83227 18.0764 8.00184 18.1518 8.17865 18.1518H9.51199C9.6888 18.1518 9.85837 18.0764 9.98339 17.9422C10.1084 17.808 10.1787 17.626 10.1787 17.4362V16.3626C10.1787 16.1728 10.1084 15.9908 9.98339 15.8566C9.85837 15.7224 9.6888 15.647 9.51199 15.647ZM8.17865 17.4362V16.3626H9.51199V17.4362H8.17865Z" fill="#109CF1"/>
<path d="M12.1785 11.7104H13.5119C13.6887 11.7104 13.8583 11.635 13.9833 11.5008C14.1083 11.3666 14.1785 11.1846 14.1785 10.9948V9.92124C14.1785 9.73143 14.1083 9.5494 13.9833 9.41518C13.8583 9.28097 13.6887 9.20557 13.5119 9.20557H12.1785C12.0017 9.20557 11.8322 9.28097 11.7071 9.41518C11.5821 9.5494 11.5119 9.73143 11.5119 9.92124V10.9948C11.5119 11.1846 11.5821 11.3666 11.7071 11.5008C11.8322 11.635 12.0017 11.7104 12.1785 11.7104ZM12.1785 9.92124H13.5119V10.9948H12.1785V9.92124Z" fill="#109CF1"/>
<path d="M11.5119 14.2155C11.5119 14.4053 11.5821 14.5873 11.7071 14.7215C11.8322 14.8557 12.0017 14.9311 12.1786 14.9311C12.267 14.9311 12.3517 14.8934 12.4143 14.8263C12.4768 14.7592 12.5119 14.6682 12.5119 14.5733C12.5119 14.4784 12.4768 14.3874 12.4143 14.3203C12.3517 14.2532 12.267 14.2155 12.1786 14.2155V13.1419H13.5119C13.6003 13.1419 13.6851 13.1042 13.7476 13.0371C13.8101 12.97 13.8452 12.879 13.8452 12.7841C13.8452 12.6892 13.8101 12.5982 13.7476 12.5311C13.6851 12.464 13.6003 12.4263 13.5119 12.4263H12.1786C12.0017 12.4263 11.8322 12.5017 11.7071 12.6359C11.5821 12.7701 11.5119 12.9521 11.5119 13.1419V14.2155Z" fill="#109CF1"/>
<path d="M5.51167 15.647H4.17833C4.00152 15.647 3.83195 15.7224 3.70693 15.8566C3.58191 15.9908 3.51167 16.1728 3.51167 16.3626V17.4362C3.51167 17.626 3.58191 17.808 3.70693 17.9422C3.83195 18.0764 4.00152 18.1518 4.17833 18.1518H5.51167C5.68848 18.1518 5.85805 18.0764 5.98307 17.9422C6.1081 17.808 6.17833 17.626 6.17833 17.4362V16.3626C6.17833 16.1728 6.1081 15.9908 5.98307 15.8566C5.85805 15.7224 5.68848 15.647 5.51167 15.647ZM4.17833 17.4362V16.3626H5.51167V17.4362H4.17833Z" fill="#109CF1"/>
<path d="M16.5119 12.4263C15.6549 12.4263 14.8171 12.6991 14.1045 13.2103C13.3918 13.7214 12.8364 14.4479 12.5085 15.298C12.1805 16.148 12.0947 17.0833 12.2619 17.9857C12.4291 18.8881 12.8418 19.717 13.4478 20.3676C14.0538 21.0181 14.826 21.4612 15.6665 21.6407C16.5071 21.8202 17.3784 21.7281 18.1702 21.376C18.962 21.0239 19.6388 20.4276 20.1149 19.6626C20.5911 18.8976 20.8452 17.9982 20.8452 17.0782C20.8439 15.8448 20.3869 14.6624 19.5746 13.7903C18.7622 12.9183 17.6608 12.4277 16.5119 12.4263ZM16.5119 21.0144C15.7867 21.0144 15.0778 20.7835 14.4748 20.351C13.8719 19.9185 13.4019 19.3037 13.1244 18.5845C12.8469 17.8652 12.7742 17.0738 12.9157 16.3103C13.0572 15.5467 13.4064 14.8453 13.9192 14.2948C14.432 13.7443 15.0853 13.3695 15.7966 13.2176C16.5079 13.0657 17.2451 13.1437 17.9151 13.4416C18.5851 13.7395 19.1577 14.244 19.5606 14.8913C19.9635 15.5386 20.1786 16.2997 20.1786 17.0782C20.1774 18.1217 19.7908 19.1222 19.1034 19.8601C18.416 20.5981 17.484 21.0132 16.5119 21.0144Z" fill="#109CF1"/>
<path d="M18.4379 15.578L15.8452 18.3612L14.6669 17.0959C14.604 17.0308 14.5198 16.9947 14.4324 16.9955C14.345 16.9963 14.2614 17.0339 14.1996 17.1003C14.1378 17.1666 14.1028 17.2564 14.102 17.3502C14.1012 17.444 14.1348 17.5344 14.1956 17.6019L15.6095 19.1202C15.6721 19.1873 15.7568 19.225 15.8452 19.225C15.9336 19.225 16.0184 19.1873 16.0809 19.1202L18.9092 16.084C18.9699 16.0165 19.0035 15.9261 19.0028 15.8323C19.002 15.7384 18.9669 15.6487 18.9051 15.5823C18.8433 15.516 18.7597 15.4784 18.6723 15.4776C18.5849 15.4767 18.5007 15.5128 18.4379 15.578Z" fill="#109CF1"/>
</svg>
