<svg width="11" height="6" viewBox="0 0 11 6" fill="none" xmlns="http://www.w3.org/2000/svg">
<path d="M5.16887 5.45509C4.99674 5.45544 4.82993 5.39403 4.6974 5.28153L0.277356 1.50848C0.126915 1.38039 0.0323076 1.19634 0.0143477 0.996797C-0.0036122 0.797258 0.056546 0.598584 0.181588 0.444479C0.30663 0.290375 0.486313 0.193465 0.681109 0.175068C0.875905 0.156671 1.06986 0.218294 1.2203 0.34638L5.16887 3.72704L9.11744 0.467118C9.19279 0.404436 9.2795 0.357626 9.37257 0.32938C9.46564 0.301133 9.56324 0.292007 9.65977 0.302526C9.75629 0.313044 9.84983 0.343 9.93502 0.390672C10.0202 0.438343 10.0954 0.502791 10.1561 0.58031C10.2236 0.6579 10.2747 0.748926 10.3062 0.847684C10.3378 0.946443 10.349 1.05081 10.3393 1.15424C10.3297 1.25766 10.2992 1.35793 10.25 1.44875C10.2007 1.53958 10.1336 1.619 10.053 1.68204L5.63297 5.32681C5.49663 5.42153 5.33322 5.46669 5.16887 5.45509Z" fill="#C4C4C4"/>
</svg>
