<svg width="1141" height="323" viewBox="0 0 1141 323" fill="none" xmlns="http://www.w3.org/2000/svg">
<rect x="0.5" y="0.5" width="1140" height="322" fill="#F7F9FF" stroke="#D0D4D7" stroke-dasharray="10.1 10.1"/>
<path d="M455.404 124.548C454.798 124.548 454.204 124.588 453.615 124.663C453.621 124.398 453.632 124.138 453.632 123.872C453.638 107.372 440.26 94 423.766 94C409.522 94 397.61 103.973 394.626 117.322C392.762 116.699 390.771 116.358 388.693 116.358C378.368 116.352 370 124.721 370 135.046C370 145.371 378.368 153.739 388.693 153.739H454.371V153.699C454.712 153.722 455.058 153.739 455.404 153.739C463.467 153.739 470 147.206 470 139.143C470 131.081 463.467 124.548 455.404 124.548Z" fill="#4D9EE3"/>
<path d="M426.04 140.176V109.64" stroke="white" stroke-width="4" stroke-miterlimit="10" stroke-linecap="round"/>
<path d="M414.237 123.047L426.04 109.375L437.542 123.047" stroke="white" stroke-width="4" stroke-miterlimit="10" stroke-linecap="round" stroke-linejoin="round"/>
<path d="M401.074 143.253L384.981 203.369L445.097 219.463L461.191 159.346L401.074 143.253Z" fill="white"/>
<path d="M401.488 143.964L460.489 159.76L444.693 218.761L385.686 202.965L401.488 143.964ZM400.669 142.55L400.369 143.664L384.573 202.665L384.272 203.778L385.386 204.079L444.387 219.875L445.501 220.175L445.801 219.061L461.597 160.061L461.897 158.947L460.783 158.647L401.783 142.85L400.669 142.55Z" fill="#4D9EE3"/>
<path d="M446.032 168.671C445.27 171.517 442.344 173.202 439.504 172.446C436.659 171.684 434.974 168.758 435.73 165.918C436.492 163.073 439.418 161.388 442.257 162.144C445.108 162.906 446.793 165.826 446.032 168.671Z" fill="#CBE4FA"/>
<path d="M392.335 198.578C392.335 198.578 409.563 173.739 413.677 174.841C417.792 175.943 421.498 190.527 421.498 190.527C421.498 190.527 428.833 184.56 433.029 185.685C437.225 186.811 441.12 211.645 441.12 211.645L392.335 198.578Z" fill="#CBE4FA"/>
<path d="M430.241 170.784L402.873 163.772C402.827 163.76 402.787 163.725 402.775 163.679C402.758 163.633 402.77 163.581 402.798 163.541C402.873 163.443 404.715 161.157 406.457 161.157C406.717 161.157 406.96 161.209 407.19 161.307C408.097 161.705 408.766 162.219 409.355 162.675C409.966 163.148 410.451 163.518 410.965 163.581C411.282 163.581 411.692 163.218 412.165 162.796C413.083 161.977 414.347 160.851 416.165 160.851C416.696 160.851 417.25 160.949 417.815 161.146C420.418 162.052 420.967 163.974 421.33 165.249C421.509 165.872 421.636 166.322 421.919 166.357C421.977 166.363 422.04 166.369 422.104 166.369C422.415 166.369 422.808 166.305 423.269 166.224C423.864 166.126 424.539 166.011 425.22 166.011C426.063 166.011 426.744 166.184 427.309 166.536C429.087 167.65 430.357 170.455 430.409 170.576C430.432 170.628 430.42 170.686 430.385 170.726C430.357 170.761 430.316 170.778 430.276 170.778C430.27 170.784 430.253 170.784 430.241 170.784Z" fill="#CBE4FA"/>
<path d="M416.165 160.996C416.656 160.996 417.186 161.082 417.764 161.284C421.665 162.646 420.828 166.374 421.902 166.501C421.965 166.507 422.034 166.513 422.104 166.513C422.837 166.513 424.026 166.161 425.22 166.161C425.919 166.161 426.623 166.282 427.234 166.663C428.995 167.765 430.282 170.639 430.282 170.639L402.914 163.627C402.914 163.627 404.767 161.301 406.463 161.301C406.694 161.301 406.919 161.342 407.139 161.44C408.98 162.248 409.88 163.598 410.953 163.725C410.971 163.725 410.988 163.731 411.005 163.731C411.917 163.731 413.389 160.996 416.165 160.996ZM416.165 160.707C414.289 160.707 413.008 161.85 412.067 162.687C411.634 163.073 411.225 163.437 411 163.437C410.503 163.379 410.036 163.016 409.441 162.56C408.847 162.098 408.166 161.578 407.248 161.174C407 161.065 406.735 161.013 406.458 161.013C404.64 161.013 402.764 163.35 402.683 163.448C402.62 163.523 402.602 163.627 402.637 163.72C402.666 163.812 402.747 163.881 402.839 163.91L430.207 170.922C430.23 170.928 430.253 170.934 430.276 170.934C430.362 170.934 430.443 170.899 430.495 170.83C430.564 170.743 430.582 170.628 430.536 170.524C430.484 170.403 429.191 167.558 427.379 166.421C426.79 166.051 426.08 165.872 425.214 165.872C424.522 165.872 423.841 165.988 423.241 166.086C422.785 166.161 422.398 166.224 422.098 166.224C422.04 166.224 421.982 166.224 421.931 166.213C421.746 166.19 421.607 165.711 421.463 165.209C421.088 163.91 420.528 161.942 417.856 161.013C417.285 160.811 416.713 160.707 416.165 160.707Z" fill="white"/>
<path d="M446.58 185.085C446.568 185.085 446.557 185.085 446.539 185.079L425.313 179.146C425.261 179.129 425.22 179.089 425.209 179.031C425.197 178.979 425.22 178.921 425.266 178.887C425.347 178.829 427.309 177.421 428.954 177.357H429.041C430.16 177.357 431.084 178.119 431.828 178.725C432.163 179.002 432.452 179.239 432.683 179.337C432.706 179.348 432.729 179.354 432.758 179.354C432.936 179.354 433.19 179.112 433.479 178.823C434.096 178.229 435.026 177.328 436.601 177.328C436.884 177.328 437.178 177.357 437.478 177.415C439.712 177.836 440.295 179.591 440.676 180.751C440.837 181.236 440.976 181.651 441.161 181.732C441.311 181.795 441.49 181.83 441.715 181.83C441.969 181.83 442.251 181.79 442.58 181.749C442.984 181.697 443.44 181.634 443.948 181.634C444.15 181.634 444.364 181.645 444.583 181.668C446.234 181.847 446.69 184.791 446.707 184.918C446.713 184.964 446.695 185.016 446.661 185.045C446.649 185.074 446.615 185.085 446.58 185.085Z" fill="#CBE4FA"/>
<path d="M436.601 177.479C436.867 177.479 437.15 177.507 437.455 177.565C440.624 178.165 440.335 181.542 441.114 181.876C441.299 181.957 441.501 181.986 441.726 181.986C442.321 181.986 443.059 181.79 443.96 181.79C444.156 181.79 444.364 181.801 444.583 181.824C446.141 181.997 446.58 184.952 446.58 184.952L425.353 179.019C425.353 179.019 427.344 177.577 428.96 177.519C428.989 177.519 429.018 177.519 429.041 177.519C430.622 177.519 431.863 179.164 432.625 179.487C432.665 179.504 432.711 179.516 432.752 179.516C433.427 179.504 434.27 177.479 436.601 177.479ZM436.601 177.19C434.968 177.19 434.01 178.113 433.375 178.725C433.138 178.956 432.873 179.216 432.752 179.216C432.527 179.123 432.232 178.881 431.915 178.621C431.194 178.027 430.207 177.219 429.041 177.219C429.012 177.219 428.977 177.219 428.948 177.219C427.263 177.282 425.266 178.714 425.18 178.771C425.087 178.835 425.047 178.944 425.064 179.054C425.082 179.164 425.162 179.25 425.272 179.279L446.499 185.212C446.522 185.218 446.551 185.224 446.574 185.224C446.643 185.224 446.713 185.201 446.765 185.149C446.84 185.085 446.874 184.987 446.857 184.889C446.84 184.762 446.361 181.715 444.6 181.518C444.387 181.495 444.173 181.484 443.948 181.484C443.429 181.484 442.967 181.547 442.563 181.599C442.24 181.645 441.963 181.68 441.715 181.68C441.507 181.68 441.351 181.651 441.218 181.599C441.091 181.542 440.936 181.08 440.809 180.705C440.416 179.516 439.816 177.709 437.502 177.271C437.196 177.225 436.896 177.19 436.601 177.19Z" fill="white"/>
</svg>
