<svg width="95" height="23" viewBox="0 0 95 23" fill="none" xmlns="http://www.w3.org/2000/svg">
<path d="M31.158 14.09H32.822C33.9573 14.09 34.824 13.778 35.422 13.154C36.02 12.53 36.319 11.659 36.319 10.541C36.319 9.423 36.02 8.552 35.422 7.928C34.824 7.304 33.9573 6.992 32.822 6.992H31.158V14.09ZM32.822 5.991C34.278 5.991 35.4263 6.39833 36.267 7.213C37.1077 8.02767 37.528 9.137 37.528 10.541C37.528 11.945 37.1077 13.0413 36.267 13.83C35.4263 14.61 34.278 15 32.822 15H29.975V5.991H32.822ZM42.1988 14.142C42.8661 14.142 43.4424 13.9037 43.9278 13.427C44.4218 12.9417 44.6688 12.2743 44.6688 11.425C44.6688 10.5757 44.4348 9.91267 43.9668 9.436C43.4988 8.95933 42.9268 8.721 42.2508 8.721C41.5834 8.721 41.0244 8.95933 40.5738 9.436C40.1231 9.91267 39.8978 10.58 39.8978 11.438C39.8978 12.2873 40.1144 12.9503 40.5478 13.427C40.9811 13.9037 41.5314 14.142 42.1988 14.142ZM39.6638 14.103C39.0138 13.427 38.6888 12.5387 38.6888 11.438C38.6888 10.3373 39.0311 9.449 39.7158 8.773C40.4004 8.08833 41.2584 7.746 42.2898 7.746C43.3211 7.746 44.1791 8.08833 44.8638 8.773C45.5484 9.449 45.8908 10.3373 45.8908 11.438C45.8908 12.53 45.5311 13.4183 44.8118 14.103C44.1011 14.779 43.2301 15.117 42.1988 15.117C41.1674 15.117 40.3224 14.779 39.6638 14.103ZM55.6776 7.863H56.8736L54.6246 15H53.4026L51.7906 9.332L50.1786 15H48.9436L46.6816 7.863H47.9036L49.5546 13.817L51.2316 7.863H52.4536L54.0396 13.83L55.6776 7.863ZM59.3126 7.863V9.02C59.798 8.17067 60.5736 7.746 61.6396 7.746C62.4283 7.746 63.087 8.01033 63.6156 8.539C64.1443 9.059 64.4086 9.80433 64.4086 10.775V15H63.2386V10.97C63.2386 10.2507 63.0653 9.70467 62.7186 9.332C62.372 8.95933 61.891 8.773 61.2756 8.773C60.669 8.773 60.188 8.95933 59.8326 9.332C59.486 9.70467 59.3126 10.2507 59.3126 10.97V15H58.1296V7.863H59.3126ZM66.4227 15V5.38H67.6057V15H66.4227ZM72.7305 14.142C73.3978 14.142 73.9741 13.9037 74.4595 13.427C74.9535 12.9417 75.2005 12.2743 75.2005 11.425C75.2005 10.5757 74.9665 9.91267 74.4985 9.436C74.0305 8.95933 73.4585 8.721 72.7825 8.721C72.1151 8.721 71.5561 8.95933 71.1055 9.436C70.6548 9.91267 70.4295 10.58 70.4295 11.438C70.4295 12.2873 70.6461 12.9503 71.0795 13.427C71.5128 13.9037 72.0631 14.142 72.7305 14.142ZM70.1955 14.103C69.5455 13.427 69.2205 12.5387 69.2205 11.438C69.2205 10.3373 69.5628 9.449 70.2475 8.773C70.9321 8.08833 71.7901 7.746 72.8215 7.746C73.8528 7.746 74.7108 8.08833 75.3955 8.773C76.0801 9.449 76.4225 10.3373 76.4225 11.438C76.4225 12.53 76.0628 13.4183 75.3435 14.103C74.6328 14.779 73.7618 15.117 72.7305 15.117C71.6991 15.117 70.8541 14.779 70.1955 14.103ZM82.8813 13.375C83.358 12.8897 83.5963 12.244 83.5963 11.438C83.5963 10.632 83.358 9.98633 82.8813 9.501C82.4133 9.01567 81.8457 8.773 81.1783 8.773C80.5197 8.773 79.952 9.007 79.4753 9.475C79.0073 9.943 78.7733 10.58 78.7733 11.386C78.7733 12.192 79.0117 12.8463 79.4883 13.349C79.965 13.8517 80.5327 14.103 81.1913 14.103C81.85 14.103 82.4133 13.8603 82.8813 13.375ZM80.9703 15.117C79.9997 15.117 79.1893 14.7703 78.5393 14.077C77.8893 13.375 77.5643 12.4823 77.5643 11.399C77.5643 10.307 77.885 9.42733 78.5263 8.76C79.1763 8.084 79.991 7.746 80.9703 7.746C81.577 7.746 82.1057 7.889 82.5563 8.175C83.0157 8.461 83.3623 8.83367 83.5963 9.293V7.863H84.7923V15H83.5963V13.544C83.3623 14.012 83.0157 14.3933 82.5563 14.688C82.1057 14.974 81.577 15.117 80.9703 15.117ZM91.7203 13.375C92.197 12.8897 92.4353 12.244 92.4353 11.438C92.4353 10.632 92.197 9.98633 91.7203 9.501C91.2523 9.01567 90.6847 8.773 90.0173 8.773C89.3587 8.773 88.791 9.007 88.3143 9.475C87.8463 9.943 87.6123 10.58 87.6123 11.386C87.6123 12.192 87.8507 12.8463 88.3273 13.349C88.804 13.8517 89.3717 14.103 90.0303 14.103C90.689 14.103 91.2523 13.8603 91.7203 13.375ZM89.8093 15.117C88.8387 15.117 88.0283 14.7703 87.3783 14.077C86.7283 13.375 86.4033 12.4823 86.4033 11.399C86.4033 10.307 86.724 9.42733 87.3653 8.76C88.0153 8.084 88.83 7.746 89.8093 7.746C90.416 7.746 90.9447 7.889 91.3953 8.175C91.8547 8.461 92.2013 8.83367 92.4353 9.293V5.38H93.6313V15H92.4353V13.544C92.2013 14.012 91.8547 14.3933 91.3953 14.688C90.9447 14.974 90.416 15.117 89.8093 15.117Z" fill="#109CF1"/>
<path d="M12.661 0.102621C12.5523 0.014277 12.4091 -0.0194964 12.2724 0.0109684L0.355715 2.76097C0.145985 2.80918 -0.00199911 2.99678 2.0419e-05 3.21197V18.7953C0.000106356 19.0214 0.165149 19.2138 0.388672 19.2481L12.3053 21.0815C12.5555 21.1199 12.7895 20.9483 12.828 20.6982C12.8315 20.6752 12.8333 20.6519 12.8333 20.6287V0.461968C12.8337 0.322191 12.7703 0.18989 12.661 0.102621Z" fill="#4CAF50"/>
<path d="M21.5415 19.2536H12.3749C12.1217 19.2536 11.9165 19.0484 11.9165 18.7953C11.9165 18.5421 12.1217 18.3369 12.3749 18.3369H21.0832V2.75363H12.3749C12.1217 2.75363 11.9165 2.54841 11.9165 2.29528C11.9165 2.04215 12.1217 1.83698 12.3749 1.83698H21.5415C21.7946 1.83698 21.9998 2.04219 21.9998 2.29532V18.7953C21.9998 19.0484 21.7947 19.2536 21.5415 19.2536Z" fill="#4CAF50"/>
<path d="M8.70829 14.6703C8.55025 14.6703 8.40338 14.5889 8.31963 14.4549L3.73629 7.12157C3.5954 6.91129 3.65169 6.62658 3.86197 6.48568C4.07226 6.34479 4.35697 6.40108 4.49787 6.61136C4.50341 6.61961 4.50865 6.62804 4.51364 6.63663L9.09698 13.97C9.23061 14.1849 9.1647 14.4675 8.94973 14.6012C8.87724 14.6463 8.79362 14.6702 8.70829 14.6703Z" fill="#FAFAFA"/>
<path d="M4.12488 14.6703C3.87175 14.6698 3.66697 14.4642 3.66748 14.2111C3.66765 14.1255 3.6918 14.0417 3.73713 13.9691L8.32048 6.63575C8.44741 6.41674 8.72786 6.3421 8.94683 6.46903C9.16584 6.59596 9.24048 6.87642 9.11355 7.09538C9.10857 7.10398 9.10332 7.1124 9.09778 7.12065L4.51448 14.454C4.43078 14.5886 4.28344 14.6705 4.12488 14.6703Z" fill="#FAFAFA"/>
<path d="M16.0414 19.2536C15.7882 19.2536 15.583 19.0484 15.583 18.7952V2.29526C15.583 2.04213 15.7882 1.83691 16.0414 1.83691C16.2945 1.83691 16.4997 2.04213 16.4997 2.29526V18.7952C16.4997 19.0484 16.2945 19.2536 16.0414 19.2536Z" fill="#4CAF50"/>
<path d="M21.5415 16.5036H12.3749C12.1217 16.5036 11.9165 16.2984 11.9165 16.0453C11.9165 15.7921 12.1217 15.5869 12.3749 15.5869H21.5415C21.7946 15.5869 21.9998 15.7921 21.9998 16.0453C21.9998 16.2984 21.7947 16.5036 21.5415 16.5036Z" fill="#4CAF50"/>
<path d="M21.5415 13.7536H12.3749C12.1217 13.7536 11.9165 13.5484 11.9165 13.2953C11.9165 13.0421 12.1217 12.8369 12.3749 12.8369H21.5415C21.7946 12.8369 21.9998 13.0421 21.9998 13.2953C21.9998 13.5484 21.7947 13.7536 21.5415 13.7536Z" fill="#4CAF50"/>
<path d="M21.5415 11.0036H12.3749C12.1217 11.0036 11.9165 10.7984 11.9165 10.5453C11.9165 10.2921 12.1217 10.0869 12.3749 10.0869H21.5415C21.7946 10.0869 21.9998 10.2921 21.9998 10.5453C21.9998 10.7984 21.7947 11.0036 21.5415 11.0036Z" fill="#4CAF50"/>
<path d="M21.5415 8.25361H12.3749C12.1217 8.25361 11.9165 8.04839 11.9165 7.79526C11.9165 7.54213 12.1217 7.33691 12.3749 7.33691H21.5415C21.7946 7.33691 21.9998 7.54213 21.9998 7.79526C21.9998 8.04839 21.7947 8.25361 21.5415 8.25361Z" fill="#4CAF50"/>
<path d="M21.5415 5.50361H12.3749C12.1217 5.50361 11.9165 5.29839 11.9165 5.04526C11.9165 4.79213 12.1217 4.58691 12.3749 4.58691H21.5415C21.7946 4.58691 21.9998 4.79213 21.9998 5.04526C21.9998 5.29843 21.7947 5.50361 21.5415 5.50361Z" fill="#4CAF50"/>
</svg>
