<svg width="24" height="21" viewBox="0 0 24 21" fill="none" xmlns="http://www.w3.org/2000/svg">
<path d="M0.682617 11.5675L7.14914 11.7831L7.61617 14.7828L9.41243 15.3935H11.4242L15.2323 15.1421L15.7173 13.5434L16.0945 11.7831L22.597 11.5675V19.7944H0.682617V11.5675Z" fill="#109CF1"/>
<path d="M1.0059 11.2086H7.75983V13.6156C7.75983 14.4419 8.40648 15.0886 9.23276 15.0886H13.939C14.7652 15.0886 15.4119 14.4419 15.4119 13.6156V11.2086H22.1299L18.1063 4.99359H12.8971V4.27509H18.5014L23.1717 11.2086V20.1899H0V11.2086L4.67027 4.27509H10.2746V4.99359H5.06544L1.0059 11.2086ZM11.9271 0V9.84349L14.8371 6.93355L15.34 7.47243L11.5679 11.2086L7.83168 7.47243L8.33463 6.93355L11.2086 9.84349V0H11.9271ZM7.04133 11.9271H0.718503V19.4714H22.4532V11.9271H16.1304V13.6156C16.1304 14.8371 15.1604 15.8071 13.939 15.8071H9.23276C8.01131 15.8071 7.04133 14.8371 7.04133 13.6156V11.9271Z" fill="black"/>
</svg>
