<svg width="22" height="22" viewBox="0 0 22 22" fill="none" xmlns="http://www.w3.org/2000/svg">
<circle cx="16" cy="16" r="5" fill="#109CF1"/>
<path d="M16.0417 22.0001C12.7563 22.0001 10.0833 19.3271 10.0833 16.0417C10.0833 12.7564 12.7563 10.0834 16.0417 10.0834C19.327 10.0834 22 12.7564 22 16.0417C22 19.3271 19.327 22.0001 16.0417 22.0001ZM16.0417 11C13.2614 11 11 13.2615 11 16.0417C11 18.822 13.2614 21.0834 16.0417 21.0834C18.8219 21.0834 21.0833 18.822 21.0833 16.0417C21.0833 13.2615 18.8219 11 16.0417 11Z" fill="black"/>
<path d="M15.125 18.3333C15.004 18.3333 14.8866 18.2847 14.8005 18.1995L12.9671 16.3662C12.7884 16.1874 12.7884 15.8968 12.9671 15.7181C13.1459 15.5393 13.4365 15.5393 13.6152 15.7181L15.1021 17.2049L17.9877 13.9068C18.1546 13.7152 18.4442 13.6959 18.6349 13.8637C18.8256 14.0305 18.8448 14.3202 18.678 14.5108L15.4696 18.1775C15.3862 18.2728 15.2661 18.3297 15.1396 18.3333C15.1351 18.3333 15.1296 18.3333 15.125 18.3333Z" fill="white"/>
<path d="M7.79167 19.25H2.29167C1.0285 19.25 0 18.2215 0 16.9583V2.29167C0 1.0285 1.0285 0 2.29167 0H12.375C13.6382 0 14.6667 1.0285 14.6667 2.29167V7.79167C14.6667 8.04467 14.4613 8.25 14.2083 8.25C13.9553 8.25 13.75 8.04467 13.75 7.79167V2.29167C13.75 1.53358 13.1331 0.916667 12.375 0.916667H2.29167C1.53358 0.916667 0.916667 1.53358 0.916667 2.29167V16.9583C0.916667 17.7164 1.53358 18.3333 2.29167 18.3333H7.79167C8.04467 18.3333 8.25 18.5387 8.25 18.7917C8.25 19.0447 8.04467 19.25 7.79167 19.25Z" fill="black"/>
<path d="M8.70833 12.7325C8.45533 12.7325 8.25 12.5272 8.25 12.2742V5.04171C8.25 4.78871 8.45533 4.58337 8.70833 4.58337H11.4583C11.7113 4.58337 11.9167 4.78871 11.9167 5.04171V9.18505C11.9167 9.43805 11.7113 9.64338 11.4583 9.64338C11.2053 9.64338 11 9.43805 11 9.18505V5.50004H9.16666V12.2742C9.16666 12.5281 8.96133 12.7325 8.70833 12.7325Z" fill="black"/>
<path d="M5.95833 13.75H3.20833C2.95533 13.75 2.75 13.5447 2.75 13.2917V8.70833C2.75 8.45533 2.95533 8.25 3.20833 8.25H5.95833C6.21133 8.25 6.41666 8.45533 6.41666 8.70833V13.2917C6.41666 13.5447 6.21133 13.75 5.95833 13.75ZM3.66666 12.8333H5.49999V9.16667H3.66666V12.8333Z" fill="black"/>
<path d="M8.26837 13.75H2.29171C2.03871 13.75 1.83337 13.5447 1.83337 13.2917C1.83337 13.0387 2.03871 12.8334 2.29171 12.8334H8.26837C8.52137 12.8334 8.72671 13.0387 8.72671 13.2917C8.72671 13.5447 8.52137 13.75 8.26837 13.75Z" fill="black"/>
</svg>
