<svg width="18" height="18" viewBox="0 0 18 18" fill="none" xmlns="http://www.w3.org/2000/svg">
<path d="M4.37944 4.38076L3.51796 3.64187C3.25311 3.95066 3.01146 4.27865 2.79495 4.62309L3.75972 5.22635C3.94476 4.92933 4.15194 4.64668 4.37944 4.38076Z" fill="#767272"/>
<path d="M5.96283 3.00853L5.35219 2.05114C5.0085 2.26931 4.68147 2.51267 4.37381 2.77926L5.11725 3.63619C5.38326 3.40642 5.66588 3.19662 5.96283 3.00853Z" fill="#767272"/>
<path d="M17.125 5.31034C15.7287 2.52597 12.8799 0.768685 9.76504 0.770281C8.61481 0.76794 7.47699 1.0081 6.42582 1.47513L6.88607 2.51253C10.4685 0.926558 14.6584 2.54502 16.2443 6.12748C17.8303 9.70995 16.2119 13.8998 12.6294 15.4858C11.7272 15.8851 10.7517 16.092 9.76504 16.093C7.07945 16.1048 4.62129 14.587 3.42882 12.1806L2.41354 12.6879C4.45083 16.7504 9.39563 18.3921 13.4581 16.3549C17.5206 14.3176 19.1623 9.37281 17.125 5.31034Z" fill="#767272"/>
<path d="M3.40505 7.4629L2.72801 8.13881C2.79278 7.57772 2.92621 7.0267 3.12527 6.49814C3.16896 6.3818 3.21607 6.2666 3.26544 6.15253L2.22463 5.69852C2.16788 5.82962 2.11113 5.96241 2.06403 6.09578C1.80276 6.78193 1.63683 7.50064 1.57086 8.23188L0.802456 7.4629L0 8.26536L2.10375 10.3691L4.2075 8.26536L3.40505 7.4629Z" fill="#767272"/>
<path d="M8.91391 3.89157V9.56665H12.319V8.43163H10.0489V3.89157H8.91391Z" fill="#767272"/>
<path d="M14.5888 8.43164H13.4538V9.56665H14.5888V8.43164Z" fill="#767272"/>
<path d="M10.0489 12.9717H8.91391V14.1067H10.0489V12.9717Z" fill="#767272"/>
</svg>
