<svg width="18" height="19" viewBox="0 0 18 19" fill="none" xmlns="http://www.w3.org/2000/svg">
<path d="M16.418 1H8.96484C8.09251 1 7.38281 1.7097 7.38281 2.58203V6.1808L6.91935 5.71737C6.62052 5.41851 6.22325 5.25391 5.80078 5.25391H4.74609C4.52254 5.25391 2.86028 5.25391 2.63672 5.25391C1.18283 5.25391 0 6.43674 0 7.89062C0 8.19047 0 10.6216 0 11.0547C0 11.927 0.709699 12.6367 1.58203 12.6367C1.76685 12.6367 1.94439 12.6049 2.10938 12.5464V17.418C2.10938 18.2903 2.81907 19 3.69141 19C4.09623 19 4.466 18.8472 4.74609 18.5962C5.02618 18.8472 5.39596 19 5.80078 19C6.67311 19 7.38281 18.2903 7.38281 17.418V10.4375C7.78602 10.5797 8.23268 10.5523 8.61771 10.3605L10.3933 9.47266H16.418C17.2903 9.47266 18 8.76296 18 7.89062V2.58203C18 1.7097 17.2903 1 16.418 1ZM10.2554 8.36239L8.14665 9.41676C7.94883 9.51534 7.70312 9.48391 7.53729 9.31811L7.22841 9.00919C6.9023 8.68308 6.32957 8.90488 6.32816 9.38044C6.32816 9.38097 6.32809 9.38146 6.32809 9.38199V17.418C6.32809 17.7087 6.09152 17.9453 5.80075 17.9453C5.50997 17.9453 5.2734 17.7087 5.2734 17.418V12.1094C5.2734 11.8181 5.03729 11.582 4.74606 11.582C4.45482 11.582 4.21871 11.8181 4.21871 12.1094V17.418C4.21871 17.7087 3.98215 17.9453 3.69137 17.9453C3.40059 17.9453 3.16403 17.7087 3.16403 17.418V11.0547C3.16403 10.6571 3.16403 8.21561 3.16403 7.89062C3.16403 7.59939 2.92792 7.36328 2.63668 7.36328C2.34545 7.36328 2.10934 7.59939 2.10934 7.89062C2.10934 8.19047 2.10934 10.6216 2.10934 11.0547C2.10934 11.3455 1.87277 11.582 1.582 11.582C1.29122 11.582 1.05465 11.3455 1.05465 11.0547C1.05469 10.6571 1.05469 8.21561 1.05469 7.89062C1.05469 7.01829 1.76439 6.30859 2.63672 6.30859C3.03434 6.30859 5.4758 6.30859 5.80078 6.30859C5.94155 6.30859 6.07395 6.36347 6.17358 6.46314L7.74531 8.03487C7.90576 8.19536 8.15101 8.23512 8.354 8.13366L9.78377 7.41876C10.0455 7.2878 10.3609 7.39366 10.4913 7.65473C10.6217 7.91562 10.5163 8.23196 10.2554 8.36239ZM16.9453 7.89062C16.9453 8.1814 16.7087 8.41797 16.418 8.41797H11.5108C11.514 8.40893 11.5175 8.40007 11.5206 8.39097C11.5965 8.16316 11.6193 7.92627 11.5902 7.69488L14.4741 6.25294C14.7346 6.12269 14.8402 5.80593 14.7099 5.54542C14.5797 5.28491 14.2629 5.1793 14.0024 5.30959L11.1187 6.75146C10.6567 6.30455 9.93702 6.1627 9.31194 6.47552L8.4375 6.91275V2.58203C8.4375 2.29125 8.67407 2.05469 8.96484 2.05469H16.418C16.7087 2.05469 16.9453 2.29125 16.9453 2.58203V7.89062Z" fill="#767272"/>
<path d="M4.10938 0C2.93663 0 2 0.984586 2 2.14453C2 3.30764 2.94627 4.25391 4.10938 4.25391C5.27248 4.25391 6.21875 3.30764 6.21875 2.14453C6.21875 0.983672 5.28092 0 4.10938 0ZM4.10938 3.19922C3.52782 3.19922 3.05469 2.72609 3.05469 2.14453C3.05469 1.55377 3.53766 1.05469 4.10938 1.05469C4.68109 1.05469 5.16406 1.55377 5.16406 2.14453C5.16406 2.72609 4.69093 3.19922 4.10938 3.19922Z" fill="#767272"/>
</svg>
