<svg width="15" height="16" viewBox="0 0 15 16" fill="none" xmlns="http://www.w3.org/2000/svg">
<path d="M7.91343 10.4899C7.72375 10.3007 7.41659 10.3011 7.22737 10.4907C7.03814 10.6804 7.03851 10.9876 7.22819 11.1768C7.9278 11.8747 8.31465 12.2607 8.38796 12.334L9.08273 13.0288C10.1721 14.1182 11.9382 14.1182 13.0276 13.0288C14.1169 11.9395 14.1169 10.1733 13.0276 9.08397L10.2833 6.33973C9.19399 5.25039 7.42783 5.25039 6.33849 6.33973C6.14904 6.52918 6.14904 6.83634 6.33849 7.02579C6.52794 7.21524 6.8351 7.21524 7.02455 7.02579C7.73499 6.31535 8.88683 6.31535 9.59727 7.02579L12.3415 9.77003C13.052 10.4805 13.052 11.6323 12.3415 12.3428C11.6311 13.0532 10.4792 13.0532 9.76879 12.3428L9.07402 11.648C9.00028 11.5742 8.61367 11.1885 7.91343 10.4899Z" fill="#C6BBBB"/>
<path d="M7.08657 4.51265C7.27625 4.70188 7.58341 4.70151 7.77263 4.51183C7.96186 4.32215 7.96149 4.01499 7.77181 3.82577C7.0722 3.12783 6.68535 2.74182 6.61204 2.66852L5.91727 1.97374C4.82793 0.884404 3.06176 0.884404 1.97242 1.97374C0.883084 3.06308 0.883084 4.82925 1.97242 5.91859L4.71667 8.66283C5.80601 9.75217 7.57217 9.75217 8.66151 8.66283C8.85096 8.47338 8.85096 8.16622 8.66151 7.97677C8.47206 7.78732 8.1649 7.78732 7.97545 7.97677C7.26502 8.68721 6.11317 8.68721 5.40273 7.97677L2.65848 5.23253C1.94805 4.52209 1.94805 3.37024 2.65848 2.6598C3.36892 1.94936 4.52077 1.94936 5.23121 2.6598L5.92598 3.35458C5.99972 3.42832 6.38633 3.81408 7.08657 4.51265Z" fill="#C6BBBB"/>
</svg>
