<svg width="10" height="6" viewBox="0 0 10 6" fill="none" xmlns="http://www.w3.org/2000/svg">
<path d="M4.99216 0.00187731C4.82555 0.00151539 4.6641 0.066093 4.53581 0.184401L0.257587 4.15232C0.111972 4.28702 0.0204009 4.48058 0.00301722 4.69043C-0.0143664 4.90027 0.0438616 5.10921 0.164892 5.27127C0.285922 5.43333 0.45984 5.53525 0.648386 5.55459C0.836931 5.57394 1.02466 5.50914 1.17027 5.37444L4.99216 1.81918L8.81404 5.24746C8.88697 5.31338 8.9709 5.36261 9.06098 5.39231C9.15107 5.42202 9.24554 5.43162 9.33896 5.42055C9.43239 5.40949 9.52294 5.37799 9.60539 5.32786C9.68784 5.27772 9.76058 5.20995 9.81942 5.12842C9.88472 5.04683 9.93418 4.9511 9.96469 4.84724C9.9952 4.74338 10.0061 4.63363 9.99674 4.52486C9.98737 4.41609 9.95792 4.31064 9.91023 4.21513C9.86254 4.11962 9.79764 4.03609 9.7196 3.96979L5.44137 0.136786C5.3094 0.0371795 5.15124 -0.0103207 4.99216 0.00187731Z" fill="#334D6E"/>
</svg>
